<?xml version="1.0" encoding="UTF-8"?>
<!-- Created with Inkscape (http://www.inkscape.org/) -->
<svg width="6.9057mm" height="6.9012mm" version="1.1" viewBox="0 0 6.9057 6.9012" xmlns="http://www.w3.org/2000/svg" xmlns:cc="http://creativecommons.org/ns#" xmlns:dc="http://purl.org/dc/elements/1.1/" xmlns:rdf="http://www.w3.org/1999/02/22-rdf-syntax-ns#" xmlns:xlink="http://www.w3.org/1999/xlink">
 <defs>
  <linearGradient id="linearGradient16021-8" x1="18" x2="33.289" y1="232" y2="258.24" gradientTransform="matrix(.20608 0 0 .20608 107.07 99.639)" gradientUnits="userSpaceOnUse">
   <stop style="stop-color:#ffd1ff" offset="0"/>
   <stop style="stop-color:#ffa9ff" offset="1"/>
  </linearGradient>
 </defs>
 <metadata>
  <rdf:RDF>
   <cc:Work rdf:about="">
    <dc:format>image/svg+xml</dc:format>
    <dc:type rdf:resource="http://purl.org/dc/dcmitype/StillImage"/>
    <dc:title/>
   </cc:Work>
  </rdf:RDF>
 </metadata>
 <g transform="translate(-108.43 -146.89)">
  <path d="m114.99 151.65c-0.69817 0.0507-1.3964 0.10151-2.0945 0.15226-0.44923 0.53686-0.89846 1.0737-1.3477 1.6106-0.26402-0.64832-0.52804-1.2966-0.79206-1.945-0.6494-0.26135-1.2988-0.52269-1.9482-0.78404 0.535-0.45144 1.07-0.90288 1.605-1.3543 0.0479-0.69838 0.0958-1.3968 0.14364-2.0951 0.59467 0.36932 1.1893 0.73863 1.784 1.108 0.67899-0.17028 1.358-0.34055 2.037-0.51083-0.16748 0.67969-0.33496 1.3594-0.50243 2.0391 0.37176 0.59314 0.74352 1.1863 1.1153 1.7794z" style="fill:url(#linearGradient16021-8);stroke-linecap:round;stroke-width:.39687;stroke:#000"/>
 </g>
</svg>
