<?xml version="1.0" encoding="UTF-8" standalone="no"?>
<!-- Created with Inkscape (http://www.inkscape.org/) -->

<svg
   xmlns:dc="http://purl.org/dc/elements/1.1/"
   xmlns:cc="http://creativecommons.org/ns#"
   xmlns:rdf="http://www.w3.org/1999/02/22-rdf-syntax-ns#"
   xmlns:svg="http://www.w3.org/2000/svg"
   xmlns="http://www.w3.org/2000/svg"
   xmlns:xlink="http://www.w3.org/1999/xlink"
   xmlns:sodipodi="http://sodipodi.sourceforge.net/DTD/sodipodi-0.dtd"
   xmlns:inkscape="http://www.inkscape.org/namespaces/inkscape"
   width="744.09448819"
   height="1052.3622047"
   id="svg4737"
   version="1.1"
   inkscape:version="0.48.4 r9939"
   sodipodi:docname="brainstorm.svg"
   inkscape:export-filename="C:\Users\garysoed\Google Drive\Happy My Life\Artwork\exports\brainstorm2.png"
   inkscape:export-xdpi="150.02893"
   inkscape:export-ydpi="150.02893">
  <defs
     id="defs4739">
    <linearGradient
       id="linearGradient5311">
      <stop
         style="stop-color:#b3b3b3;stop-opacity:1;"
         offset="0"
         id="stop5313" />
      <stop
         style="stop-color:#8c8c8c;stop-opacity:1;"
         offset="1"
         id="stop5315" />
    </linearGradient>
    <linearGradient
       id="linearGradient5299">
      <stop
         style="stop-color:#ffd7f7;stop-opacity:1;"
         offset="0"
         id="stop5301" />
      <stop
         style="stop-color:#ffcdf5;stop-opacity:1;"
         offset="1"
         id="stop5303" />
    </linearGradient>
    <linearGradient
       inkscape:collect="always"
       xlink:href="#linearGradient5299"
       id="linearGradient5305"
       x1="482.08286"
       y1="451.43124"
       x2="450.9725"
       y2="482.746"
       gradientUnits="userSpaceOnUse" />
    <linearGradient
       inkscape:collect="always"
       xlink:href="#linearGradient5299"
       id="linearGradient5307"
       x1="300.10855"
       y1="465.38544"
       x2="333.18103"
       y2="476.4971"
       gradientUnits="userSpaceOnUse" />
    <linearGradient
       inkscape:collect="always"
       xlink:href="#linearGradient5299"
       id="linearGradient5309"
       x1="402.19232"
       y1="461.8161"
       x2="396.55371"
       y2="513.33386"
       gradientUnits="userSpaceOnUse" />
    <linearGradient
       inkscape:collect="always"
       xlink:href="#linearGradient5311"
       id="linearGradient5317"
       x1="386.55545"
       y1="273.72815"
       x2="391.56592"
       y2="416.15967"
       gradientUnits="userSpaceOnUse" />
    <filter
       inkscape:collect="always"
       id="filter5327">
      <feGaussianBlur
         inkscape:collect="always"
         stdDeviation="1.5908888"
         id="feGaussianBlur5329" />
    </filter>
    <filter
       inkscape:collect="always"
       id="filter5331">
      <feGaussianBlur
         inkscape:collect="always"
         stdDeviation="1.5908888"
         id="feGaussianBlur5333" />
    </filter>
  </defs>
  <sodipodi:namedview
     id="base"
     pagecolor="#ffffff"
     bordercolor="#666666"
     borderopacity="1.0"
     inkscape:pageopacity="0.0"
     inkscape:pageshadow="2"
     inkscape:zoom="0.98994949"
     inkscape:cx="609.28926"
     inkscape:cy="565.73658"
     inkscape:document-units="px"
     inkscape:current-layer="layer1"
     showgrid="false"
     inkscape:window-width="1280"
     inkscape:window-height="738"
     inkscape:window-x="-8"
     inkscape:window-y="-8"
     inkscape:window-maximized="1" />
  <metadata
     id="metadata4742">
    <rdf:RDF>
      <cc:Work
         rdf:about="">
        <dc:format>image/svg+xml</dc:format>
        <dc:type
           rdf:resource="http://purl.org/dc/dcmitype/StillImage" />
        <dc:title></dc:title>
      </cc:Work>
    </rdf:RDF>
  </metadata>
  <g
     inkscape:label="Layer 1"
     inkscape:groupmode="layer"
     id="layer1">
    <path
       style="fill:#000000;fill-opacity:1;stroke:none;stroke-opacity:1"
       d="m 390.79718,711.3979 c -0.9283,-1.13852 -4.15272,-11.72469 -12.41197,-40.75 -8.39735,-29.51063 -7.93706,-42.93032 2.05765,-59.99038 2.09753,-3.58029 4.09543,-7.29712 4.43978,-8.25962 0.79639,-2.22604 -0.14975,-4.75 -1.7806,-4.75 -2.59442,0 -15.94369,6.1153 -24.08815,11.03479 -9.31115,5.62421 -12.74849,6.12699 -13.23749,1.93625 -0.63403,-5.43364 19.51401,-29.37365 32.56996,-38.69981 11.53605,-8.24046 20.60567,-10.11228 33.79791,-6.97532 7.77292,1.8483 9.20614,2.6545 14.02475,7.88901 4.61258,5.01069 20.35,25.72234 25.82637,33.98948 3.97535,6.0012 4.20719,9.8256 0.59564,9.8256 -1.01513,0 -6.65043,-3.83658 -12.52289,-8.52573 -11.3682,-9.0775 -17.81303,-12.95058 -20.0936,-12.07544 -2.21004,0.84807 -1.7407,2.58849 3.69176,13.68982 6.59024,13.4673 7.82478,19.95169 8.55054,44.91135 0.85501,29.40508 -1.7816,50.25846 -6.74057,53.31218 -2.11559,1.30277 -6.61231,0.10343 -7.77604,-2.07399 -0.51094,-0.956 -1.44677,-7.81319 -2.07962,-15.23819 -1.63037,-19.12877 -6.21444,-37 -9.49069,-37 -0.79536,0 -2.39749,2.51738 -3.65947,5.75 -1.94087,4.97162 -2.25518,7.71287 -2.32185,20.25 -0.0424,7.975 0.0852,17.78457 0.2835,21.79904 0.29233,5.91712 0.0263,7.66841 -1.40499,9.25 -1.98776,2.19644 -6.68441,2.59647 -8.22993,0.70096 z"
       id="path5297" />
    <path
       style="fill:#000000;fill-opacity:1;stroke:none;stroke-opacity:1"
       d="m 425.11448,681.97401 c 1.05249,-12.63497 -0.13429,-46.58548 -1.9042,-54.47387 -0.82035,-3.65627 -3.5788,-10.64164 -6.12989,-15.52305 -6.00812,-11.49632 -6.65662,-15.81176 -3.0247,-20.12805 3.21226,-3.81755 5.71991,-4.02931 12.61085,-1.0649 2.7312,1.17492 5.19745,1.9046 5.48055,1.62149 0.74736,-0.74735 -11.3936,-16.59237 -14.0445,-18.32931 -1.23364,-0.80831 -5.76476,-2.14349 -10.06916,-2.96705 -6.97092,-1.33376 -8.39591,-1.33178 -13.03953,0.0182 -7.03418,2.0449 -14.94678,7.54509 -24.48378,17.01914 -7.07293,7.02621 -9.01373,9.50129 -7.45034,9.50129 0.26856,0 4.29309,-1.575 8.9434,-3.5 8.80235,-3.64374 12.37554,-4.20872 15.6237,-2.47036 2.25455,1.2066 4.94461,6.02007 4.94461,8.84766 0,1.08714 -2.78915,7.29698 -6.19812,13.79966 -6.0443,11.52962 -6.20834,12.04725 -6.60984,20.85732 -0.2783,6.10656 0.14753,11.77627 1.31402,17.49543 2.13935,10.48901 9.28096,35.13463 10.55358,36.42029 0.58791,0.59394 0.94319,-2.21705 0.94791,-7.5 0.0191,-21.3844 6.13054,-35.95 15.08387,-35.95 2.23751,0 3.41506,0.77486 4.93901,3.25 3.93998,6.39917 7.78134,21.00663 9.46702,36 0.35555,3.1625 1.02369,5.75 1.48474,5.75 0.46105,0 1.16341,-3.90325 1.5608,-8.67389 z"
       id="path5295" />
    <path
       style="fill:#000000;fill-opacity:1;stroke:none"
       d="m 354.91817,441.98118 c 0.33943,-2.6583 0.88501,-6.18328 1.2124,-7.83328 l 0.59525,-3 -15.82716,0 c -14.37022,0 -16.37373,-0.22019 -21.7646,-2.39198 -3.26559,-1.31558 -6.97809,-3.43263 -8.25,-4.70454 -2.98529,-2.98529 -3.05842,-7.98066 -0.16196,-11.0638 l 2.15062,-2.28922 -4.15062,-4.50289 c -2.3355,-2.53372 -4.14898,-5.49661 -4.14687,-6.77523 0.006,-3.55052 3.43536,-8.3148 8.94774,-12.43018 2.77669,-2.07299 5.04852,-4.25099 5.04852,-4.84001 0,-0.58901 -1.3907,-1.89244 -3.09044,-2.89651 -5.49685,-3.24706 -9.76004,-7.62255 -10.95512,-11.24369 -1.06129,-3.21575 -0.88465,-4.07801 1.93894,-9.46463 1.70864,-3.25961 3.10662,-6.55625 3.10662,-7.32587 0,-0.76963 -3.00183,-3.07804 -6.67074,-5.12981 -15.88896,-8.88561 -22.98336,-21.82088 -19.10025,-34.82562 1.71603,-5.74711 9.87984,-13.84552 16.27099,-16.14066 5.77873,-2.0752 7.5,-3.80075 7.5,-7.51861 0,-6.31868 8.25167,-13.34676 17,-14.47917 2.475,-0.32037 12.6,-3.8175 22.5,-7.77139 l 18,-7.1889 14.70465,-0.34945 14.70464,-0.34945 2.60332,2.60331 c 2.50829,2.50829 2.8293,2.56663 8.79535,1.59836 3.40562,-0.55272 8.13412,-1.00835 10.50778,-1.01251 2.37366,-0.004 5.14345,-0.45052 6.15508,-0.99194 1.70369,-0.91178 20.02918,-33.62429 20.02918,-35.75372 0,-0.52355 0.91958,-1.78412 2.04351,-2.80126 1.93141,-1.74791 2.93247,-1.78304 18.25,-0.64034 8.91357,0.66496 18.25798,1.20242 20.76536,1.19436 2.50738,-0.008 5.43238,0.63891 6.5,1.4377 1.90906,1.42835 1.90161,1.52334 -0.45122,5.75 -1.31579,2.36371 -6.76345,10.37265 -12.10591,17.79765 -13.38092,18.59692 -15.47654,21.93322 -14.41135,22.9435 0.50028,0.4745 3.80471,1.59318 7.34317,2.48595 13.63795,3.44092 19.06644,8.75353 19.06644,18.65942 0,3.1862 0.494,6.0984 1.09777,6.47156 2.48065,1.53312 6.90223,9.98976 6.90223,13.20109 0,4.16906 -1.13124,6.35271 -6.65502,12.84629 -2.38974,2.8093 -4.34498,5.5818 -4.34498,6.16111 0,2.23325 -6.26608,6.15545 -13.89043,8.69459 -4.37774,1.45792 -8.50439,3.30729 -9.17034,4.10971 -0.81617,0.98342 -0.99972,3.25504 -0.56315,6.96956 0.79548,6.76832 -0.78549,10.32119 -5.94821,13.36728 -3.01851,1.78096 -3.52211,2.53235 -2.92909,4.37034 0.39387,1.22078 1.23028,4.20354 1.85868,6.62836 0.95017,3.66647 1.94019,4.90029 5.88005,7.32809 5.74118,3.5378 8.86556,7.68353 8.98612,11.92364 0.0696,2.44815 -0.7702,3.9523 -3.71178,6.64805 l -3.80173,3.48403 1.64989,4.60372 c 3.31333,9.24525 1.19366,16.18175 -5.99195,19.60833 -3.62389,1.72812 -5.03584,1.76959 -22.36806,0.65695 -10.175,-0.65319 -22.83982,-1.18175 -28.14405,-1.17459 -9.14715,0.0123 -27.82427,1.46183 -32.53955,2.52531 -1.29843,0.29284 -4.73847,4.03855 -8.48607,9.2401 -2.06936,2.87221 -4.27902,5.7735 -5.99021,7.8942 -2.80044,0.15214 -5.03902,-1.10039 -6.49344,-4.31331 z"
       id="path3012"
       inkscape:connector-curvature="0"
       sodipodi:nodetypes="cscsssscscsssssssssssscccssccssscsssssscsssssssssssscsssssscc" />
    <path
       style="fill:#000000;fill-opacity:1;stroke:none"
       d="m 358.36362,453.63952 1.81484,2.24123 5.38718,-2.72989 c 5.3206,-2.69615 5.49914,-2.71571 14.44652,-1.58253 4.98263,0.63104 13.55933,1.56683 19.05933,2.07952 5.5,0.5127 13.5048,1.45515 17.78844,2.09434 4.28364,0.63919 7.88364,0.99196 8,0.78394 0.11636,-0.20803 1.15789,-2.17823 2.31452,-4.37823 4.80839,-9.14595 18.3346,-13.95655 32.88283,-11.69479 10.16162,1.57979 18.58486,5.17531 33.91313,14.47604 7.2056,4.37214 17.95786,10.38588 23.89391,13.36388 5.93606,2.978 11.05314,6.09288 11.37128,6.92195 0.95846,2.49769 -2.57992,5.43142 -6.5691,5.44657 -4.57882,0.0174 -8.09501,0.9539 -8.09501,2.15604 0,0.51503 1.125,2.592 2.5,4.6155 4.21888,6.20864 3.12233,8.33106 -5.01841,9.71337 -6.62647,1.12518 -7.55881,1.57433 -8.52094,4.10494 -0.50863,1.3378 -2.17035,2.91975 -3.69272,3.51543 -3.88044,1.51839 -30.28282,0.44307 -37.2478,-1.51703 -3.01393,-0.84818 -5.74427,-1.2181 -6.06741,-0.82203 -0.32315,0.39607 -1.14398,3.56472 -1.82406,7.04145 -2.04786,10.46897 -4.12455,13.32161 -8.13536,11.17509 -3.11204,-1.66551 -3.87141,-1.17165 -5.00283,3.25359 -3.34776,13.09375 -10.10635,22.74807 -19.12394,27.31763 -10.1946,5.166 -29.41077,7.53283 -40.54936,4.99441 -12.71593,-2.89788 -19.94717,-7.75944 -26.12234,-17.56204 -1.90561,-3.025 -4.36215,-6.49089 -5.45898,-7.70197 -1.25413,-1.38477 -1.78827,-2.98958 -1.43925,-4.32421 0.67099,-2.56588 -2.37715,-5.97382 -5.34311,-5.97382 -1.25803,0 -2.70283,-1.19804 -3.75,-3.10951 -0.93692,-1.71024 -2.41065,-4.02263 -3.27497,-5.13865 l -1.57147,-2.02913 -5.92853,2.23493 c -11.38434,4.29164 -24.32618,4.46784 -34.3245,0.4673 -3.27826,-1.3117 -4.04486,-2.13875 -4.29706,-4.63595 -0.27804,-2.75309 -0.92749,-3.26817 -6.89357,-5.46734 -7.78304,-2.86892 -13.90693,-7.54886 -13.9287,-10.64445 -0.021,-2.98198 -0.94144,-4.07101 -4.73929,-5.6072 -3.0536,-1.23515 -9.2454,-7.20478 -9.2454,-8.91367 0,-2.44125 3.49147,-4.43898 11.5,-6.58 12.04066,-3.21898 16.6819,-5.12845 35.48043,-14.59716 22.24089,-11.20261 36.27286,-14.40714 45.74882,-10.44783 2.24525,0.15376 10.30945,6.72057 10.06288,7.46028 z"
       id="path5293"
       inkscape:connector-curvature="0"
       sodipodi:nodetypes="ccsssscsssssssssssscssssssssssscssssssssscc" />
    <path
       style="fill:#000000;fill-opacity:1;stroke:none;stroke-opacity:1"
       d="m 411.21989,548.06764 c 14.78494,-3.84996 21.05525,-11.65151 18.7258,-23.29875 -0.4867,-2.43348 -1.31358,-3.30722 -3.71997,-3.93078 -2.45457,-0.63604 -4.81369,-3.21912 -11.41261,-12.496 -4.57514,-6.43181 -8.86955,-11.69421 -9.54313,-11.69421 -0.67357,0 -3.87513,3.3837 -7.11457,7.51934 -8.53271,10.89332 -13.58392,11.15592 -13.58392,0.7062 0,-2.41572 -0.42996,-4.24221 -0.95546,-4.05887 -0.5255,0.18333 -4.01565,4.15833 -7.75589,8.83333 -6.74618,8.43218 -10.10317,10.58548 -12.60399,8.08466 -1.77092,-1.77092 -2.57562,-1.2814 -4.17124,2.53746 -2.00325,4.79445 -1.91215,6.67599 0.55762,11.51713 4.72614,9.26401 13.23345,15.53144 24.27279,17.88205 5.4648,1.16363 19.94782,0.31412 27.30457,-1.60156 z"
       id="path5291" />
    <path
       style="fill:url(#linearGradient5309);fill-opacity:1;stroke:none;stroke-opacity:1"
       d="m 356.60197,509.74209 c 1.76971,-3.32032 4.17955,-6.32448 5.58808,-6.96626 2.14912,-0.9792 2.78651,-0.79389 4.82131,1.40169 l 2.34479,2.53007 3.27743,-4.27984 c 11.53049,-15.05715 18.93791,-18.02195 18.93791,-7.57985 0,4.48231 2.08347,5.12844 4.52439,1.40313 0.86377,-1.31829 3.30812,-3.60106 5.43188,-5.07283 3.63832,-2.52135 4.02554,-2.58893 6.70256,-1.16973 1.56265,0.82842 5.31617,4.90927 8.34117,9.06856 3.025,4.15929 5.8375,7.56426 6.25,7.56661 0.4125,0.002 0.75,-1.70574 0.75,-3.79574 0,-4.08309 1.39223,-6.2 4.07756,-6.2 2.71947,0 4.19676,2.68698 5.91807,10.7641 0.89176,4.18453 2.04505,7.731 2.56287,7.88105 0.51783,0.15004 2.15156,-1.47619 3.63052,-3.61386 1.855,-2.6812 3.56086,-3.98664 5.5,-4.20898 l 2.81098,-0.32231 0,-8.02688 c 0,-7.05163 -0.39858,-8.83579 -3.28057,-14.68482 -3.48315,-7.06907 -10.61587,-14.41941 -17.30299,-17.83093 -5.25557,-2.68119 -16.0259,-4.9351 -28.57939,-5.98081 -5.96038,-0.4965 -14.29102,-1.43855 -18.51254,-2.09345 -7.4712,-1.15903 -7.82161,-1.11923 -13.16545,1.49527 -13.0201,6.37014 -25.59531,26.16496 -25.64719,40.37162 -0.0101,2.75869 0.34755,3.25 2.36569,3.25 2.8916,0 3.99703,1.29045 5.56807,6.5 0.66346,2.2 1.39392,4.59102 1.62326,5.31338 0.66072,2.08108 2.11675,0.55638 5.46159,-5.71919 z"
       id="path5289" />
    <path
       style="fill:url(#linearGradient5307);fill-opacity:1.0;stroke:none;stroke-opacity:1"
       d="m 318.61184,508.64025 c 2.92233,-0.55421 7.65045,-2.07763 10.50694,-3.38537 l 5.19362,-2.37772 0.7306,-5.84755 c 1.39249,-11.14509 6.71916,-22.78782 14.42768,-31.53516 4.70847,-5.343 4.96729,-6.68624 1.85081,-9.60562 -4.80157,-4.4979 -12.65051,-5.42071 -23.2899,-2.73822 -3.27806,0.82649 -14.0601,5.56929 -23.9601,10.53957 -9.9,4.97027 -22.03649,10.32852 -26.96998,11.90722 -4.93348,1.5787 -9.11929,3.3183 -9.30178,3.86579 -0.1825,0.54748 1.21208,1.50495 3.09906,2.12771 4.43035,1.46215 6.91964,4.26483 6.51699,7.33745 -0.49325,3.76406 1.69616,5.48737 10.50814,8.27107 8.65612,2.73447 11.64757,4.67211 11.64757,7.54445 0,4.03411 8.80887,5.83674 19.04035,3.89638 z"
       id="path5287" />
    <path
       style="fill:url(#linearGradient5305);fill-opacity:1;stroke:none;stroke-opacity:1"
       d="m 495.3981,495.84402 c 0.33818,-2.38546 3.53575,-4.18373 7.48849,-4.21143 4.73217,-0.0332 5.14211,-1.4598 1.8108,-6.3017 -1.71924,-2.49884 -3.1259,-5.45893 -3.1259,-6.57798 0,-2.35297 2.74618,-4.10501 6.43426,-4.10501 1.41116,0 2.56574,-0.37725 2.56574,-0.83834 0,-0.95078 -28.18506,-17.98426 -35.98295,-21.74608 -16.20751,-7.81877 -35.34968,-6.47831 -41.05254,2.87476 -1.07637,1.76531 -1.95872,3.69141 -1.96077,4.28022 -0.002,0.5888 2.9146,3.40916 6.48146,6.26746 7.61604,6.10312 12.70885,13.23008 15.54577,21.75504 1.77178,5.3242 2.5333,6.35553 5.75549,7.79465 5.88184,2.62701 11.86602,3.4346 24.21354,3.26772 11.19152,-0.15126 11.50876,-0.21723 11.82661,-2.45931 z"
       id="path5285" />
    <path
       style="fill:url(#linearGradient5317);fill-opacity:1;stroke:none;stroke-opacity:1"
       d="m 360.12849,422.5078 c 1.17279,-1.18295 13.64745,-30.13637 15.17533,-35.22161 0.51249,-1.70573 -0.0184,-1.84036 -6.33648,-1.60687 -10.36502,0.38306 -11.33377,0.19893 -12.50753,-2.37719 -1.23522,-2.71101 1.04066,-7.69627 13.00954,-28.49709 3.90618,-6.78858 7.10214,-12.54207 7.10214,-12.78554 0,-0.24347 -2.04568,-1.31956 -4.54596,-2.3913 -6.68334,-2.86481 -11.45404,-6.81831 -11.45404,-9.492 0,-3.54751 2.39351,-3.62726 7.65886,-0.25519 6.47832,4.14888 12.58498,4.64477 22.59816,1.83507 7.24874,-2.034 7.963,-2.06592 13.59124,-0.6075 9.09321,2.35629 14.0707,2.00115 20.67989,-1.47549 4.42,-2.32505 6.04475,-2.75462 7.10155,-1.87755 2.01949,1.67603 1.68679,3.30314 -1.28257,6.2725 -2.34496,2.34496 -7.05669,4.1802 -15.42726,6.00899 -1.85852,0.40605 -4.30599,3.11363 -8.75104,9.6811 -3.394,5.01456 -5.91888,9.52518 -5.61085,10.02358 0.30803,0.4984 4.61308,0.90619 9.56678,0.90619 10.50124,0 12.87524,0.9099 12.87524,4.93477 0,3.34597 -3.16743,7.76832 -18.0522,25.20437 -14.8832,17.43421 -23.9478,28.53122 -23.9478,29.31724 0,0.37032 6.92624,0.35653 15.39166,-0.0307 9.54173,-0.4364 23.33731,-0.21643 36.29738,0.57878 22.89905,1.40504 24.73469,1.13973 25.96252,-3.75236 0.41885,-1.6688 0.0129,-4.41035 -1.06913,-7.22114 -3.35605,-8.71766 -3.31652,-9.0632 1.51266,-13.22239 5.33088,-4.59129 4.98064,-5.62822 -3.68547,-10.91122 -5.64275,-3.43991 -5.9396,-3.82376 -6.57349,-8.5 -0.36513,-2.69357 -1.58551,-6.64647 -2.71196,-8.78422 -2.41643,-4.58586 -1.65796,-6.88608 3.11915,-9.45945 6.12883,-3.30154 6.69629,-4.39317 6.16002,-11.85005 -0.33945,-4.72006 -0.0923,-7.29486 0.80706,-8.40754 1.67809,-2.07613 7.8544,-5.16125 14.7896,-7.38753 5.77086,-1.85251 9,-4.00836 9,-6.00861 0,-0.65451 0.96588,-2.04727 2.1464,-3.09501 3.61543,-3.2088 7.85419,-9.58886 7.84297,-11.80503 -0.006,-1.15493 -1.80106,-4.34991 -3.98937,-7.09991 -3.60594,-4.53151 -3.97974,-5.54597 -3.98937,-10.82692 -0.0147,-8.03603 -2.59194,-10.53839 -14.01063,-13.60335 -4.675,-1.25484 -12.1628,-4.0742 -16.63956,-6.26524 -6.63842,-3.249 -9.66604,-4.11488 -16.41648,-4.695 -9.78214,-0.84065 -28.19781,0.13252 -36.13941,1.90977 -6.76433,1.51379 -8.80455,0.91839 -8.80455,-2.56943 l 0,-2.61294 -12.25,0.34587 -12.25,0.34587 -14,5.83577 c -17.04325,7.10432 -20.65072,8.33647 -26.74525,9.13499 -6.9345,0.90857 -10.31447,4.13533 -11.07716,10.57504 -0.33464,2.82553 -1.10806,5.73932 -1.7187,6.4751 -0.61064,0.73578 -3.92858,2.27566 -7.3732,3.42195 -9.6373,3.20709 -15.59934,10.19114 -15.57631,18.2464 0.0125,4.37133 4.97619,12.82192 9.68993,16.49693 2.09038,1.62974 6.20445,4.2546 9.14238,5.83301 5.69367,3.05895 9.15831,6.63252 9.15831,9.44627 0,0.94841 -1.35,4.25422 -3,7.34625 -1.65,3.09203 -3,6.45193 -3,7.46645 0,2.26954 2.78266,4.88535 10.17768,9.5674 5.82316,3.68685 7.61321,6.39015 6.06421,9.15807 -0.48405,0.86493 -3.99379,3.91151 -7.79944,6.77017 -3.80565,2.85867 -7.08423,6.05869 -7.28574,7.11118 -0.2438,1.27338 1.17424,3.32814 4.23846,6.14157 5.26051,4.82999 5.7704,7.4601 2.10483,10.85724 -1.375,1.27431 -2.5,2.81199 -2.5,3.41707 0,1.30777 3.0079,3.02374 8.5,4.84916 5.45071,1.81166 33.08912,1.16617 35.057,-0.81875 z"
       id="path5283" />
    <path
       style="fill:#ffe600;fill-opacity:1;stroke:none;stroke-opacity:1"
       d="m 373.48891,418.54573 c 1.26145,-1.7062 7.98357,-9.88068 14.93806,-18.16551 21.60972,-25.74352 25.14452,-30.14924 25.14452,-31.33977 0,-0.76096 -3.20035,-1.29396 -9.39654,-1.56496 -15.05575,-0.65849 -15.85948,-2.97567 -6.0504,-17.44335 3.60419,-5.31591 6.34115,-10.21753 6.08215,-10.89249 -0.83893,-2.18621 -5.91472,-2.34035 -12.28417,-0.37303 l -6.22444,1.92254 -7.93636,13.72937 c -8.89217,15.38286 -12.19024,21.6568 -12.19024,23.18953 0,0.63844 3.2895,1.03984 8.52144,1.03984 7.98801,0 8.58885,0.14796 9.59838,2.36363 0.90618,1.98885 0.28242,4.24836 -3.93386,14.25 -7.02713,16.66938 -10.18596,24.59557 -10.18596,25.55878 0,1.7109 1.70105,0.72321 3.91742,-2.27458 z"
       id="path5281" />
    <path
       style="fill:#ffe600;fill-opacity:1;stroke:none;stroke-opacity:1"
       d="m 468.2126,248.08326 c 6.73931,-9.31445 12.27705,-17.44677 12.30609,-18.07182 0.0637,-1.37031 -4.70718,-2.06543 -19.9472,-2.90631 l -11.5,-0.63453 -8,15.33865 c -4.4,8.43626 -8,15.98353 -8,16.77171 0,0.99169 2.15595,1.80791 7,2.65013 3.85,0.66938 8.575,1.91839 10.5,2.77556 1.925,0.85717 3.92476,1.43553 4.44392,1.28523 0.51915,-0.15029 6.45789,-7.89417 13.19719,-17.20862 z"
       id="path4769" />
    <path
       style="fill:#ffe600;fill-opacity:1;stroke:none;filter:url(#filter5331);opacity:0.75000000000000000"
       d="m 398.3125,335.4375 c -5.02479,0.93196 -11.40627,1.50359 -14.84455,5.11556 -6.52594,12.22735 -14.89941,23.70524 -19.8742,36.63444 0.46984,4.65085 7.25807,2.91141 10.5,3.46875 2.61428,0.25725 9.27246,-1.37719 7.78125,3.375 -3.84151,12.50988 -11.11999,24.51928 -14.28125,37.28125 1.06449,4.63737 6.36731,1.05776 7.53125,-1.625 13.00347,-16.77757 27.96456,-32.201 40.1875,-49.46875 1.20822,-4.79294 -5.82282,-4.26269 -8.84375,-4.625 -4.05555,-0.80626 -9.9504,0.71067 -12.8125,-2.53125 1.70606,-9.11323 10.92693,-15.30739 12.5625,-24.40625 -1.19422,-3.14507 -5.02748,-3.42647 -7.90625,-3.21875 z"
       id="path5319"
       inkscape:connector-curvature="0" />
    <path
       style="fill:#ffe600;fill-opacity:1;stroke:none;filter:url(#filter5327);opacity:0.75000000000000000"
       d="m 447.28125,225.53125 c -5.40513,11.00702 -11.96721,21.56386 -16.28125,33 1.80831,5.56988 9.67431,3.81643 14.03012,5.84617 4.10072,0.17664 9.7295,5.81509 12.84488,0.74758 8.61908,-11.35728 17.7192,-22.6598 24.75,-35.03125 -1.38731,-5.02839 -8.43234,-3.36735 -12.34375,-4.375 -7.46031,-0.56807 -14.9362,-0.90027 -22.40625,-1.3125 l -0.46676,0.88438 -0.12699,0.24062 z"
       id="path5321"
       inkscape:connector-curvature="0" />
  </g>
</svg>
