<?xml version="1.0" encoding="UTF-8" standalone="no"?>
<!-- Created with Inkscape (http://www.inkscape.org/) -->

<svg
   xmlns:dc="http://purl.org/dc/elements/1.1/"
   xmlns:cc="http://creativecommons.org/ns#"
   xmlns:rdf="http://www.w3.org/1999/02/22-rdf-syntax-ns#"
   xmlns:svg="http://www.w3.org/2000/svg"
   xmlns="http://www.w3.org/2000/svg"
   xmlns:xlink="http://www.w3.org/1999/xlink"
   xmlns:sodipodi="http://sodipodi.sourceforge.net/DTD/sodipodi-0.dtd"
   xmlns:inkscape="http://www.inkscape.org/namespaces/inkscape"
   width="744.09448819"
   height="1052.3622047"
   id="svg5458"
   version="1.1"
   inkscape:version="0.48.4 r9939"
   sodipodi:docname="it'shardwork.svg"
   inkscape:export-filename="C:\Users\garysoed\Google Drive\Happy My Life\Artwork\exports\itshardwork.png"
   inkscape:export-xdpi="149.99614"
   inkscape:export-ydpi="149.99614">
  <defs
     id="defs5460">
    <linearGradient
       id="linearGradient6055">
      <stop
         style="stop-color:#a05a2c;stop-opacity:1;"
         offset="0"
         id="stop6057" />
      <stop
         style="stop-color:#693b1d;stop-opacity:1;"
         offset="1"
         id="stop6059" />
    </linearGradient>
    <linearGradient
       id="linearGradient6045">
      <stop
         style="stop-color:#f2f2f2;stop-opacity:1;"
         offset="0"
         id="stop6047" />
      <stop
         style="stop-color:#dadada;stop-opacity:1;"
         offset="1"
         id="stop6049" />
    </linearGradient>
    <linearGradient
       id="linearGradient6037">
      <stop
         style="stop-color:#87cdde;stop-opacity:1;"
         offset="0"
         id="stop6039" />
      <stop
         style="stop-color:#40afca;stop-opacity:1;"
         offset="1"
         id="stop6041" />
    </linearGradient>
    <linearGradient
       id="linearGradient6027">
      <stop
         style="stop-color:#666666;stop-opacity:1;"
         offset="0"
         id="stop6029" />
      <stop
         style="stop-color:#434343;stop-opacity:1;"
         offset="1"
         id="stop6031" />
    </linearGradient>
    <linearGradient
       id="linearGradient6019">
      <stop
         style="stop-color:#cccccc;stop-opacity:1;"
         offset="0"
         id="stop6021" />
      <stop
         style="stop-color:#acacac;stop-opacity:1;"
         offset="1"
         id="stop6023" />
    </linearGradient>
    <linearGradient
       inkscape:collect="always"
       xlink:href="#linearGradient6019"
       id="linearGradient6025"
       x1="364.71429"
       y1="530.54254"
       x2="344.9787"
       y2="681.97113"
       gradientUnits="userSpaceOnUse" />
    <linearGradient
       inkscape:collect="always"
       xlink:href="#linearGradient6027"
       id="linearGradient6033"
       x1="154.72729"
       y1="876.66296"
       x2="238.11011"
       y2="709.52014"
       gradientUnits="userSpaceOnUse" />
    <linearGradient
       inkscape:collect="always"
       xlink:href="#linearGradient6027"
       id="linearGradient6035"
       x1="170.72475"
       y1="639.14337"
       x2="165.70149"
       y2="729.14337"
       gradientUnits="userSpaceOnUse" />
    <linearGradient
       inkscape:collect="always"
       xlink:href="#linearGradient6037"
       id="linearGradient6043"
       x1="131.51265"
       y1="709.48889"
       x2="142.40602"
       y2="749.48889"
       gradientUnits="userSpaceOnUse" />
    <linearGradient
       inkscape:collect="always"
       xlink:href="#linearGradient6045"
       id="linearGradient6051"
       x1="100.84647"
       y1="652.73596"
       x2="122.07362"
       y2="652.73596"
       gradientUnits="userSpaceOnUse" />
    <linearGradient
       inkscape:collect="always"
       xlink:href="#linearGradient6045"
       id="linearGradient6053"
       x1="100.84647"
       y1="652.73596"
       x2="136.05746"
       y2="691.85114"
       gradientUnits="userSpaceOnUse" />
    <linearGradient
       inkscape:collect="always"
       xlink:href="#linearGradient6055"
       id="linearGradient6061"
       x1="481.08966"
       y1="652.51025"
       x2="672.60938"
       y2="1036.3682"
       gradientUnits="userSpaceOnUse" />
    <linearGradient
       inkscape:collect="always"
       xlink:href="#linearGradient6027"
       id="linearGradient3808"
       x1="161.3595"
       y1="649.85767"
       x2="166.41577"
       y2="729.85767"
       gradientUnits="userSpaceOnUse" />
    <filter
       color-interpolation-filters="sRGB"
       inkscape:collect="always"
       id="filter4183"
       x="-0.50432855"
       width="2.008657"
       y="-0.5890249"
       height="2.1780498">
      <feGaussianBlur
         inkscape:collect="always"
         stdDeviation="45.929918"
         id="feGaussianBlur4185" />
    </filter>
    <filter
       id="filter3819"
       inkscape:menu-tooltip="3D warped, fibered wood texture"
       inkscape:menu="Materials"
       inkscape:label="3D wood"
       height="1.5"
       y="-0.25"
       width="1.5"
       x="-0.25"
       color-interpolation-filters="sRGB">
      <feGaussianBlur
         id="feGaussianBlur3821"
         result="result8"
         stdDeviation="4" />
      <feTurbulence
         id="feTurbulence3823"
         baseFrequency="0.025 0.2"
         numOctaves="3"
         type="fractalNoise"
         result="result7"
         seed="22" />
      <feComposite
         id="feComposite3825"
         in2="result8"
         operator="in"
         in="SourceGraphic"
         result="result6" />
      <feDisplacementMap
         id="feDisplacementMap3827"
         in2="result6"
         result="result4"
         scale="50"
         yChannelSelector="A"
         xChannelSelector="A"
         in="result7" />
      <feFlood
         id="feFlood3829"
         flood-color="rgb(230,211,138)"
         flood-opacity="1"
         in="result4"
         result="result9" />
      <feComposite
         id="feComposite3831"
         in2="result4"
         operator="atop"
         result="result2" />
      <feComposite
         id="feComposite3833"
         in2="SourceGraphic"
         operator="atop"
         in="result2"
         result="result9" />
      <feGaussianBlur
         id="feGaussianBlur3835"
         result="result0"
         in="result9"
         stdDeviation="8" />
      <feSpecularLighting
         id="feSpecularLighting3837"
         specularExponent="15"
         specularConstant="0.7"
         surfaceScale="5"
         lighting-color="rgb(255,255,255)"
         result="result1"
         in="result0">
        <feDistantLight
           id="feDistantLight3839"
           azimuth="235"
           elevation="50" />
      </feSpecularLighting>
      <feComposite
         id="feComposite3841"
         in2="result9"
         operator="in"
         result="result2"
         in="result1" />
      <feComposite
         id="feComposite3843"
         in2="result2"
         k3="0.5"
         k2="0.5"
         operator="arithmetic"
         result="result4"
         in="result9" />
      <feConvolveMatrix
         id="feConvolveMatrix3845"
         order="3 3"
         kernelMatrix="2 0 0 0 2 0 0 0 -2 "
         targetX="2"
         targetY="2"
         result="result10" />
      <feBlend
         id="feBlend3847"
         in2="result10"
         mode="multiply"
         in="result10" />
    </filter>
  </defs>
  <sodipodi:namedview
     id="base"
     pagecolor="#ffffff"
     bordercolor="#666666"
     borderopacity="1.0"
     inkscape:pageopacity="0.0"
     inkscape:pageshadow="2"
     inkscape:zoom="0.7"
     inkscape:cx="410.09432"
     inkscape:cy="431.33728"
     inkscape:document-units="px"
     inkscape:current-layer="layer1"
     showgrid="false"
     inkscape:window-width="1280"
     inkscape:window-height="738"
     inkscape:window-x="-8"
     inkscape:window-y="-8"
     inkscape:window-maximized="1" />
  <metadata
     id="metadata5463">
    <rdf:RDF>
      <cc:Work
         rdf:about="">
        <dc:format>image/svg+xml</dc:format>
        <dc:type
           rdf:resource="http://purl.org/dc/dcmitype/StillImage" />
        <dc:title></dc:title>
      </cc:Work>
    </rdf:RDF>
  </metadata>
  <g
     inkscape:label="Layer 1"
     inkscape:groupmode="layer"
     id="layer1">
    <path
       style="opacity:1;fill:url(#linearGradient6061);fill-opacity:1;stroke:none;stroke-opacity:1"
       d="m 728.6938,1014.605 c 0,51.884 -86.43855,54.8243 -154.87279,54.1545 -34.97586,-0.3423 -605.906102,30.7938 -730.10224,-22.6841 -19.54832,-8.4173 -8.52457,-70.47857 -3.25277,-80.50991 13.63705,-7.28278 212.412132,-39.80822 212.412132,-39.80822 94.376008,-33.78894 119.427918,-28.04727 154.135388,-57.2038 13.82546,-12.7418 33.55746,-24.64343 53.3349,-30.99854 21.65702,-14.27399 34.78201,-27.48685 53.28318,-50.10822 34.61119,-25.6142 10.33013,-23.69957 75.45546,-54.2309 13.39125,-6.27793 20.51437,-17.76399 33.64115,-31.86592 12.84481,-5.9953 45.57686,-57.61456 56.58916,-55.57412 7.80741,-2.76051 8.96906,-7.40864 15.80992,-7.39652 -2.42883,-26.65364 11.32179,-58.64644 21.02483,-61.96078 14.35669,-36.79359 12.80196,-60.24168 19.82679,-60.58169 3.59507,-0.20488 -5.48073,-6.44678 9.55524,-19.33963 13.61861,-11.67751 36.4422,-47.50519 56.90211,-66.3396 18.64226,-17.16118 36.35535,-41.47625 50.60435,-59.1618 6.55773,-8.13932 7.27538,-21.09444 14.37525,-25.48363 18.17813,-11.23786 34.38806,-24.51387 37.99897,-20.11677 23.56181,28.69178 32.15241,220.24413 14.00395,316.47095 -20.04427,106.27875 9.27502,364.5393 9.27502,372.7387 z"
       id="path6016"
       inkscape:connector-curvature="0"
       sodipodi:nodetypes="ssscccccccccccsssssss" />
    <path
       id="path5503"
       style="fill:#000000;fill-opacity:1;stroke:none;stroke-opacity:1"
       d="m 169.21428,885.12523 c 10.87161,-6.30887 22.19719,-12.65325 31.54986,-17.67362 4.70243,-2.52419 11.67743,-7.11972 15.5,-10.21229 6.3878,-5.16791 16.13568,-10.75294 24.20014,-13.86544 3.58331,-1.38299 3.95454,-2.1821 1.83205,-3.94362 -0.77988,-0.64724 -3.23833,-3.96484 -5.46323,-7.37244 -2.2249,-3.40761 -5.06358,-6.82552 -6.30818,-7.59535 -4.96706,-3.07232 -30.14659,-2.03246 -35.53513,1.46752 -1.22347,0.79467 -4.0946,5.3795 -6.38029,10.18852 -2.2857,4.80901 -6.56854,13.79532 -9.51743,19.96957 -3.38891,7.09556 -8.30803,15.10298 -13.3697,21.76344 -4.40445,5.79565 -8.00809,11.01182 -8.00809,11.59148 0,1.59963 3.6912,0.21373 11.5,-4.31777 z m -332.88943,83.6645 c -1.2145,-3.165 1.23714,-5.0254 10.13021,-7.6876 4.88631,-1.4626 14.93108,-3.797 22.32171,-5.1875 7.39063,-1.3904 16.81251,-3.435 20.93751,-4.5436 13.934421,-3.7448 20.724011,-4.9832 33.133301,-6.0434 6.80169,-0.581 20.0167,-2.3675 29.3667,-3.9699 9.35,-1.6024 20.825,-3.4103 25.5,-4.0176 4.675,-0.6074 12.3250004,-1.9393 17.0000004,-2.96 4.67500003,-1.0206 10.525,-2.2881 13,-2.8167 2.4749996,-0.5285 7.1999996,-1.6314 10.4999996,-2.4508 8.9802,-2.2298 17.99695,-3.8204 26.96583,-4.7569 5.99156,-0.6256 10.80269,-2.0017 18.92354,-5.4127 5.98916,-2.5156 16.78916,-6.194 24,-8.1743 7.21085,-1.9802 17.143959,-5.15131 22.073589,-7.04694 4.92963,-1.89563 11.00463,-3.8833 13.5,-4.41705 2.49537,-0.53374 6.11204,-1.60654 8.03704,-2.38399 1.925,-0.77745 4.625,-1.65253 6,-1.94462 2.00694,-0.42633 3.2173,-2.16635 6.13694,-8.82252 6.49227,-14.80097 8.83049,-28.98193 8.86937,-53.79144 0.0273,-17.44046 1.59002,-46.6509 3.04936,-57 1.94483,-13.79205 5.30021,-21.35549 12.64821,-28.51062 4.48988,-4.37202 9.92412,-7.25987 24.79368,-13.17582 16.57946,-6.59623 27.44178,-14.51573 37.55532,-27.38082 6.7948,-8.64344 10.48256,-10.92107 14.62592,-9.03323 2.47031,1.12555 2.56586,1.46381 2.08954,7.39766 -0.91793,11.4355 -12.17493,30.03831 -29.77378,49.20283 -11.6337,12.66868 -16.73371,21.57251 -17.69579,30.89411 -0.74615,7.22952 -0.28983,7.56924 10.20123,7.5946 10.82876,0.0262 25.79913,2.5725 31.40174,5.34116 6.23661,3.08197 10.49305,9.56303 12.65115,19.26324 0.96969,4.35858 1.49157,9.8572 1.2323,12.98367 -0.34896,4.20803 -0.13443,5.42322 0.95743,5.42322 5.27795,0 32.19186,-23.70258 50.00798,-44.0411 7.66006,-8.74457 12.41467,-13.28548 15.70592,-15 3.75908,-1.95823 5.29933,-3.59673 7.56452,-8.04704 4.30353,-8.45494 12.23004,-15.06887 25.8907,-21.60337 14.86307,-7.10966 31.94209,-17.29577 39.58826,-23.61085 5.86194,-4.84146 21.5,-20.91683 21.5,-22.10124 0,-1.65191 -2.56865,-0.0449 -8.45506,5.28956 -6.21842,5.63537 -6.95366,6.00106 -17.26993,8.58957 -5.92626,1.48698 -15.05001,3.51004 -20.27501,4.49567 -5.225,0.98564 -11.3,2.32512 -13.5,2.97661 -2.2,0.6515 -14.78957,1.82517 -27.97681,2.60816 -21.77096,1.29264 -24.57695,1.27464 -30.5,-0.1957 -9.55902,-2.37292 -14.31331,-5.13854 -26.1581,-15.21646 -11.05953,-9.40979 -13.56453,-12.67949 -20.41257,-26.64381 -2.15774,-4.4 -8.54227,-14.19018 -14.18784,-21.75597 -7.44817,-9.98148 -10.26468,-14.54463 -10.26468,-16.63024 0,-1.58085 1.30537,-7.09066 2.90082,-12.24403 1.59545,-5.15337 3.36668,-12.1744 3.93606,-15.60229 0.56939,-3.4279 2.68499,-9.88635 4.70134,-14.35212 3.76168,-8.33129 5.35993,-16.22797 10.00143,-49.41535 2.51418,-17.97677 0.40767,-16.2261 31.96035,-26.5617 8.8,-2.88258 18.475,-5.58865 21.5,-6.01349 3.025,-0.42483 7.3,-1.16262 9.5,-1.63952 2.2,-0.47691 18.175,-0.79146 35.5,-0.69901 34.33838,0.18323 38.34699,0.63315 59.5,6.67817 10.67935,3.0519 11.17185,3.31978 16.89524,9.18954 11.45444,11.74739 14.1646,17.56405 17.09724,36.69483 1.12952,7.36836 2.56965,11.97711 6.09329,19.5 2.5378,5.41815 6.63716,14.80118 9.10969,20.85118 4.26347,10.43225 4.46853,11.37696 3.97308,18.30353 -0.32263,4.51055 -1.30043,8.79619 -2.5569,11.20678 -1.11897,2.14679 -2.75999,6.70307 -3.64672,10.12507 -2.80376,10.82005 -7.78604,18.65115 -22.74137,35.74466 -5.82996,6.66347 -6.14344,7.9905 -1.46765,6.21277 1.76455,-0.67088 2.77281,-2.00033 3.24813,-4.28284 0.50063,-2.40402 3.46829,-6.07598 10.84263,-13.41584 5.58434,-5.55823 13.75334,-14.07213 18.15334,-18.91978 8.89159,-9.7962 14.44008,-13.80841 22.24121,-16.08298 7.56785,-2.20655 8.25838,-3.65802 8.26093,-17.36388 0.002,-10.7967 0.18671,-11.8776 2.91332,-17.05008 1.60114,-3.03742 3.90665,-8.66242 5.12335,-12.5 2.8193,-8.89233 5.22918,-12.86188 9.35716,-15.41311 4.20283,-2.5975 9.05804,-12.89696 10.63691,-22.5643 2.36264,-14.46629 4.26818,-22.02999 8.15325,-32.3628 2.19974,-5.85046 4.68063,-12.63817 5.5131,-15.08381 1.70694,-5.01465 12.58049,-18.32342 20.69272,-25.32701 3.53557,-3.05239 7.70706,-8.47661 12.60783,-16.39404 5.9289,-9.57843 9.70231,-14.21343 19.80926,-24.33234 10.04863,-10.06052 13.03474,-13.72179 15.30099,-18.76052 2.54827,-5.66578 3.52102,-6.71237 10.23964,-11.01695 4.56625,-2.92558 9.07003,-6.86699 11.70046,-10.23949 2.35213,-3.01567 6.11558,-7.56555 8.36323,-10.11085 5.3744,-6.08611 9.40554,-11.75733 14.72554,-20.71668 2.3986,-4.03946 5.14019,-7.76331 6.09249,-8.27521 0.9522,-0.5119 3.3367,-4.40688 5.2988,-8.65551 4.3232,-9.3615 8.0715,-13.45103 15.9698,-17.42381 3.3,-1.65987 9.825,-5.20205 14.5,-7.8715 9.5332,-5.4435 15.3883,-6.89716 18.4867,-4.58969 1.9507,1.45276 1.9525,1.51746 0.095,3.56989 -1.0404,1.14968 -2.7006,2.09032 -3.6892,2.09032 -0.9886,0 -5.3064,1.88424 -9.595,4.18719 -4.2886,2.30296 -10.7225,5.63187 -14.2975,7.39759 -3.575,1.76571 -7.8854,4.71898 -9.5787,6.5628 -2.7917,3.03985 -8.4213,14.14273 -8.4213,16.60878 0,0.55344 -1.5755,2.20793 -3.501,3.67664 -1.9256,1.46871 -4.2304,4.10963 -5.1218,5.86869 -2.5311,4.99504 -11.36971,17.38698 -16.87719,23.66227 -2.75,3.13337 -6.66571,7.74545 -8.70157,10.24906 -2.03586,2.50361 -6.98083,6.74238 -10.98882,9.4195 -6.36989,4.25473 -7.51698,5.49691 -9.11216,9.86748 -1.45356,3.98255 -4.5256,7.74711 -15.09676,18.5 -10.61538,10.79786 -14.70582,15.81627 -20.436,25.07218 -5.11966,8.26974 -8.95676,13.15579 -13.44574,17.12139 -11.90462,10.51664 -16.74556,17.68939 -22.51234,33.35616 -5.02563,13.65327 -6.40294,18.87978 -9.56754,36.30595 -2.06566,11.37474 -7.38998,22.47479 -12.11868,25.26479 -4.21993,2.48982 -4.83989,3.53092 -8.13467,13.66059 -1.38087,4.24542 -3.60755,9.59907 -4.94819,11.89701 -2.2044,3.77846 -2.43753,5.29114 -2.43753,15.81574 0,15.97376 -1.91333,19.20444 -13.3995,22.62517 -7.71625,2.29799 -4.53779,-0.51138 -35.8505,31.68754 -5.9125,6.07984 -10.75,11.73941 -10.75,12.57681 0,3.85606 -2.45318,6.6951 -7.24594,8.38562 -3.73496,1.31742 -6.9801,3.82838 -13.58085,10.50836 -4.77027,4.82751 -8.80527,9.1612 -8.96668,9.63042 -0.16141,0.46921 -3.76141,3.77514 -8,7.34652 -8.62545,7.26768 -29.42493,20.09068 -40.45711,24.94205 -14.6453,6.44022 -21.79023,12.27897 -26.29626,21.48897 -2.15379,4.40219 -3.65336,5.97498 -8.07725,8.47167 -3.97134,2.24129 -8.83774,6.93579 -18.09358,17.45447 -6.96362,7.91372 -13.00212,14.38859 -13.41889,14.38859 -0.41676,0 -5.32097,4.3875 -10.89824,9.75 -5.57728,5.3625 -12.23856,11.14872 -14.80285,12.85826 -6.86624,4.57754 -19.79363,11.31585 -26.78608,13.96205 -9.39787,3.5565 -17.24439,8.11503 -24.28539,14.10887 -3.52502,3.00077 -9.60002,7.05536 -13.5,9.01021 -7.15779,3.5878 -13.65163,7.23716 -30.09088,16.91023 -4.95,2.91265 -10.35,5.6045 -12,5.9819 -1.65,0.3774 -5.65662,1.78575 -8.90359,3.12966 -3.24698,1.34391 -8.87198,2.83064 -12.5,3.30384 -8.4005,1.09566 -18.07362,3.74523 -30.09641,8.24374 -5.225,1.955 -14.899999,5.0139 -21.499999,6.7976 -6.6,1.7836 -17.20915,5.4125 -23.57589,8.0641 -7.36155,3.0659 -13.73263,5.031 -17.5,5.3975 -9.3538,0.9101 -23.09549,3.3522 -33.42411,5.9399 -13.4452996,3.3685 -28.09568,6.277 -38,7.5441 -4.675,0.5981 -16.15,2.3964 -25.5,3.9962 -9.35,1.5998 -20.375,3.1827 -24.5,3.5176 -13.45984,1.0925 -22.28448,2.5809 -35.500001,5.9874 -7.15,1.843 -18.175,4.2924 -24.5,5.4431 -6.325,1.1507 -15.1,3.2085 -19.5,4.5728 -9.35821,2.9018 -11.0742,3.0329 -11.88943,0.9085 z" />
    <path
       style="fill:url(#linearGradient6033);fill-opacity:1;stroke:none;stroke-opacity:1"
       d="m 164.59057,867.36584 c 3.12094,-4.67702 8.76732,-15.25367 12.5475,-23.50367 7.87063,-17.1771 10.56269,-21.78981 14.05081,-24.07531 2.95324,-1.93504 18.39342,-4.40994 27.5254,-4.41204 12.00578,-0.003 17.62064,3.04597 24.04341,13.05501 1.76905,2.75681 3.72048,4.83694 4.33652,4.6225 0.70686,-0.24605 1.07845,-3.16067 1.00724,-7.90053 -0.13162,-8.76117 -3.49758,-17.50542 -7.83155,-20.34515 -4.08323,-2.67543 -12.64611,-4.34019 -29.91181,-5.81535 -11.24598,-0.96085 -16.11162,-1.75807 -16.73469,-2.74193 -1.55133,-2.44964 -0.96899,-13.48304 1.05728,-20.03186 2.59972,-8.40221 6.79998,-14.83717 16.781,-25.70914 10.7988,-11.76274 19.8603,-23.89875 24.58191,-32.92238 5.25268,-10.03858 4.48858,-12.14153 -1.68254,-4.63067 -9.32276,11.3467 -23.63281,21.73733 -34.64677,25.15728 -3.025,0.93929 -9.33316,3.57096 -14.01813,5.84814 -22.0325,10.70916 -23.91239,16.78448 -25.96166,83.90143 -0.75163,24.61703 -1.3632,32.95607 -2.97023,40.5 -1.11304,5.225 -2.02962,9.90724 -2.03684,10.40499 -0.0276,1.90031 4.4102,-3.22956 9.86315,-11.40132 z"
       id="path5501" />
    <path
       style="fill:url(#linearGradient6025);fill-opacity:1;stroke:none;stroke-opacity:1"
       d="m 333.71428,717.80244 c 9.0558,-0.3723 17.40089,-1.31805 22.22619,-2.51889 4.2494,-1.05753 10.5494,-2.36029 14,-2.89503 3.45059,-0.53474 9.42381,-1.8346 13.27381,-2.88857 3.85,-1.05397 8.72917,-2.21935 10.84261,-2.58973 2.7188,-0.47647 5.69019,-2.33673 10.16002,-6.36074 3.47457,-3.12802 8.64471,-7.26231 11.48919,-9.18731 4.48444,-3.03484 13.21456,-12.69479 24.74365,-27.37908 3.23825,-4.12447 7.25592,-13.18702 7.2743,-16.40843 0.005,-0.94187 1.14531,-4.15192 2.5332,-7.13345 1.38789,-2.98152 2.78747,-7.9471 3.11018,-11.03461 0.52917,-5.06286 0.1235,-6.7849 -4.13447,-17.55065 -2.59666,-6.56535 -6.6609,-15.79915 -9.03163,-20.51957 -3.59854,-7.16511 -4.58745,-10.46472 -5.9877,-19.97866 -2.25,-15.28743 -4.29167,-20.27495 -11.99578,-29.30413 -6.35702,-7.45038 -6.56223,-7.58848 -15.22373,-10.24467 -19.84409,-6.08552 -24.13683,-6.58055 -58.7149,-6.77093 -23.46333,-0.12918 -32.48286,0.14528 -34,1.03459 -6.11232,3.58286 -6.56811,3.69022 -10.15699,2.39246 -3.20767,-1.1599 -4.45035,-0.93409 -15.2006,2.76215 -6.43904,2.21393 -15.53235,5.21617 -20.20735,6.67165 -4.675,1.45548 -9.00634,3.06364 -9.62521,3.5737 -1.21669,1.00278 -1.51218,2.52172 -4.45294,22.88963 -3.90901,27.0741 -5.05226,32.28384 -9.01729,41.09115 -2.12724,4.72513 -4.28461,11.47513 -4.79416,15 -0.50955,3.52487 -2.09284,9.95379 -3.51843,14.28649 -1.42558,4.33271 -2.59197,8.40385 -2.59197,9.04698 0,0.64314 4.1625,6.77417 9.25,13.62452 5.0875,6.85035 12.175,18.03377 15.75,24.85204 3.575,6.81828 7.625,13.4193 9,14.66894 6.36697,5.78648 15.83493,13.70963 19.11039,15.9923 5.96997,4.16047 15.24784,6.46524 23.88961,5.93456 4.125,-0.25332 14.025,-0.72884 22,-1.05671 z"
       id="path5499" />
    <path
       style="fill:#000000;fill-opacity:1;stroke:none;stroke-opacity:1"
       d="m 133.06054,753.36799 c -4.92997,-3.252 -6.77833,-8.12903 -6.93258,-18.29218 -0.11103,-7.31504 -0.4729,-9.15704 -2.16101,-11 -1.11521,-1.2175 -3.54995,-4.61327 -5.41055,-7.54615 l -3.38289,-5.33252 c -3.53415,-5.64181 -7.83703,-27.66897 -5.70803,-40.33497 1.63189,-4.34167 8.54585,-16.56547 20.92471,-24.47848 l 6.50431,-2.9492 c 13.77685,-6.24672 33.72147,-9.49487 43.66064,-7.1105 5.12065,1.22843 10.15914,5.45664 10.15914,8.52537 0,0.73356 1.87665,4.63653 4.17033,8.67328 2.29368,4.03674 6.41637,12.03152 9.16152,17.76619 8.31021,17.3601 7.72997,27.33774 -2.47732,42.5989 -5.89234,8.80978 -15.27321,17.58112 -22.41755,20.96093 -2.85184,1.34914 -8.36248,2.9777 -12.24587,3.61902 -7.00914,1.15754 -7.078,1.19968 -9.43055,5.77112 -4.82708,9.37993 -17.08534,13.96364 -24.4143,9.12919 z"
       id="path5497"
       inkscape:connector-curvature="0"
       sodipodi:nodetypes="sssscccssssssssss" />
    <path
       style="fill:url(#linearGradient6043);fill-opacity:1;stroke:none;stroke-opacity:1"
       d="m 144.01202,749.01113 c 9.08361,-3.79538 12.50623,-14.04429 7.54354,-22.58883 -4.53473,-7.8077 -15.16171,-19.07304 -16.61825,-17.6165 -1.39804,1.39804 -4.07985,26.99941 -3.27792,31.29196 1.0067,5.38862 4.29076,9.17957 8.83701,10.20102 0.15516,0.0349 1.73719,-0.54458 3.51562,-1.28765 z"
       id="path5495" />
    <path
       id="path5491"
       style="fill:url(#linearGradient3808);fill-opacity:1;stroke:none;stroke-opacity:1"
       d="m 145.62815,709.58447 c 5.54859,6.23506 10.34822,12.76493 12.20223,16.60105 l 3.05608,6.32336 4.16391,-0.69279 c 2.29015,-0.38103 6.54941,-1.57998 9.46502,-2.66432 5.03894,-1.87404 17.38563,-11.8999 16.17572,-13.13515 -0.28774,-0.29377 -2.49296,0.7888 -4.90048,2.40571 -7.40935,4.97618 -14.76948,2.99502 -16.64574,-4.48061 -2.20767,-8.79607 4.64755,-17.01215 16.99481,-20.3685 4.24092,-1.15281 8.33439,-1.85672 9.09659,-1.56423 0.7622,0.29248 2.34773,2.1621 3.52339,4.1547 1.90959,3.23651 2.24538,3.43027 3.14839,1.81669 1.65905,-2.96456 1.03128,-11.97268 -1.23568,-17.73133 -1.16634,-2.96278 -5.00905,-10.93883 -8.53936,-17.72454 -3.53031,-6.78572 -6.41875,-12.89478 -6.41875,-13.57569 0,-0.68091 -1.16358,-2.32896 -2.58574,-3.66234 -2.381,-2.23235 -3.35095,-2.41892 -12.25,-2.35622 -20.90284,0.14727 -41.56398,9.26151 -50.05515,22.08089 -2.20853,3.33428 -3.15483,5.21956 -2.92116,6.44961 -2.56198,24.10972 1.42295,27.38839 3.76608,35.89097 l 2.07669,4.07065 c 1.14218,2.23886 2.61064,3.89267 3.26324,3.67514 0.84605,-5.04 3.2666,-12.95394 4.13327,-18.06336 5.35393,4.9873 10.55207,8.18118 14.48664,12.55031 z"
       inkscape:connector-curvature="0"
       sodipodi:nodetypes="cscsssssscssssssssccsccc" />
    <path
       style="fill:#d40000;fill-opacity:1;stroke:none;stroke-opacity:1"
       d="m 186.79428,708.44217 c 8.25748,-8.25748 7.85582,-10.63909 -1.33015,-7.88691 -5.16355,1.54704 -9.74985,6.11797 -9.74985,9.71717 0,6.11459 3.75551,5.49423 11.08,-1.83026 z"
       id="path5489" />
    <path
       sodipodi:type="arc"
       style="fill:#ffffa1;fill-opacity:1;stroke:none;filter:url(#filter4183)"
       id="path4137"
       sodipodi:cx="90.714287"
       sodipodi:cy="395.93362"
       sodipodi:rx="109.28571"
       sodipodi:ry="93.571426"
       d="m 200,395.93362 a 109.28571,93.571426 0 1 1 -218.571426,0 109.28571,93.571426 0 1 1 218.571426,0 z"
       transform="matrix(1.8400311,0,0,1.8400311,-137.46168,-238.59528)" />
  </g>
</svg>
