<?xml version="1.0" encoding="UTF-8" standalone="no"?>
<!-- Created with Inkscape (http://www.inkscape.org/) -->

<svg
   xmlns:dc="http://purl.org/dc/elements/1.1/"
   xmlns:cc="http://creativecommons.org/ns#"
   xmlns:rdf="http://www.w3.org/1999/02/22-rdf-syntax-ns#"
   xmlns:svg="http://www.w3.org/2000/svg"
   xmlns="http://www.w3.org/2000/svg"
   xmlns:xlink="http://www.w3.org/1999/xlink"
   xmlns:sodipodi="http://sodipodi.sourceforge.net/DTD/sodipodi-0.dtd"
   xmlns:inkscape="http://www.inkscape.org/namespaces/inkscape"
   width="744.09448819"
   height="1052.3622047"
   id="svg2"
   version="1.1"
   inkscape:version="0.48.4 r9939"
   sodipodi:docname="runninganerrand.svg"
   inkscape:export-filename="C:\Users\garysoed\Google Drive\Happy My Life\Artwork\exports\runninganerrand2.png"
   inkscape:export-xdpi="149.99614"
   inkscape:export-ydpi="149.99614">
  <defs
     id="defs4">
    <linearGradient
       id="linearGradient3927">
      <stop
         style="stop-color:#2323ff;stop-opacity:1;"
         offset="0"
         id="stop3929" />
      <stop
         style="stop-color:#0000e2;stop-opacity:1;"
         offset="1"
         id="stop3931" />
    </linearGradient>
    <linearGradient
       id="linearGradient3855">
      <stop
         style="stop-color:#000080;stop-opacity:1;"
         offset="0"
         id="stop3857" />
      <stop
         style="stop-color:#000060;stop-opacity:1;"
         offset="1"
         id="stop3859" />
    </linearGradient>
    <linearGradient
       id="linearGradient3845">
      <stop
         style="stop-color:#8d5fd3;stop-opacity:1;"
         offset="0"
         id="stop3847" />
      <stop
         style="stop-color:#6f37c6;stop-opacity:1;"
         offset="1"
         id="stop3849" />
    </linearGradient>
    <linearGradient
       id="linearGradient3837">
      <stop
         style="stop-color:#ffe6d5;stop-opacity:1;"
         offset="0"
         id="stop3839" />
      <stop
         style="stop-color:#ffcba8;stop-opacity:1;"
         offset="1"
         id="stop3841" />
    </linearGradient>
    <linearGradient
       id="linearGradient3829">
      <stop
         style="stop-color:#ffcc00;stop-opacity:1;"
         offset="0"
         id="stop3831" />
      <stop
         style="stop-color:#bc9700;stop-opacity:1;"
         offset="1"
         id="stop3833" />
    </linearGradient>
    <linearGradient
       id="linearGradient3821">
      <stop
         style="stop-color:#000000;stop-opacity:1;"
         offset="0"
         id="stop3823" />
      <stop
         style="stop-color:#000000;stop-opacity:0;"
         offset="1"
         id="stop3825" />
    </linearGradient>
    <linearGradient
       inkscape:collect="always"
       xlink:href="#linearGradient3829"
       id="linearGradient3835"
       x1="322.75659"
       y1="487.3869"
       x2="365.80264"
       y2="543.1012"
       gradientUnits="userSpaceOnUse" />
    <linearGradient
       inkscape:collect="always"
       xlink:href="#linearGradient3837"
       id="linearGradient3843"
       x1="371.38708"
       y1="551.02295"
       x2="385.09494"
       y2="636.73724"
       gradientUnits="userSpaceOnUse" />
    <linearGradient
       inkscape:collect="always"
       xlink:href="#linearGradient3845"
       id="linearGradient3851"
       x1="294.99176"
       y1="659.58014"
       x2="304.93771"
       y2="694.93555"
       gradientUnits="userSpaceOnUse" />
    <linearGradient
       inkscape:collect="always"
       xlink:href="#linearGradient3845"
       id="linearGradient3853"
       x1="345.63458"
       y1="669.80811"
       x2="351.82605"
       y2="732.43762"
       gradientUnits="userSpaceOnUse" />
    <linearGradient
       inkscape:collect="always"
       xlink:href="#linearGradient3855"
       id="linearGradient3861"
       x1="341.42139"
       y1="741.25598"
       x2="340.11264"
       y2="799.84485"
       gradientUnits="userSpaceOnUse" />
    <linearGradient
       inkscape:collect="always"
       xlink:href="#linearGradient3873"
       id="linearGradient3856"
       x1="-93.944191"
       y1="585.19501"
       x2="-87.855881"
       y2="716.51483"
       gradientUnits="userSpaceOnUse"
       gradientTransform="matrix(-0.30908644,0.29479851,-0.29479851,-0.30908644,408.01116,654.04343)" />
    <linearGradient
       id="linearGradient3850">
      <stop
         style="stop-color:#0062ff;stop-opacity:1;"
         offset="0"
         id="stop3852" />
      <stop
         style="stop-color:#004cca;stop-opacity:1;"
         offset="1"
         id="stop3854" />
    </linearGradient>
    <linearGradient
       inkscape:collect="always"
       xlink:href="#linearGradient3873"
       id="linearGradient4126"
       gradientUnits="userSpaceOnUse"
       gradientTransform="matrix(0.10896097,0.4129989,-0.4129989,0.10896097,445.93553,553.19621)"
       x1="-93.944191"
       y1="585.19501"
       x2="-87.855881"
       y2="716.51483" />
    <linearGradient
       inkscape:collect="always"
       xlink:href="#linearGradient3873"
       id="linearGradient4132"
       gradientUnits="userSpaceOnUse"
       gradientTransform="matrix(-0.09887399,0.4155292,-0.4155292,-0.09887399,418.0854,591.41173)"
       x1="-93.944191"
       y1="585.19501"
       x2="-87.855881"
       y2="716.51483" />
    <linearGradient
       inkscape:collect="always"
       xlink:href="#linearGradient3873"
       id="linearGradient4173"
       gradientUnits="userSpaceOnUse"
       gradientTransform="matrix(-0.26031189,-0.22775276,-0.22775276,0.26031189,368.36686,376.17339)"
       x1="-93.944191"
       y1="585.19501"
       x2="-87.855881"
       y2="716.51483" />
    <linearGradient
       id="linearGradient3873">
      <stop
         style="stop-color:#afdde9;stop-opacity:1;"
         offset="0"
         id="stop3875" />
      <stop
         style="stop-color:#84cbdd;stop-opacity:1;"
         offset="1"
         id="stop3877" />
    </linearGradient>
    <linearGradient
       y2="716.51483"
       x2="-87.855881"
       y1="585.19501"
       x1="-93.944191"
       gradientTransform="matrix(-0.26031189,-0.22775276,-0.22775276,0.26031189,816.22038,168.63741)"
       gradientUnits="userSpaceOnUse"
       id="linearGradient3116"
       xlink:href="#linearGradient3873"
       inkscape:collect="always" />
  </defs>
  <sodipodi:namedview
     id="base"
     pagecolor="#ffffff"
     bordercolor="#666666"
     borderopacity="1.0"
     inkscape:pageopacity="0.0"
     inkscape:pageshadow="2"
     inkscape:zoom="0.7"
     inkscape:cx="474.38611"
     inkscape:cy="539.26885"
     inkscape:document-units="px"
     inkscape:current-layer="layer1"
     showgrid="false"
     inkscape:window-width="1280"
     inkscape:window-height="738"
     inkscape:window-x="-8"
     inkscape:window-y="-8"
     inkscape:window-maximized="1" />
  <metadata
     id="metadata7">
    <rdf:RDF>
      <cc:Work
         rdf:about="">
        <dc:format>image/svg+xml</dc:format>
        <dc:type
           rdf:resource="http://purl.org/dc/dcmitype/StillImage" />
        <dc:title></dc:title>
      </cc:Work>
    </rdf:RDF>
  </metadata>
  <g
     inkscape:label="Layer 1"
     inkscape:groupmode="layer"
     id="layer1">
    <path
       id="path3017"
       style="fill:#000000;fill-opacity:1;stroke:none;stroke-opacity:1"
       d="m 446.43005,706.78642 c 1.596,-4.02562 2.6789,-7.68 2.4065,-8.12084 -0.8973,-1.45184 -6.5025,-2.03271 -8.9322,-0.92565 -2.809,1.27985 -4.6048,4.77354 -4.6048,8.95832 0,3.42216 4.1295,8.22894 6.6377,7.72631 0.921,-0.18456 2.8129,-3.401 4.4928,-7.63814 z m 17.1023,42.35436 c -17.298,-6.28127 -22.4357,-10.54077 -23.2269,-19.25637 -0.3822,-4.20976 -0.9951,-5.84188 -2.5059,-6.67319 -8.619,-4.74243 -11.5,-9.10551 -11.5,-17.41608 0,-10.82056 8.3007,-18.97961 18,-17.69278 2.475,0.32837 6.525,1.23761 9,2.02054 2.475,0.78293 7.65,2.3985 11.5,3.59017 3.85,1.19166 11.6166,4.36302 17.2592,7.04747 9.0896,4.32436 10.5981,5.42031 13.231,9.613 3.8421,6.11804 3.7653,9.21221 -0.4469,18.00146 -6.7251,14.03295 -15.1529,24.28918 -19.87,24.18081 -1.1953,-0.0275 -6.3435,-1.56422 -11.4405,-3.41503 z" />
    <path
       id="path3041"
       style="fill:#000000;fill-opacity:1;stroke:none;stroke-opacity:1"
       d="m 209.66505,781.28574 c 0.3202,-1.276 1.2937,-8.1385 2.1633,-15.25 0.8696,-7.1115 2.74,-21.705 4.1566,-32.43 1.4165,-10.725 2.6293,-21.05194 2.695,-22.94875 l 0.1196,-3.44874 -12.5,-4.27741 c -6.875,-2.35258 -19.925,-7.84986 -29,-12.21619 -23.1151,-11.12155 -26.4764,-12.04328 -27.5996,-7.56832 -0.3507,1.39733 -0.076,4.54733 0.611,7 1.3886,4.95994 2.1223,5.21835 9.3372,3.28865 4.0059,-1.0714 4.9485,-0.928 11.1084,1.68998 4.155,1.7659 7.621,4.03183 9.0565,5.92075 2.6058,3.42886 22.676,47.97735 24.3798,54.11425 1.7668,6.36367 1.3498,10.80845 -1.3933,14.85064 -1.375,2.02618 -2.5,3.95513 -2.5,4.28656 0,1.02317 7.0837,9.30858 7.9585,9.30858 0.4536,0 1.0867,-1.044 1.407,-2.32 z m -101.7336,43.56474 c -1.751,-1.06521 -4.0879,-4.26835 -6,-8.22427 l -3.131898,-6.47952 -10.3591,-1.78962 c -12.091,-2.08881 -19.4508,-4.97091 -22.0548,-8.63662 -1.0215,-1.43809 -3.0826,-5.53971 -4.5802,-9.11471 -1.4976,-3.575 -5.1989,-11.9 -8.2252,-18.5 -9.5454,-20.81742 -14.5247,-34.48075 -14.6588,-40.22374 -0.2005,-8.59113 1.2308,-9.44166 24.9014,-14.79735 23.6013,-5.33999 77.285298,-18.9542 78.149798,-19.81871 0.3316,-0.33157 0.033,-2.63748 -0.6631,-5.12426 -0.6962,-2.48678 -1.0411,-6.86045 -0.7664,-9.71929 0.4063,-4.22817 1.086,-5.72198 3.6437,-8.00726 5.8978,-5.26966 13.8332,-3.59117 37.0597,7.83877 13.8764,6.82871 35.1129,15.35184 38.2511,15.35184 1.2166,0 2.6821,-1.98291 4.6191,-6.25 5.2256,-11.51187 13.9283,-16.02842 23.6963,-12.29799 10.4554,3.99297 13.2441,14.98101 6.3539,25.0365 -5.0624,7.38815 -14.0181,10.03353 -14.6767,4.33527 -0.2359,-2.04095 0.44,-3.22782 2.8475,-5 5.5696,-4.09996 7.8814,-11.98579 4.3683,-14.90134 -2.57,-2.13297 -8.0362,-1.619 -10.845,1.01973 -4.9668,4.6661 -8.1919,20.53881 -13.5234,66.55783 -2.6625,22.98091 -3.7568,29.02818 -6.075,33.57229 -1.979,3.87927 -3.5837,4.92771 -7.542,4.92771 -2.7018,0 -9.5412,-5.7019 -12.1629,-10.14 -0.9292,-1.573 -2.3091,-2.86 -3.0664,-2.86 -0.7574,0 -7.2978,6.02136 -14.5344,13.3808 -19.2367,19.56335 -28.7695,25.15872 -50.3576,29.55811 -12.3331,2.51332 -16.9274,2.5813 -20.6679,0.30583 z" />
    <path
       style="fill:#999999;fill-opacity:1;stroke:none;stroke-opacity:1"
       d="m 138.54955,772.40458 c 6.4625,-4.31108 11.75,-8.32248 11.75,-8.91421 0,-2.0957 -4.0116,-6.67073 -6.3678,-7.26208 -1.3144,-0.3299 -4.3973,0.004 -6.8508,0.74271 -5.2354,1.57562 -16.7814,9.13735 -16.7814,10.9905 0,1.39688 2.924,11.67075 3.6744,12.91055 0.5605,0.92614 0.047,1.22456 14.5756,-8.46747 z"
       id="path3039" />
    <path
       id="path3035"
       style="fill:#999999;fill-opacity:1;stroke:none;stroke-opacity:1"
       d="m 75.799552,767.13844 8,-1.16311 -0.3082,-3.14177 c -0.4332,-4.4161 1.126,-6.7549 6.5766,-9.8645 2.6024,-1.48469 14.631598,-8.62627 26.731598,-15.87019 12.1,-7.24391 24.6218,-14.64595 27.8263,-16.44898 3.2044,-1.80303 6.0572,-3.88011 6.3395,-4.61572 0.7313,-1.90564 -3.7295,-9.42843 -5.5907,-9.42843 -0.8561,0 -17.3108,4.01409 -36.5659,8.92019 -19.255098,4.90611 -39.734198,9.88063 -45.509198,11.0545 -14.9407,3.03692 -15.3654,3.2648 -14.7423,7.90977 0.5207,3.88246 10.5738,28.68332 13.3351,32.89759 1.1477,1.75153 2.0543,2.14603 3.7128,1.61559 1.2069,-0.386 5.7944,-1.22522 10.1944,-1.86494 z m 19.0637,30.66795 c -0.3141,-0.98964 -2.0769,-6.27714 -3.9172,-11.75 l -3.3461,-9.95065 -6.4002,0.0385 c -8.3828,0.0505 -13.9002,1.20698 -13.9002,2.9136 0,2.23565 5.564,13.9415 7.3187,15.39766 2.3804,1.97527 12.5833,5.03426 16.9987,5.09646 3.232,0.0455 3.7298,-0.22213 3.2463,-1.74557 z" />
    <path
       id="path3033"
       style="fill:#999999;fill-opacity:1;stroke:none;stroke-opacity:1"
       d="m 168.39705,751.25704 c 4.6214,-3.49178 10.5385,-8.32928 13.1492,-10.75 l 4.7468,-4.4013 -5.9353,-13.32347 c -7.822,-17.55885 -7.6803,-17.41467 -11.1487,-11.34172 -3.8746,6.78408 -9.6916,11.52392 -24.0651,19.60864 -6.7894,3.8189 -16.2819,9.37679 -21.0944,12.35086 -9.2134,5.69377 -10.3941,7.57509 -7.3588,11.72598 1.3502,1.84654 1.5047,1.82411 5.25,-0.76216 7.0252,-4.85124 13.4369,-7.17263 19.8588,-7.18996 6.8951,-0.0186 10.2939,1.74426 13.5639,7.0353 1.1546,1.86809 2.6689,3.39653 3.3651,3.39653 0.6963,0 5.0471,-2.85691 9.6685,-6.3487 z m -63.8245,22.98771 c 3.1752,-1.29345 6.0223,-2.60098 6.3269,-2.90562 0.5934,-0.59342 -2.3131,-12.04946 -3.8117,-15.02417 -0.8351,-1.65759 -1.3256,-1.55347 -6.5952,1.40004 -3.131198,1.75495 -6.119398,3.57222 -6.640598,4.03838 -1.0032,0.89729 2.9973,14.85614 4.2553,14.84773 0.3807,-0.003 3.290098,-1.06291 6.465298,-2.35636 z m 40.9743,35.60148 c 9.7992,-4.62407 17.2032,-10.87095 34.7002,-29.27712 16.0036,-16.83522 16.2403,-17.14894 15.582,-20.65753 -0.7415,-3.95294 -5.087,-14.30584 -6.0046,-14.30584 -0.3218,0 -3.5671,2.52969 -7.2117,5.62153 -9.224,7.82493 -27.5638,21.3144 -42.5778,31.31722 -6.9665,4.64131 -12.9085,9.06994 -13.2046,9.8414 -0.4817,1.25537 0.1797,4.48616 3.6012,17.59194 0.993,3.80393 1.0799,3.86282 4.9367,3.34552 2.1592,-0.28962 6.7396,-1.85432 10.1786,-3.47712 z m -24.0655,5.97768 c 0.9234,-0.92341 -6.4951,-32.9315 -7.9757,-34.41209 -0.5261,-0.52608 -3.2243,-0.0229 -6.5504,1.22153 -4.0957,1.53242 -5.6557,2.63042 -5.6557,3.9808 0,2.4458 8.544,25.64674 10.6006,28.78546 1.3508,2.06161 2.1439,2.347 5.1614,1.85732 1.961,-0.31822 3.9499,-0.96307 4.4198,-1.43302 z" />
    <path
       style="fill:#000000;fill-opacity:1;stroke:none;stroke-opacity:1"
       d="m 161.31055,706.58507 c 1.2325,-2.30289 0.5578,-3.97933 -1.6014,-3.97933 -1.7571,0 -2.8518,2.40534 -2.048,4.5 0.8032,2.09312 2.3702,1.86955 3.6494,-0.52067 z"
       id="path3031" />
    <path
       style="fill:#000000;fill-opacity:1;stroke:none;stroke-opacity:1"
       d="m 383.79445,816.4231 -2.7747,-2.18263 0.8772,-14.06737 c 1.4377,-23.05698 1.2346,-27.05285 -1.5248,-29.99002 -3.1605,-3.36421 -6.0995,-4.21796 -22.5774,-6.55831 -22.6735,-3.22032 -20.0794,-4.00349 -33.4795,10.10765 -16.436,17.308 -27.7711,24.83818 -47.1444,31.31909 -10.0743,3.37015 -27.4869,6.80164 -40.1221,7.90685 -6.9276,0.60598 -8.7492,-0.71552 -8.7492,-6.34732 0,-7.64373 6.6057,-12.53598 25,-18.51512 25.7941,-8.38451 38.3676,-16.83858 42.8462,-28.80868 1.1846,-3.16609 2.1538,-6.86285 2.1538,-8.21503 0,-1.35218 0.8689,-5.0478 1.9308,-8.21249 2.8086,-8.36957 10.3308,-39.32566 9.7075,-39.94895 -0.2918,-0.29188 -4.2674,1.05862 -8.8345,3.00111 -11.5605,4.91692 -18.2051,6.69386 -25.0308,6.69386 -4.8926,0 -6.2705,-0.40659 -8.3185,-2.45455 -2.8112,-2.81127 -3.0284,-4.53503 -1.0526,-8.35587 1.7064,-3.29979 5.3084,-5.36718 22.0637,-12.66377 13.4931,-5.87597 27.3736,-13.58258 30.6655,-17.02581 1.0516,-1.1 3.1399,-3.48378 4.6405,-5.29728 2.3418,-2.83008 3.6494,-3.42943 9.2284,-4.2299 13.1225,-1.8828 14.8844,-1.54616 29.0449,5.5497 17.3218,8.67995 25.5125,11.83932 37.333,14.40034 11.0725,2.39895 12.856,3.14538 15.0708,6.30738 2.2249,3.17645 1.9197,6.1785 -0.9782,9.62247 -6.0352,7.17245 -21.5663,7.93881 -43.9144,2.16692 -6.5692,-1.69663 -12.4663,-2.88432 -13.1048,-2.63932 -0.874,0.3354 -0.8276,2.99965 0.1881,10.78258 1.8118,13.88375 2.9777,17.74348 5.6643,18.75159 1.2079,0.45329 9.6213,2.04039 18.6963,3.52689 9.075,1.48649 18.3798,3.53053 20.6773,4.5423 8.2496,3.63289 12.0009,13.29935 11.0085,28.36746 -1.5221,23.11289 -16.238,54.64887 -25.5013,54.64887 -0.5031,0 -2.1634,-0.98219 -3.6896,-2.18264 z"
       id="path3029" />
    <path
       style="fill:url(#linearGradient3861);fill-opacity:1;stroke:none;stroke-opacity:1"
       d="m 258.77395,800.43751 c 12.0839,-2.37587 24.5624,-6.94428 35.142,-12.86563 6.2513,-3.49883 10.7994,-7.36039 21.9661,-18.65037 7.7454,-7.83087 15.3122,-14.70546 16.8151,-15.27686 3.9195,-1.49017 9.4515,-1.29727 25.9249,0.90403 19.6499,2.62576 22.339,3.45542 27.3091,8.42548 5.7863,5.78634 6.7023,9.87236 5.8139,25.93532 -0.8224,14.87067 -0.2075,15.48033 4.415,4.37676 5.354,-12.86089 7.5375,-22.26157 7.5909,-32.6805 0.055,-10.73643 -1.6189,-15.35279 -6.1981,-17.09378 -1.4579,-0.55432 -10.0522,-2.18538 -19.0984,-3.62458 -12.9982,-2.06796 -17.2033,-2.39843 -20.0512,-1.57582 -16.6895,4.82063 -23.3832,6.28946 -28.6722,6.29166 -6.3034,0.003 -15.3458,2.16063 -19.1021,4.5588 -1.3301,0.84917 -2.8164,3.60711 -3.8382,7.12205 -5.702,19.61398 -17.1048,28.90752 -48.9461,39.89201 -8.2252,2.8375 -15.1239,5.66595 -15.3304,6.28545 -0.4091,1.2273 -0.049,1.18243 16.2597,-2.02402 z"
       id="path3027" />
    <path
       style="fill:url(#linearGradient3853);fill-opacity:1;stroke:none;stroke-opacity:1"
       d="m 318.79955,736.47571 c 1.65,-0.50696 7.9745,-1.30304 14.0545,-1.76908 7.008,-0.53717 12.2677,-1.47473 14.3689,-2.56126 3.7931,-1.96152 3.7471,0.3204 0.5109,-25.35324 -1.7194,-13.64044 -1.9367,-14.40795 -4.6213,-16.31954 -3.8937,-2.77255 -5.1511,-5.36669 -3.813,-7.86685 1.4689,-2.74472 4.1121,-2.51039 10.2651,0.91004 13.6144,7.56818 47.1421,14.64767 52.7059,11.12902 0.8091,-0.51167 1.2591,-1.12468 1,-1.36224 -0.2591,-0.23756 -5.196,-1.59889 -10.971,-3.02518 -8.0864,-1.99716 -14.5752,-4.62781 -28.2285,-11.44427 l -17.7284,-8.85101 -7.2716,0.86479 c -3.9993,0.47563 -7.7802,1.40795 -8.402,2.07182 -2.724,2.90862 -18.3695,56.58601 -18.3695,63.02325 0,2.36401 0.3223,2.76677 1.75,2.18662 0.9625,-0.39113 3.1,-1.12592 4.75,-1.63287 z"
       id="path3025" />
    <path
       style="fill:url(#linearGradient3851);fill-opacity:1;stroke:none;stroke-opacity:1"
       d="m 293.30505,699.1038 c 2.3413,-0.82607 7.0104,-2.7916 10.3757,-4.36784 3.3653,-1.57625 7.3916,-3.38183 8.9473,-4.01241 1.5557,-0.63058 2.6245,-1.70255 2.375,-2.38216 -0.6033,-1.64365 -0.3795,-1.73046 -14.7035,5.70361 -12.991,6.74224 -14.1579,7.58618 -6.9945,5.0588 z"
       id="path3023" />
    <path
       style="fill:#999999;fill-opacity:1;stroke:none;stroke-opacity:1"
       d="m 478.38815,738.35574 c 3.6039,-4.93903 9.9114,-17.07294 9.9114,-19.06685 0,-0.75759 -3.9,-3.08652 -8.75,-5.22522 -4.8125,-2.12214 -11.5939,-5.40189 -15.0699,-7.28834 -4.1256,-2.2391 -6.6599,-3.08979 -7.2994,-2.45026 -1.5311,1.53104 -7.8807,20.98127 -7.8807,24.14013 0,1.55681 0.7875,3.52288 1.75,4.36904 3.591,3.15697 18.3611,9.52527 22.4937,9.69843 0.9591,0.0402 3.1393,-1.83943 4.8449,-4.17693 z"
       id="path3019" />
    <path
       style="fill:#000000;fill-opacity:1;stroke:none;stroke-opacity:1"
       d="m 319.79955,649.5581 c -3.3,-0.50972 -9.0983,-1.86393 -12.885,-3.00936 -9.6689,-2.92464 -16.1685,-9.4387 -19.8989,-19.943 -3.9012,-10.98528 -4.8906,-18.55199 -4.5772,-35.00279 0.3184,-16.71686 0.5646,-15.98612 -8.8259,-26.20056 -8.0187,-8.72238 -8.701,-10.88124 -6.2149,-19.66605 1.1093,-3.92017 1.8786,-9.02888 1.7095,-11.35269 -0.3019,-4.14637 -0.4337,-4.28592 -7.0731,-7.48852 -12.2578,-5.91263 -11.7528,-10.8374 1.7733,-17.29313 4.7277,-2.25641 8.8755,-4.8317 9.2175,-5.72285 0.4151,-1.08183 -0.4797,-2.53984 -2.6928,-4.38739 -7.1279,-5.95064 -9.0964,-12.4876 -4.6398,-15.40767 2.2138,-1.45057 3.1669,-1.36784 12.7494,1.10674 9.105,2.35127 11.6648,2.61249 21.1807,2.16146 9.9599,-0.47208 11.042,-0.72193 13.5553,-3.12979 1.5022,-1.43922 3.6628,-2.61676 4.8013,-2.61676 5.8928,0 27.9841,4.62375 36.3095,7.59967 5.2311,1.86985 10.1861,3.38253 11.0111,3.36151 0.825,-0.021 2.4061,-1.48339 3.5135,-3.2497 3.3085,-5.27691 5.8851,-4.78538 15.6737,2.99002 4.7074,3.73918 12.2545,9.47929 16.7713,12.75581 9.6023,6.96544 12.5605,10.20536 14.1442,15.49129 1.7319,5.7805 0.4209,10.5455 -4.1117,14.94422 l -3.8977,3.78257 1.9064,9.41231 c 2.9426,14.52848 4.2104,32.67395 2.9766,42.60313 -2.086,16.78613 -10.2641,36.43904 -18.6551,44.83002 -4.9126,4.91263 -13.8249,9.62345 -22.8212,12.0628 -7.1045,1.92638 -41.4262,2.84749 -51,1.36871 z"
       id="path3015" />
    <path
       style="fill:url(#linearGradient3843);fill-opacity:1;stroke:none;stroke-opacity:1"
       d="m 368.51335,639.22011 c 8.5629,-2.353 14.3016,-5.36509 18.8086,-9.87209 6.899,-6.89899 14.097,-24.57463 15.9805,-39.24228 1.0632,-8.27961 -0.3033,-28.05534 -2.7986,-40.5 l -1.7043,-8.5 -8.4406,-0.29352 c -4.6423,-0.16144 -12.4841,0.40106 -17.4262,1.25 -4.9421,0.84894 -11.9438,1.54533 -15.5594,1.54754 -8.3199,0.005 -24.3595,2.57523 -28.0808,4.49959 -2.8441,1.47076 -4.1608,4.16505 -8.4579,17.30775 -2.8444,8.69956 -4.705,10.14265 -17.0745,13.24317 -8.0521,2.01834 -11.0448,3.20204 -11.5879,4.58328 -1.2799,3.25544 -0.9264,21.90566 0.5628,29.68888 3.6612,19.13529 9.3483,24.53362 29.1034,27.62546 9.0895,1.42259 39.8366,0.54132 46.6749,-1.33778 z"
       id="path3013" />
    <path
       style="fill:url(#linearGradient3835);fill-opacity:1;stroke:none;stroke-opacity:1"
       d="m 302.20335,569.64875 c 4.0721,-1.05749 7.7776,-2.51227 8.2344,-3.23286 0.4568,-0.72058 1.9701,-4.68515 3.363,-8.81015 3.839,-11.36941 6.3082,-15.16569 11.4988,-17.6785 5.5595,-2.69145 20.8164,-5.31956 30.9262,-5.32729 4.1656,-0.003 10.2738,-0.45165 13.5738,-0.99659 3.3,-0.54494 9.375,-1.21457 13.5,-1.48808 15.7283,-1.04286 19.059,-1.6562 21.8008,-4.01464 2.6507,-2.28006 2.6562,-2.31332 0.9628,-5.86446 -1.0985,-2.30351 -4.4652,-5.58359 -9.4834,-9.23943 -4.2791,-3.11743 -10.3297,-7.63071 -13.4458,-10.02953 -6.3526,-4.89042 -7.3329,-5.16714 -8.7729,-2.47651 -1.9613,3.66477 -5.4136,3.36558 -20.8072,-1.80324 -8.1149,-2.72481 -18.4345,-5.5058 -22.9325,-6.17999 -7.2185,-1.08195 -8.4701,-1.0346 -10.6648,0.40342 -3.6225,2.37355 -14.6436,3.85923 -26.657,3.59346 -9.87,-0.21836 -10.4785,-0.11728 -10.1412,1.68454 1.3877,7.41416 -0.7143,11.22086 -8.9403,16.19012 -2.9802,1.8003 -5.5597,3.6864 -5.7323,4.19133 -0.1726,0.50494 1.1774,1.67373 3,2.59732 6.3334,3.20943 6.8138,4.07502 6.8138,12.27745 0,4.14118 -0.722,10.10247 -1.6044,13.24732 -0.984,3.507 -1.2707,6.31419 -0.7413,7.26002 2.0816,3.71974 15.6403,17.65166 17.1635,17.63614 0.9252,-0.009 5.0139,-0.88235 9.086,-1.93985 z"
       id="path3009" />
    <path
       style="fill:#000000;fill-opacity:1;stroke:none"
       d="m 239.61862,397.13621 c -8.88174,-4.29952 -22.85009,-1.50512 -24.99235,9.43919 -4.83708,15.94658 7.81098,32.55638 23.25313,36.33533 12.13898,3.95551 23.71861,9.41199 34.00764,16.8898 2.94633,2.06853 6.02983,-1.73212 3.86447,-4.42201 -8.37414,-11.78788 -11.93117,-25.87174 -17.78069,-38.80928 -3.96064,-8.05762 -9.66994,-16.01969 -18.3522,-19.43303 z"
       id="path3844"
       inkscape:connector-curvature="0" />
    <path
       style="fill:url(#linearGradient3856);fill-opacity:1.0;stroke:none"
       d="m 225.8616,429.30767 c -7.74302,-7.5843 -8.18241,-20.22936 -3.51503,-25.56559 4.11472,-4.70436 16.0838,-3.14143 22.34954,3.42799 11.92376,12.50167 10.42367,23.15004 20.83021,41.84455 -19.68481,-12.23014 -28.89688,-9.15983 -39.66472,-19.70695 z"
       id="path3840"
       inkscape:connector-curvature="0"
       sodipodi:nodetypes="ssscs" />
    <path
       inkscape:connector-curvature="0"
       id="path4122"
       d="m 139.65543,576.64557 c -8.053,5.70267 -12.34899,19.28457 -3.79859,26.44403 11.63026,11.93432 32.28227,8.87605 43.04641,-2.82327 9.32416,-8.72129 19.69278,-16.22814 31.20856,-21.62893 3.23387,-1.58169 1.39397,-6.11685 -2.00705,-5.51906 -14.36594,1.64313 -28.41716,-2.04075 -42.57117,-3.16358 -8.96853,-0.42124 -18.69754,0.73504 -25.87816,6.69081 z"
       style="fill:#000000;fill-opacity:1;stroke:none" />
    <path
       sodipodi:nodetypes="ssscs"
       inkscape:connector-curvature="0"
       id="path4124"
       d="m 161.18866,604.22416 c -10.37994,3.1197 -21.66608,-2.5999 -24.08615,-9.26346 -2.13351,-5.87453 5.01331,-15.60205 13.79132,-17.91793 16.70462,-4.40717 25.30587,2.04704 46.70149,1.95819 -20.21348,11.33505 -21.97175,20.88478 -36.40666,25.2232 z"
       style="fill:url(#linearGradient4126);fill-opacity:1.0;stroke:none" />
    <path
       style="fill:#000000;fill-opacity:1;stroke:none"
       d="m 137.00071,467.52156 c -9.79116,1.22649 -19.98912,11.17261 -15.83032,21.52015 4.62028,16.01074 24.27059,23.06225 39.2823,17.82876 12.3366,-3.28772 25.02079,-5.01181 37.72226,-4.33774 3.59754,0.13195 4.11606,-4.73467 0.83556,-5.81293 -13.44057,-5.33209 -24.08935,-15.21193 -36.03756,-22.88246 -7.70784,-4.60448 -16.8307,-8.17716 -25.97224,-6.31578 z"
       id="path4128"
       inkscape:connector-curvature="0" />
    <path
       style="fill:url(#linearGradient4132);fill-opacity:1.0;stroke:none"
       d="m 142.96742,501.99847 c -10.62345,-2.14897 -17.87368,-12.51839 -16.86204,-19.53525 0.89186,-6.186 11.78385,-11.38851 20.61564,-9.287 16.80696,3.99916 21.34347,13.74895 40.24779,23.76928 -23.17032,0.45229 -29.22785,8.04144 -44.00139,5.05297 z"
       id="path4130"
       inkscape:connector-curvature="0"
       sodipodi:nodetypes="ssscs" />
  </g>
</svg>
