<?xml version="1.0" encoding="UTF-8" standalone="no"?>
<!-- Created with Inkscape (http://www.inkscape.org/) -->

<svg
   xmlns:dc="http://purl.org/dc/elements/1.1/"
   xmlns:cc="http://creativecommons.org/ns#"
   xmlns:rdf="http://www.w3.org/1999/02/22-rdf-syntax-ns#"
   xmlns:svg="http://www.w3.org/2000/svg"
   xmlns="http://www.w3.org/2000/svg"
   xmlns:xlink="http://www.w3.org/1999/xlink"
   xmlns:sodipodi="http://sodipodi.sourceforge.net/DTD/sodipodi-0.dtd"
   xmlns:inkscape="http://www.inkscape.org/namespaces/inkscape"
   width="744.09448819"
   height="1052.3622047"
   id="svg19275"
   version="1.1"
   inkscape:version="0.48.4 r9939"
   sodipodi:docname="sadmemory.svg"
   inkscape:export-filename="C:\Users\garysoed\Google Drive\Happy My Life\Artwork\svgs\sadmemory2.png"
   inkscape:export-xdpi="150.02893"
   inkscape:export-ydpi="150.02893">
  <defs
     id="defs19277">
    <linearGradient
       id="linearGradient19962">
      <stop
         style="stop-color:#5f8dd3;stop-opacity:1;"
         offset="0"
         id="stop19964" />
      <stop
         style="stop-color:#3972c8;stop-opacity:1;"
         offset="1"
         id="stop19966" />
    </linearGradient>
    <linearGradient
       id="linearGradient19953">
      <stop
         style="stop-color:#502d16;stop-opacity:1;"
         offset="0"
         id="stop19955" />
      <stop
         style="stop-color:#3a2010;stop-opacity:1;"
         offset="1"
         id="stop19957" />
    </linearGradient>
    <linearGradient
       id="linearGradient19939">
      <stop
         style="stop-color:#d38d5f;stop-opacity:1;"
         offset="0"
         id="stop19941" />
      <stop
         style="stop-color:#ca7740;stop-opacity:1;"
         offset="1"
         id="stop19943" />
    </linearGradient>
    <linearGradient
       id="linearGradient19925">
      <stop
         style="stop-color:#e9c6af;stop-opacity:1;"
         offset="0"
         id="stop19927" />
      <stop
         style="stop-color:#e1b293;stop-opacity:1;"
         offset="1"
         id="stop19929" />
    </linearGradient>
    <linearGradient
       id="linearGradient19917">
      <stop
         style="stop-color:#ff5555;stop-opacity:1;"
         offset="0"
         id="stop19919" />
      <stop
         style="stop-color:#ff1515;stop-opacity:1;"
         offset="1"
         id="stop19921" />
    </linearGradient>
    <linearGradient
       id="linearGradient19909">
      <stop
         style="stop-color:#ffe680;stop-opacity:1;"
         offset="0"
         id="stop19911" />
      <stop
         style="stop-color:#ffe167;stop-opacity:1;"
         offset="1"
         id="stop19913" />
    </linearGradient>
    <linearGradient
       inkscape:collect="always"
       xlink:href="#linearGradient19909"
       id="linearGradient19915"
       x1="366.04553"
       y1="600.08435"
       x2="382.60687"
       y2="664.37006"
       gradientUnits="userSpaceOnUse" />
    <linearGradient
       inkscape:collect="always"
       xlink:href="#linearGradient19917"
       id="linearGradient19923"
       x1="306.24869"
       y1="630.53143"
       x2="320.76611"
       y2="676.96002"
       gradientUnits="userSpaceOnUse" />
    <linearGradient
       inkscape:collect="always"
       xlink:href="#linearGradient19939"
       id="linearGradient19945"
       x1="291.32739"
       y1="646.01038"
       x2="291.60733"
       y2="659.6474"
       gradientUnits="userSpaceOnUse" />
    <linearGradient
       inkscape:collect="always"
       xlink:href="#linearGradient19939"
       id="linearGradient19947"
       x1="331.30255"
       y1="632.78058"
       x2="342.53625"
       y2="653.48871"
       gradientUnits="userSpaceOnUse" />
    <linearGradient
       inkscape:collect="always"
       xlink:href="#linearGradient19939"
       id="linearGradient19949"
       x1="293.25455"
       y1="573.9585"
       x2="304.51596"
       y2="607.29352"
       gradientUnits="userSpaceOnUse" />
    <linearGradient
       inkscape:collect="always"
       xlink:href="#linearGradient19939"
       id="linearGradient19951"
       x1="304.51596"
       y1="607.29352"
       x2="304.88992"
       y2="619.29608"
       gradientUnits="userSpaceOnUse" />
    <linearGradient
       inkscape:collect="always"
       xlink:href="#linearGradient19953"
       id="linearGradient19959"
       x1="362.54492"
       y1="567.51947"
       x2="365.17468"
       y2="593.27838"
       gradientUnits="userSpaceOnUse" />
    <linearGradient
       inkscape:collect="always"
       xlink:href="#linearGradient19962"
       id="linearGradient19968"
       x1="302.92773"
       y1="500.78549"
       x2="344.40701"
       y2="669.48096"
       gradientUnits="userSpaceOnUse" />
    <filter
       id="filter19970"
       inkscape:label="Sepia"
       x="0"
       y="0"
       width="1"
       height="1"
       inkscape:menu="Color"
       inkscape:menu-tooltip="Render in warm sepia tones"
       color-interpolation-filters="sRGB">
      <feColorMatrix
         id="feColorMatrix19972"
         values="0"
         in="SourceGraphic"
         type="saturate"
         result="result2" />
      <feFlood
         id="feFlood19974"
         flood-color="rgb(160,67,0)"
         flood-opacity="1"
         result="result1" />
      <feBlend
         id="feBlend19976"
         in2="result1"
         mode="multiply"
         in="result2"
         result="result5" />
      <feBlend
         id="feBlend19978"
         in2="result2"
         mode="screen"
         result="result3" />
      <feComposite
         id="feComposite19980"
         in2="result2"
         result="result4"
         operator="arithmetic"
         k2="1" />
      <feComposite
         id="feComposite19982"
         in2="SourceAlpha"
         operator="in"
         in="result4" />
    </filter>
    <filter
       id="filter19984"
       inkscape:label="Sepia"
       x="0"
       y="0"
       width="1"
       height="1"
       inkscape:menu="Color"
       inkscape:menu-tooltip="Render in warm sepia tones"
       color-interpolation-filters="sRGB">
      <feColorMatrix
         id="feColorMatrix19986"
         values="0"
         in="SourceGraphic"
         type="saturate"
         result="result2" />
      <feFlood
         id="feFlood19988"
         flood-color="rgb(160,67,0)"
         flood-opacity="1"
         result="result1" />
      <feBlend
         id="feBlend19990"
         in2="result1"
         mode="multiply"
         in="result2"
         result="result5" />
      <feBlend
         id="feBlend19992"
         in2="result2"
         mode="screen"
         result="result3" />
      <feComposite
         id="feComposite19994"
         in2="result2"
         result="result4"
         operator="arithmetic"
         k2="1" />
      <feComposite
         id="feComposite19996"
         in2="SourceAlpha"
         operator="in"
         in="result4" />
    </filter>
    <filter
       id="filter19998"
       inkscape:label="Sepia"
       x="0"
       y="0"
       width="1"
       height="1"
       inkscape:menu="Color"
       inkscape:menu-tooltip="Render in warm sepia tones"
       color-interpolation-filters="sRGB">
      <feColorMatrix
         id="feColorMatrix20000"
         values="0"
         in="SourceGraphic"
         type="saturate"
         result="result2" />
      <feFlood
         id="feFlood20002"
         flood-color="rgb(160,67,0)"
         flood-opacity="1"
         result="result1" />
      <feBlend
         id="feBlend20004"
         in2="result1"
         mode="multiply"
         in="result2"
         result="result5" />
      <feBlend
         id="feBlend20006"
         in2="result2"
         mode="screen"
         result="result3" />
      <feComposite
         id="feComposite20008"
         in2="result2"
         result="result4"
         operator="arithmetic"
         k2="1" />
      <feComposite
         id="feComposite20010"
         in2="SourceAlpha"
         operator="in"
         in="result4" />
    </filter>
    <filter
       id="filter20012"
       inkscape:label="Sepia"
       x="0"
       y="0"
       width="1"
       height="1"
       inkscape:menu="Color"
       inkscape:menu-tooltip="Render in warm sepia tones"
       color-interpolation-filters="sRGB">
      <feColorMatrix
         id="feColorMatrix20014"
         values="0"
         in="SourceGraphic"
         type="saturate"
         result="result2" />
      <feFlood
         id="feFlood20016"
         flood-color="rgb(160,67,0)"
         flood-opacity="1"
         result="result1" />
      <feBlend
         id="feBlend20018"
         in2="result1"
         mode="multiply"
         in="result2"
         result="result5" />
      <feBlend
         id="feBlend20020"
         in2="result2"
         mode="screen"
         result="result3" />
      <feComposite
         id="feComposite20022"
         in2="result2"
         result="result4"
         operator="arithmetic"
         k2="1" />
      <feComposite
         id="feComposite20024"
         in2="SourceAlpha"
         operator="in"
         in="result4" />
    </filter>
    <filter
       id="filter20026"
       inkscape:label="Sepia"
       x="0"
       y="0"
       width="1"
       height="1"
       inkscape:menu="Color"
       inkscape:menu-tooltip="Render in warm sepia tones"
       color-interpolation-filters="sRGB">
      <feColorMatrix
         id="feColorMatrix20028"
         values="0"
         in="SourceGraphic"
         type="saturate"
         result="result2" />
      <feFlood
         id="feFlood20030"
         flood-color="rgb(160,67,0)"
         flood-opacity="1"
         result="result1" />
      <feBlend
         id="feBlend20032"
         in2="result1"
         mode="multiply"
         in="result2"
         result="result5" />
      <feBlend
         id="feBlend20034"
         in2="result2"
         mode="screen"
         result="result3" />
      <feComposite
         id="feComposite20036"
         in2="result2"
         result="result4"
         operator="arithmetic"
         k2="1" />
      <feComposite
         id="feComposite20038"
         in2="SourceAlpha"
         operator="in"
         in="result4" />
    </filter>
    <filter
       id="filter20040"
       inkscape:label="Sepia"
       x="0"
       y="0"
       width="1"
       height="1"
       inkscape:menu="Color"
       inkscape:menu-tooltip="Render in warm sepia tones"
       color-interpolation-filters="sRGB">
      <feColorMatrix
         id="feColorMatrix20042"
         values="0"
         in="SourceGraphic"
         type="saturate"
         result="result2" />
      <feFlood
         id="feFlood20044"
         flood-color="rgb(160,67,0)"
         flood-opacity="1"
         result="result1" />
      <feBlend
         id="feBlend20046"
         in2="result1"
         mode="multiply"
         in="result2"
         result="result5" />
      <feBlend
         id="feBlend20048"
         in2="result2"
         mode="screen"
         result="result3" />
      <feComposite
         id="feComposite20050"
         in2="result2"
         result="result4"
         operator="arithmetic"
         k2="1" />
      <feComposite
         id="feComposite20052"
         in2="SourceAlpha"
         operator="in"
         in="result4" />
    </filter>
    <filter
       id="filter20054"
       inkscape:label="Sepia"
       x="0"
       y="0"
       width="1"
       height="1"
       inkscape:menu="Color"
       inkscape:menu-tooltip="Render in warm sepia tones"
       color-interpolation-filters="sRGB">
      <feColorMatrix
         id="feColorMatrix20056"
         values="0"
         in="SourceGraphic"
         type="saturate"
         result="result2" />
      <feFlood
         id="feFlood20058"
         flood-color="rgb(160,67,0)"
         flood-opacity="1"
         result="result1" />
      <feBlend
         id="feBlend20060"
         in2="result1"
         mode="multiply"
         in="result2"
         result="result5" />
      <feBlend
         id="feBlend20062"
         in2="result2"
         mode="screen"
         result="result3" />
      <feComposite
         id="feComposite20064"
         in2="result2"
         result="result4"
         operator="arithmetic"
         k2="1" />
      <feComposite
         id="feComposite20066"
         in2="SourceAlpha"
         operator="in"
         in="result4" />
    </filter>
    <filter
       id="filter20068"
       inkscape:label="Sepia"
       x="0"
       y="0"
       width="1"
       height="1"
       inkscape:menu="Color"
       inkscape:menu-tooltip="Render in warm sepia tones"
       color-interpolation-filters="sRGB">
      <feColorMatrix
         id="feColorMatrix20070"
         values="0"
         in="SourceGraphic"
         type="saturate"
         result="result2" />
      <feFlood
         id="feFlood20072"
         flood-color="rgb(160,67,0)"
         flood-opacity="1"
         result="result1" />
      <feBlend
         id="feBlend20074"
         in2="result1"
         mode="multiply"
         in="result2"
         result="result5" />
      <feBlend
         id="feBlend20076"
         in2="result2"
         mode="screen"
         result="result3" />
      <feComposite
         id="feComposite20078"
         in2="result2"
         result="result4"
         operator="arithmetic"
         k2="1" />
      <feComposite
         id="feComposite20080"
         in2="SourceAlpha"
         operator="in"
         in="result4" />
    </filter>
    <filter
       id="filter20082"
       inkscape:label="Sepia"
       x="0"
       y="0"
       width="1"
       height="1"
       inkscape:menu="Color"
       inkscape:menu-tooltip="Render in warm sepia tones"
       color-interpolation-filters="sRGB">
      <feColorMatrix
         id="feColorMatrix20084"
         values="0"
         in="SourceGraphic"
         type="saturate"
         result="result2" />
      <feFlood
         id="feFlood20086"
         flood-color="rgb(160,67,0)"
         flood-opacity="1"
         result="result1" />
      <feBlend
         id="feBlend20088"
         in2="result1"
         mode="multiply"
         in="result2"
         result="result5" />
      <feBlend
         id="feBlend20090"
         in2="result2"
         mode="screen"
         result="result3" />
      <feComposite
         id="feComposite20092"
         in2="result2"
         result="result4"
         operator="arithmetic"
         k2="1" />
      <feComposite
         id="feComposite20094"
         in2="SourceAlpha"
         operator="in"
         in="result4" />
    </filter>
    <filter
       inkscape:collect="always"
       id="filter20107"
       x="-0.19345359"
       width="1.3869072"
       y="-0.057248558"
       height="1.1144971">
      <feGaussianBlur
         inkscape:collect="always"
         stdDeviation="8.6600951"
         id="feGaussianBlur20109" />
    </filter>
    <filter
       inkscape:collect="always"
       id="filter20111">
      <feGaussianBlur
         inkscape:collect="always"
         stdDeviation="8.6600951"
         id="feGaussianBlur20113" />
    </filter>
  </defs>
  <sodipodi:namedview
     id="base"
     pagecolor="#ffffff"
     bordercolor="#666666"
     borderopacity="1.0"
     inkscape:pageopacity="0.0"
     inkscape:pageshadow="2"
     inkscape:zoom="0.7"
     inkscape:cx="39.832406"
     inkscape:cy="514.95094"
     inkscape:document-units="px"
     inkscape:current-layer="layer3"
     showgrid="false"
     inkscape:window-width="1280"
     inkscape:window-height="738"
     inkscape:window-x="-8"
     inkscape:window-y="-8"
     inkscape:window-maximized="1" />
  <metadata
     id="metadata19280">
    <rdf:RDF>
      <cc:Work
         rdf:about="">
        <dc:format>image/svg+xml</dc:format>
        <dc:type
           rdf:resource="http://purl.org/dc/dcmitype/StillImage" />
        <dc:title />
      </cc:Work>
    </rdf:RDF>
  </metadata>
  <g
     inkscape:groupmode="layer"
     id="layer3"
     inkscape:label="Layer"
     style="display:inline">
    <path
       style="opacity:0.75;fill:#000000;fill-opacity:1;stroke:none;display:inline;filter:url(#filter20107)"
       d="m 497.31688,594.75464 c -1.22485,-1.11622 -12.96082,-5.04627 -26.07996,-8.73345 -13.11914,-3.68721 -25.44935,-7.83511 -27.40046,-9.21756 -1.95111,-1.38246 -4.25819,-2.25726 -5.12683,-1.94401 -0.86865,0.31326 -2.57776,-0.36947 -3.79803,-1.51719 -1.22027,-1.14773 -3.05562,-2.15576 -4.07855,-2.24008 -2.64296,-0.21785 -3.8955,-3.37517 -3.6136,-9.10894 0.24622,-5.00809 2.74471,-8.12559 9.23523,-11.52336 2.03186,-1.06366 2.25961,-2.01866 1.6468,-6.90506 -0.68205,-5.43847 -1.1371,-6.03111 -11.11286,-14.47381 -5.72093,-4.84174 -10.50409,-9.37325 -10.62924,-10.07003 -0.12516,-0.69678 0.76171,-3.5147 1.97083,-6.26203 2.67608,-6.08056 2.44957,-7.87517 -1.21933,-9.66055 -3.17852,-1.54675 -4.31382,-5.35394 -2.59502,-8.70228 1.51031,-2.94218 1.07236,-4.73996 -1.96446,-8.06418 -3.66002,-4.00641 -3.68641,-6.11126 -0.16587,-13.23079 1.7374,-3.51353 2.75385,-6.94254 2.25879,-7.62003 -0.49508,-0.67749 -3.64318,-2.28483 -6.99579,-3.57188 -8.02985,-3.08262 -8.49369,-5.71011 -2.58629,-14.65057 l 4.49788,-6.80725 -4.91324,-5.08715 c -7.38655,-7.64803 -7.63225,-8.65592 -4.01367,-16.46429 2.98126,-6.43313 3.0294,-6.84496 1.02072,-8.73421 -2.65426,-2.49647 -3.08293,-4.83199 -1.61092,-8.77698 1.08669,-2.91236 0.9922,-3.25821 -1.50648,-5.5145 -1.46624,-1.32398 -2.84438,-3.40099 -3.06255,-4.61558 -0.21817,-1.2146 1.47154,-5.95916 3.7549,-10.54349 l 4.15158,-8.33514 -2.20637,-3.51826 c -2.55471,-4.07369 -2.67336,-8.39647 -0.31435,-11.45232 1.35037,-1.74926 1.38937,-3.30747 0.21231,-8.48212 l -1.44194,-6.33916 5.06331,-2.27056 c 2.86828,-1.28624 5.08852,-3.03771 5.12144,-4.04011 0.032,-0.97324 0.0159,-3.46328 -0.0357,-5.53342 -0.0874,-3.5081 6.1499,-18.76569 32.39565,-79.24522 7.98813,-18.40749 9.98491,-21.04753 12.34436,-16.32109 0.48339,0.96832 11.13807,78.16697 23.67708,171.55258 12.53901,93.3856 23.37066,172.99278 24.07032,176.90484 1.8121,10.13426 -0.45101,15.21891 -4.94969,11.11923 z"
       id="path20097"
       inkscape:connector-curvature="0" />
    <path
       inkscape:connector-curvature="0"
       id="path20099"
       d="m 287.20855,765.10554 c -2.23714,-4.16534 -115.31249,-325.9954 -116.12172,-330.50051 -0.68476,-3.81219 0.96934,-7.19439 3.06282,-6.26265 1.14831,0.51109 21.04881,1.81879 22.12844,1.4541 1.94108,-0.6557 -0.53223,-3.06873 -10.32191,-10.07045 -11.40699,-8.15847 -13.78083,-12.05981 -9.88261,-16.24183 5.33737,-5.72593 194.68673,-158.07118 197.02262,-158.51894 2.05354,-0.39364 2.92839,0.29167 3.59602,2.8169 0.96995,3.66874 -0.33632,78.51929 -1.41519,81.0918 -0.36906,0.87999 -14.09581,13.27881 -30.5039,27.55293 -31.69379,27.5718 -34.71995,30.34149 -34.49844,31.57472 0.2099,1.16853 5.57939,-2.49425 20.68302,-14.10891 18.51759,-14.23994 31.7543,-22.39668 34.68224,-21.37185 2.16445,0.75759 2.44588,1.89599 7.24872,29.32187 5.24934,29.97558 8.75333,43.85213 20.89455,82.74673 3.38435,10.84186 8.34856,29.44796 11.03155,41.34691 3.06167,13.57832 8.21927,32.13526 13.85058,49.83396 l 8.97239,28.19952 3.52507,-1.27124 c 1.93879,-0.69919 4.02133,-0.79227 4.62788,-0.20685 22.12406,21.35349 36.32323,35.42939 37.92412,37.5949 1.80014,2.43501 1.90651,3.02723 0.93358,5.19744 -1.20665,2.69155 -179.04023,140.08204 -183.31093,141.62217 -1.82661,0.65873 -3.10814,0.0999 -4.1289,-1.80072 z"
       style="opacity:0.75;fill:#000000;fill-opacity:1;stroke:none;display:inline;filter:url(#filter20111)" />
  </g>
  <g
     inkscape:label="Layer 1"
     inkscape:groupmode="layer"
     id="layer1"
     style="display:inline">
    <path
       style="fill:#000000;fill-opacity:1;stroke:none"
       d="m 440.54022,561.72569 c -1.03408,-5.75692 -2.95088,-6.52298 -6.32467,-2.52773 -3.04564,3.60664 -2.75761,4.98581 1.39588,6.68393 5.03153,2.05709 5.91155,1.31501 4.92879,-4.1562 z"
       id="path20105"
       inkscape:connector-curvature="0" />
    <path
       id="path19878"
       style="fill:#000000;fill-opacity:1;stroke:none"
       d="m 440.54022,622.17788 c -1.03408,-4.06295 -2.95088,-4.6036 -6.32467,-1.78395 -3.04564,2.54539 -2.75761,3.51874 1.39588,4.71719 5.03153,1.45179 5.91155,0.92807 4.92879,-2.93324 z m -5.55323,-29.0743 c -0.17435,-1.33069 -5.40196,-29.45037 -11.6169,-62.48817 -10.36447,-55.09621 -11.45519,-60.13713 -13.17602,-60.89499 -2.7902,-1.22882 -3.78869,-0.0562 -3.18616,3.74197 0.32055,2.02066 -0.19492,4.54768 -1.27332,6.24232 l -1.81191,2.84728 2.66211,2.25503 c 1.46416,1.24026 2.77706,2.70666 2.91756,3.25867 0.14049,0.55201 -1.71505,3.27432 -4.12341,6.04958 -2.40838,2.77526 -4.29629,5.39198 -4.19536,5.81492 0.10045,0.42306 1.44348,1.79822 2.98346,3.05617 2.71817,2.22035 2.76913,2.37699 1.74428,5.36108 -1.0423,3.03488 -1.0173,3.08928 1.9678,4.28275 1.66294,0.66486 3.17122,1.78919 3.35176,2.49853 0.18054,0.70933 -1.51076,3.18633 -3.75844,5.50444 -2.24768,2.3181 -3.94229,4.78211 -3.76579,5.47557 0.1765,0.69347 2.79394,2.69923 5.81654,4.45726 6.73841,3.91924 7.13784,5.88706 2.18465,10.76256 -2.04228,2.01022 -3.57585,4.19469 -3.40796,4.85435 0.16789,0.65966 2.77959,1.82173 5.80376,2.58237 3.02419,0.76064 5.8616,2.15653 6.30537,3.10197 0.50452,1.07486 -0.35428,3.71536 -2.29188,7.0467 l -3.09875,5.3277 3.46699,3.72752 c 2.72629,2.93117 3.27886,4.04408 2.58643,5.20931 -1.19651,2.01351 -0.3848,4.72325 1.48066,4.94286 0.83933,0.0988 2.23723,0.95757 3.10646,1.90833 1.35038,1.47709 1.21196,2.36987 -0.95102,6.13398 -1.39229,2.4229 -2.44254,4.75451 -2.33391,5.18133 0.31123,1.22284 10.91409,5.45816 11.97601,4.78383 0.5247,-0.33318 0.81135,-1.69452 0.63699,-3.02522 z m 62.32989,52.3845 c -1.22485,-0.78777 -12.96082,-3.56141 -26.07996,-6.16364 -13.11914,-2.60225 -25.44935,-5.52963 -27.40046,-6.5053 -1.95111,-0.97567 -4.25819,-1.59306 -5.12683,-1.37198 -0.86865,0.22108 -2.57776,-0.26076 -3.79803,-1.07076 -1.22027,-0.81001 -3.05562,-1.52143 -4.07855,-1.58094 -2.64296,-0.15375 -3.8955,-2.38203 -3.6136,-6.42864 0.24622,-3.53446 2.74471,-5.73464 9.23523,-8.13262 2.03186,-0.75068 2.25961,-1.42467 1.6468,-4.87325 -0.68205,-3.8382 -1.1371,-4.25646 -11.11286,-10.2149 -5.72093,-3.41706 -10.50409,-6.61518 -10.62924,-7.10693 -0.12516,-0.49175 0.76171,-2.4805 1.97083,-4.41943 2.67608,-4.29136 2.44957,-5.55791 -1.21933,-6.81794 -3.17852,-1.09162 -4.31382,-3.77855 -2.59502,-6.14164 1.51031,-2.07645 1.07236,-3.34523 -1.96446,-5.6913 -3.66002,-2.82753 -3.68641,-4.31303 -0.16587,-9.33764 1.7374,-2.47968 2.75385,-4.8997 2.25879,-5.37784 -0.49508,-0.47814 -3.64318,-1.61252 -6.99579,-2.52086 -8.02985,-2.17556 -8.49369,-4.02991 -2.58629,-10.33965 l 4.49788,-4.80422 -4.91324,-3.59026 c -7.38655,-5.3976 -7.63225,-6.10892 -4.01367,-11.61968 2.98126,-4.54019 3.0294,-4.83084 1.02072,-6.16418 -2.65426,-1.76188 -3.08293,-3.41018 -1.61092,-6.19436 1.08669,-2.0554 0.9922,-2.29948 -1.50648,-3.89186 -1.46624,-0.9344 -2.84438,-2.40025 -3.06255,-3.25745 -0.21817,-0.8572 1.47154,-4.20568 3.7549,-7.44107 l 4.15158,-5.88253 -2.20637,-2.48302 c -2.55471,-2.87501 -2.67336,-5.92581 -0.31435,-8.08248 1.35037,-1.23454 1.38937,-2.33425 0.21231,-5.98626 l -1.44194,-4.47387 5.06331,-1.60245 c 2.86828,-0.90776 5.08852,-2.14386 5.12144,-2.85131 0.032,-0.68686 0.0159,-2.44421 -0.0357,-3.90521 -0.0874,-2.47585 6.1499,-13.2439 32.39565,-55.92737 7.98813,-12.9911 9.98491,-14.85431 12.34436,-11.51862 0.48339,0.68339 11.13807,55.16639 23.67708,121.07335 12.53901,65.90695 23.37066,122.08977 24.07032,124.85071 1.8121,7.15226 -0.45101,10.74075 -4.94969,7.8474 z"
       inkscape:connector-curvature="0" />
    <path
       id="path19864"
       style="fill:#000000;fill-opacity:1;stroke:none"
       d="m 411.60169,413.74314 c 2.75799,-6.30007 2.67821,-7.24564 -0.76111,-9.02191 -2.01138,-1.0388 -2.57604,-1.01054 -2.67463,0.13385 -0.25124,2.91664 -2.90666,6.02817 -5.76545,6.75578 -2.27128,0.57807 -3.0032,1.37346 -3.25062,3.53255 -0.47804,4.17154 1.91067,5.37781 8.48083,4.28269 0.87993,-0.14667 2.66687,-2.704 3.97098,-5.68296 z m -11.16385,10.32753 c -3.24321,-0.31096 -3.8571,-0.80409 -4.95422,-3.97958 -2.45224,-7.09772 -1.56492,-9.30909 5.04599,-12.57565 1.78325,-0.88113 2.51912,-2.21044 2.70562,-4.88756 0.19347,-2.77732 0.79871,-3.81533 2.47308,-4.24148 2.91345,-0.74151 7.22356,1.23954 10.53408,4.8418 2.97426,3.23635 3.05825,2.25282 -1.22343,14.32787 -1.56591,4.41609 -1.91946,4.74176 -6.26934,5.77478 -2.53542,0.60217 -6.27572,0.93505 -8.31178,0.73982 z"
       inkscape:connector-curvature="0" />
    <path
       style="fill:#000000;fill-opacity:1;stroke:none"
       d="m 287.20855,765.71334 c -2.23714,-2.93969 -115.31249,-230.07147 -116.12172,-233.25095 -0.68476,-2.69046 0.96934,-5.07745 3.06282,-4.41987 1.14831,0.3607 21.04881,1.28361 22.12844,1.02623 1.94108,-0.46276 -0.53223,-2.16576 -10.32191,-7.10723 -11.40699,-5.75784 -13.78083,-8.51122 -9.88261,-11.46268 5.33737,-4.04108 194.68673,-111.55884 197.02262,-111.87485 2.05354,-0.27781 2.92839,0.20585 3.59602,1.98803 0.96995,2.58922 -0.33632,55.41504 -1.41519,57.23059 -0.36906,0.62106 -14.09581,9.37153 -30.5039,19.4455 -31.69379,19.45882 -34.71995,21.41353 -34.49844,22.28388 0.2099,0.82469 5.57939,-1.76032 20.68302,-9.95737 18.51759,-10.04985 31.7543,-15.80647 34.68224,-15.0832 2.16445,0.53467 2.44588,1.3381 7.24872,20.69393 5.24934,21.15529 8.75333,30.94867 20.89455,58.39856 3.38435,7.65165 8.34856,20.78292 11.03155,29.18061 3.06167,9.58291 8.21927,22.67948 13.85058,35.17035 l 8.97239,19.90183 3.52507,-0.89718 c 1.93879,-0.49345 4.02133,-0.55914 4.62788,-0.14598 22.12406,15.07024 36.32323,25.00431 37.92412,26.53262 1.80014,1.71851 1.90651,2.13647 0.93358,3.6681 -1.20665,1.89956 -179.04023,98.86299 -183.31093,99.94994 -1.82661,0.4649 -3.10814,0.0705 -4.1289,-1.27086 z"
       id="path19354"
       inkscape:connector-curvature="0" />
    <path
       style="fill:#502d16;fill-opacity:1;stroke:none"
       d="m 378.83912,712.20456 c 42.63793,-23.12737 79.05105,-42.88966 80.91804,-43.91618 1.86699,-1.02652 3.24126,-2.4686 3.05393,-3.20461 -0.51341,-2.01723 -12.73391,-9.70092 -14.65226,-9.21267 -0.92027,0.23422 -32.13591,17.00164 -69.3681,37.26093 -37.23218,20.25929 -68.74162,37.10148 -70.02096,37.42709 -2.48775,0.63317 -4.20279,3.87349 -8.64411,16.3318 -2.72205,7.63558 -2.81768,9.71274 -0.3814,8.28456 0.86424,-0.50663 36.45693,-19.84354 79.09486,-42.97092 z"
       id="path19352"
       inkscape:connector-curvature="0" />
    <path
       style="fill:#502d16;fill-opacity:1;stroke:none"
       d="m 291.31613,750.73751 c 0.37982,-1.08985 2.33239,-6.47133 4.33905,-11.95884 3.31983,-9.07854 3.50107,-10.24008 2.01198,-12.89465 -0.90007,-1.60455 -22.50353,-44.50536 -48.00769,-95.33515 -25.50417,-50.82979 -47.00411,-92.79874 -47.77764,-93.26435 -2.10536,-1.26723 -19.80076,-1.82122 -20.49103,-0.64151 -0.32896,0.56223 22.43724,47.16618 50.59157,103.56434 28.15432,56.39816 52.34839,104.91719 53.7646,107.82007 2.63235,5.39567 4.34311,6.22817 5.56916,2.71009 z"
       id="path19350"
       inkscape:connector-curvature="0" />
    <path
       style="fill:#28170b;fill-opacity:1;stroke:none"
       d="m 376.153,686.62033 c 35.20173,-19.15289 64.3463,-35.40093 64.76573,-36.10675 0.53515,-0.90057 -0.52798,-2.05011 -3.56426,-3.85451 l -4.32686,-2.57119 -56.13796,30.42412 c -30.87586,16.73328 -57.60755,31.23396 -59.40373,32.22375 -2.53632,1.39765 -3.75184,3.18732 -5.44186,8.0124 -2.3586,6.73388 -2.43815,7.34312 -0.90801,6.95367 0.5576,-0.14191 29.81523,-15.92859 65.01695,-35.08149 z"
       id="path19348"
       inkscape:connector-curvature="0" />
    <path
       style="fill:#28170b;fill-opacity:1;stroke:none"
       d="m 306.2502,710.4201 2.47458,-6.8358 -36.40167,-73.46498 c -20.02092,-40.40574 -37.77896,-76.17923 -39.4623,-79.49665 -2.89232,-5.69999 -3.48561,-6.24411 -10.78872,-9.89465 -7.98171,-3.98975 -10.78906,-4.3999 -10.04475,-1.46756 0.39835,1.56919 87.65355,175.94606 89.34028,178.54372 1.12257,1.72885 2.14147,0.18794 4.88258,-7.38408 z"
       id="path19346"
       inkscape:connector-curvature="0" />
    <path
       style="fill:url(#linearGradient19923);fill-opacity:1;stroke:none;filter:url(#filter20026)"
       d="m 325.64285,679.585 c 17.16332,-4.36707 18.01384,-4.69876 18.29769,-7.1358 0.4096,-3.5167 -2.28078,-9.39998 -10.72511,-23.45353 -7.76429,-12.92178 -7.43274,-11.49925 -5.47977,-23.5109 0.45132,-2.77581 0.12551,-3.92467 -1.54061,-5.43249 -2.10203,-1.90231 -2.13738,-1.88822 -6.83258,2.72367 -7.00296,6.87871 -12.36402,8.89739 -22.95272,8.64272 -5.37294,-0.12922 -8.80232,0.19263 -9.02029,0.84655 -0.19342,0.58026 0.032,2.5591 0.50096,4.39742 0.67759,2.6562 1.86885,3.85565 5.80253,5.8424 l 4.9499,2.5 0.5,18 c 0.56214,20.23687 1.2861,22.96753 5.79001,21.83897 1.49049,-0.37348 10.80999,-2.74003 20.70999,-5.25901 z"
       id="path19342"
       inkscape:connector-curvature="0"
       transform="matrix(0.9691043,-0.24665127,0.24665127,0.9691043,-132.48932,102.48645)" />
    <path
       style="fill:url(#linearGradient19945);fill-opacity:1;stroke:none;filter:url(#filter20012)"
       d="m 295.14285,666.57647 c 0,-14.44126 -0.24397,-17.17254 -1.66044,-18.58901 -2.59354,-2.59354 -3.17271,-0.13967 -2.24637,9.51758 0.44843,4.675 1.10131,12.4375 1.45084,17.25 1.05845,14.57329 2.45597,9.91944 2.45597,-8.17857 z"
       id="path19340"
       inkscape:connector-curvature="0"
       transform="matrix(0.9691043,-0.24665127,0.24665127,0.9691043,-132.48932,102.48645)" />
    <path
       style="fill:url(#linearGradient19947);fill-opacity:1;stroke:none;filter:url(#filter19970)"
       d="m 353.14285,671.17019 c 0,-0.73417 -1.59229,-6.36336 -3.53843,-12.5093 -3.34232,-10.55515 -3.93809,-11.62795 -10.75,-19.35739 -6.82438,-7.74359 -7.22879,-8.03603 -7.53224,-5.44667 -0.22885,1.95272 1.52636,5.81218 6.12951,13.47793 3.54759,5.90792 8.08505,13.98811 10.08324,17.95598 3.37756,6.70694 5.60792,9.04529 5.60792,5.87945 z"
       id="path19338"
       inkscape:connector-curvature="0"
       transform="matrix(0.9691043,-0.24665127,0.24665127,0.9691043,-132.48932,102.48645)" />
    <path
       id="path19332"
       style="fill:url(#linearGradient19915);fill-opacity:1;stroke:none;filter:url(#filter20054)"
       d="m 365.47612,633.75504 c 0.81668,-1.35719 -0.81469,-8.57714 -2.02952,-8.98208 -1.35294,-0.45098 -2.84807,5.87122 -1.94501,8.22455 0.60203,1.56886 3.18955,2.06204 3.97453,0.75753 z m 37.08901,25.70696 c 0.97996,-0.9579 0.59581,-2.48421 -6.30338,-25.04442 -2.28536,-7.4731 -4.81017,-17.31269 -5.61067,-21.86575 -1.66684,-9.48052 -2.61262,-11.04679 -6.67051,-11.04679 -1.60457,0 -4.68154,-0.9 -6.83772,-2 -5.11991,-2.61199 -5.52896,-2.5514 -7.01623,1.03918 -1.10129,2.65874 -1.03424,3.20343 0.53558,4.35131 1.48985,1.0894 1.68857,2.20617 1.17067,6.57897 -0.52428,4.42671 -0.1288,6.55034 2.47926,13.31328 2.58074,6.69208 2.95122,8.64992 2.20108,11.63185 -0.81854,3.2538 -1.19585,3.56265 -4.07954,3.33928 -4.82728,-0.37391 -4.86278,1.41571 -0.0761,3.83837 7.31262,3.70114 9.78532,5.85583 9.78532,8.52688 0,1.88804 0.83088,2.8301 3.46788,3.93191 1.90734,0.79693 4.31259,1.44897 5.34501,1.44897 1.03243,0 2.71469,0.92549 3.73837,2.05664 1.87201,2.06855 5.70248,2.02004 7.87102,-0.0997 z m -27.48147,7.66106 c 6.84244,-1.79457 12.59245,-3.71779 12.77779,-4.27382 0.18534,-0.55603 -1.45542,-1.54799 -3.64613,-2.20434 -4.91177,-1.4716 -7.05274,-3.49931 -6.38616,-6.04831 0.54711,-2.09216 -3.87353,-5.43073 -10.68631,-8.07056 -5.13923,-1.99136 -6.05568,-2.95097 -5.38193,-5.63541 0.48046,-1.91428 0.2064,-2.38558 -1.38722,-2.38558 -3.81061,0 -4.71996,-2.51614 -3.49463,-9.66954 0.61316,-3.57962 1.82335,-7.2913 2.68931,-8.24817 2.38422,-2.63453 1.94652,-3.82234 -2.42553,-6.58229 -4.43255,-2.79815 -4.69064,-3.51632 -2.47747,-6.89404 1.31441,-2.00605 1.32775,-2.48532 0.0976,-3.50626 -1.15241,-0.95641 -1.85644,-0.55309 -3.6812,2.10886 -1.24095,1.81029 -3.60133,4.73143 -5.24528,6.49142 -2.81129,3.00971 -2.95245,3.54485 -2.37399,9 0.46462,4.38154 8.88705,32.92115 14.18023,48.05002 0.64686,1.84883 3.6731,1.4789 17.44092,-2.13198 z"
       inkscape:connector-curvature="0"
       transform="matrix(0.9691043,-0.24665127,0.24665127,0.9691043,-132.48932,102.48645)" />
    <path
       style="fill:url(#linearGradient19951);fill-opacity:1;stroke:none;filter:url(#filter19998)"
       d="m 310.05151,624.55164 c 4.48062,-2.28584 7.17827,-5.17422 5.39375,-5.77508 -0.65867,-0.22179 -3.09906,-1.68029 -5.42309,-3.24113 -5.25885,-3.53188 -8.25001,-2.8899 -8.48696,1.82153 -0.0869,1.7278 -0.88572,4.2521 -1.77518,5.60958 -0.88945,1.35747 -1.61718,2.99148 -1.61718,3.63112 0,1.61138 7.14625,0.38358 11.90866,-2.04602 z"
       id="path19326"
       inkscape:connector-curvature="0"
       transform="matrix(0.9691043,-0.24665127,0.24665127,0.9691043,-132.48932,102.48645)" />
    <path
       style="fill:url(#linearGradient19949);fill-opacity:1;stroke:none;filter:url(#filter19984)"
       d="m 308.70894,606.01917 c 4.39508,-2.57568 8.43391,-8.97447 8.43391,-13.36197 0,-3.33585 -2.76988,-9.29821 -5.80305,-12.49144 -3.54338,-3.73037 -6.71909,-5.31656 -12.32841,-6.15772 -6.29045,-0.94332 -10.27226,1.21617 -13.14493,7.12898 l -2.20834,4.54544 2.85784,5.11864 c 1.57181,2.81525 3.49332,7.25853 4.27002,9.87396 0.7767,2.61542 2.39986,5.44711 3.60703,6.29265 3.30663,2.31605 9.43861,1.90976 14.31593,-0.94854 z"
       id="path19324"
       inkscape:connector-curvature="0"
       transform="matrix(0.9691043,-0.24665127,0.24665127,0.9691043,-132.48932,102.48645)" />
    <path
       style="fill:#deaa87;fill-opacity:1;stroke:none;filter:url(#filter20040)"
       d="m 365.14285,600.50504 c 0,-0.55 -0.45,-1 -1,-1 -0.55,0 -1,0.45 -1,1 0,0.55 0.45,1 1,1 0.55,0 1,-0.45 1,-1 z"
       id="path19322"
       inkscape:connector-curvature="0"
       transform="matrix(0.9691043,-0.24665127,0.24665127,0.9691043,-132.48932,102.48645)" />
    <path
       id="path19320"
       style="fill:url(#linearGradient19968);fill-opacity:1;stroke:none;filter:url(#filter20082)"
       d="m 269.04183,583.15131 c 1.78598,-18.2369 4.14967,-21.84384 15.06208,-22.98441 3.86276,-0.40374 8.24796,-1.76889 12.06738,-3.75669 9.59837,-4.99541 14.53673,-2.63152 23.17801,11.09483 4.43047,7.03762 6.41711,8.72663 8.62737,7.33483 2.97708,-1.87467 2.29852,-3.78199 -2.34005,-6.57746 -5.64559,-3.40237 -6.34983,-5.10821 -3.62846,-8.78906 2.64806,-3.58169 2.67128,-4.61077 0.13469,-5.96831 -3.20387,-1.71466 -2.48052,-5.40573 1.75,-8.92982 l 3.75,-3.12381 -2.25,-1.59516 c -1.2375,-0.87733 -2.25,-2.2937 -2.25,-3.14747 0,-0.85378 3.15,-4.80093 7,-8.77145 9.54944,-9.84838 9.34525,-10.90426 -2.34491,-12.12613 -4.73157,-0.49455 -6.6423,-1.2322 -8.981,-3.46718 -2.02391,-1.93416 -4.01288,-2.83898 -6.24062,-2.83898 -5.23046,0 -6.43347,-0.86147 -6.43347,-4.60699 0,-2.04731 -0.49576,-3.39333 -1.25,-3.39381 -3.26877,-0.002 -54.01582,16.52994 -54.48375,17.74936 -0.41471,1.0807 13.17736,67.78555 15.405,75.6021 1.05039,3.68569 2.08958,-0.0826 3.22773,-11.70439 z m 130.71936,35.53664 c -0.84609,-5.3256 -1.81505,-15.30791 -2.15325,-22.18291 -0.33819,-6.875 -1.72568,-19.20135 -3.0833,-27.39189 -4.99772,-30.15134 -5.67582,-36.91327 -5.92754,-59.10811 l -0.2495,-22 -5.35237,0.11196 c -2.94381,0.0616 -15.70238,2.62166 -28.35238,5.68906 -12.65,3.0674 -27.11673,6.11217 -32.14828,6.76616 -5.03155,0.65398 -9.70171,1.53109 -10.37812,1.94913 -2.22101,1.37267 -0.10333,2.71677 5.06241,3.21313 3.60226,0.34613 5.49236,1.0799 6.50473,2.52526 0.96666,1.38011 3.80637,2.56672 8.80251,3.67826 4.05651,0.90248 8.18012,2.22925 9.16357,2.94837 2.83757,2.07488 1.10513,6.1545 -5.56202,13.09764 -6.40456,6.66969 -7.04895,8.35039 -3.9448,10.28896 2.97427,1.85746 2.45299,3.77379 -2,7.35231 -2.2,1.76797 -4,3.63691 -4,4.1532 0,0.5163 1.125,1.82364 2.5,2.90522 3.15185,2.47924 3.13499,3.54911 -0.10924,6.93536 -2.78038,2.9021 -2.50905,4.88598 0.66826,4.88598 1.1428,0 1.94098,-0.68351 1.94098,-1.66214 0,-3.9485 5.07366,-10.23725 11.24957,-13.94373 3.43774,-2.06316 7.50118,-4.77795 9.02987,-6.03287 3.82064,-3.13642 8.29099,-3.7395 14.22056,-1.91847 2.75,0.84456 7.3625,1.54043 10.25,1.54639 l 5.25,0.0108 0,3.53212 c 0,1.94266 -0.65112,5.09046 -1.44692,6.99509 -1.3513,3.23411 -1.27699,3.83416 1.12435,9.07938 2.23313,4.87779 2.50893,6.58789 2.09719,13.00363 -0.3886,6.05517 -1.04214,8.30104 -3.62435,12.45495 -4.511,7.25667 -4.4662,7.35775 3.97035,8.9577 6.94348,1.31681 9.52403,3.88414 10.91848,10.86254 3.42251,17.12773 6.20605,26.73433 6.75051,23.2975 0.20189,-1.2744 -0.32518,-6.6744 -1.17127,-12 z m -58.61834,14.37914 c 0,-0.24087 -0.70708,-3.48682 -1.57129,-7.21322 -2.06322,-8.89643 -1.29107,-12.3111 4.17577,-18.46647 2.47801,-2.79011 4.36823,-5.81754 4.2005,-6.72764 -0.16774,-0.9101 -2.32998,-2.64928 -4.80498,-3.86485 -6.04581,-2.96933 -7.1951,-4.09979 -6.47494,-6.36883 1.0398,-3.27613 -0.85831,-2.15502 -7.05636,4.16781 -3.28279,3.34887 -8.5562,8.10017 -11.7187,10.55845 -3.1625,2.45828 -5.75,5.08339 -5.75,5.83359 0,2.07132 6.42363,3.89794 8.95103,2.54532 1.39075,-0.74431 2.6474,-0.77631 3.91183,-0.0996 3.0774,1.64698 8.13714,7.9983 8.13714,10.21429 0,2.18148 5.51658,9.85911 7.08403,9.85911 0.50378,0 0.91597,-0.19708 0.91597,-0.43795 z m -52.79272,46.86063 c -0.51858,-16.00734 -2.4346,-35.01056 -3.84897,-38.17428 -0.91077,-2.03725 -1.34249,-5.58514 -1.15599,-9.5 l 0.29768,-6.2484 4.20775,-0.30543 c 3.26325,-0.23688 4.78996,-0.99735 6.80148,-3.38791 1.42655,-1.69536 2.45806,-4.00016 2.29225,-5.12178 -0.2485,-1.68093 -1.11354,-2.07276 -4.9222,-2.22961 -5.5944,-0.23038 -14.13024,-3.9807 -19.2085,-8.43946 -2.05587,-1.80509 -4.01485,-3.00507 -4.35328,-2.66664 -0.50289,0.50289 15.69991,79.02274 17.22716,83.48399 0.25102,0.73323 1.01054,1.14844 1.68784,0.92267 0.86706,-0.28902 1.15549,-2.75479 0.97478,-8.33315 z"
       inkscape:connector-curvature="0"
       transform="matrix(0.9691043,-0.24665127,0.24665127,0.9691043,-132.48932,102.48645)" />
    <path
       style="fill:url(#linearGradient19959);fill-opacity:1;stroke:none;filter:url(#filter20068)"
       d="m 366.88272,593.04597 c 6.29299,-2.92984 10.74649,-9.17092 11.74983,-16.46606 0.7258,-5.27721 -0.85969,-12.89588 -2.84201,-13.65657 -0.68612,-0.26329 -4.29524,1.10988 -8.02025,3.0515 -5.64394,2.94182 -7.81497,3.5302 -13.02579,3.5302 -5.32151,0 -6.59164,0.36045 -8.52611,2.41959 -1.2502,1.33078 -3.57864,2.96038 -5.17432,3.62132 -4.02126,1.66567 -3.62641,3.37085 1.22152,5.27517 3.77061,1.48114 4.06686,1.85709 3.46853,4.40169 -1.27324,5.41491 -1.12657,5.76443 3.37062,8.03223 5.75241,2.90077 11.23689,2.83628 17.77798,-0.20907 z"
       id="path19318"
       inkscape:connector-curvature="0"
       transform="matrix(0.9691043,-0.24665127,0.24665127,0.9691043,-132.48932,102.48645)" />
    <path
       style="fill:#28170b;fill-opacity:1;stroke:none"
       d="m 300.20703,496.36432 c 36.50623,-22.38507 66.9657,-41.24021 67.68774,-41.9003 0.72202,-0.6601 1.34666,-4.22875 1.38808,-7.93033 0.0891,-7.96609 0.093,-7.94372 -1.31062,-7.58648 -1.53671,0.39111 -144.34751,89.35677 -146.36142,91.17756 -1.5244,1.37822 -1.22587,1.70824 4.08762,4.51885 3.15267,1.66763 6.27247,2.89452 6.93289,2.72644 0.66042,-0.16809 31.06949,-18.62067 67.57571,-41.00574 z"
       id="path19316"
       inkscape:connector-curvature="0" />
    <path
       style="fill:#502d16;fill-opacity:1;stroke:none"
       d="m 273.25954,489.30654 c 33.23452,-20.69332 68.52433,-42.68903 78.42179,-48.87935 l 17.9954,-11.25512 0.29897,-7.42833 c 0.16444,-4.08558 0.15967,-9.00108 -0.0106,-10.92334 -0.27351,-3.08779 -0.50731,-3.37462 -2.00663,-2.46173 -0.93338,0.5683 -42.02171,24.12742 -91.30741,52.35359 -49.28569,28.22617 -89.88521,51.7516 -90.22115,52.27873 -0.57661,0.90476 24.17109,14.5079 25.69028,14.12124 0.39212,-0.0998 27.90484,-17.11236 61.13936,-37.80569 z"
       id="path19314"
       inkscape:connector-curvature="0" />
    <path
       style="fill:#502d16;fill-opacity:1;stroke:none"
       d="m 494.44724,635.32001 c -0.0677,-0.266 -9.76356,-51.13254 -21.54635,-113.03675 -23.43338,-123.11387 -22.17164,-116.7815 -23.21598,-116.5157 -1.54668,0.39366 -15.13679,22.70668 -15.1233,24.83031 0.0206,3.24485 37.11611,199.86662 37.92285,201.00717 1.51756,2.14546 22.46513,5.68871 21.96278,3.71497 z"
       id="path19310"
       inkscape:connector-curvature="0" />
    <path
       style="fill:#28170b;fill-opacity:1;stroke:none"
       d="m 464.08007,627.82768 c -0.23218,-4.75627 -34.92874,-185.80928 -35.69533,-186.26482 -1.18946,-0.70684 -11.43451,14.99848 -11.34445,17.39066 0.0799,2.12124 30.23741,161.40563 31.45134,166.11788 0.57769,2.24138 1.64905,2.87118 6.98643,4.10553 7.65517,1.77038 8.74595,1.59928 8.60201,-1.34925 z"
       id="path19308"
       inkscape:connector-curvature="0" />
    <path
       id="path19869"
       style="fill:#000000;fill-opacity:1;stroke:none"
       d="m 386.55096,446.54032 c -0.27932,-1.09748 -0.87536,-1.61489 -1.32452,-1.14981 -0.44917,0.46507 -0.65673,1.474 -0.46125,2.24205 0.19548,0.76806 0.79152,1.28547 1.32453,1.14981 0.533,-0.13566 0.74056,-1.14458 0.46124,-2.24205 z m -3.83554,6.99878 c -1.13123,-0.97343 -2.32055,-2.8062 -2.64292,-4.07282 -0.75931,-2.98336 0.55512,-9.64434 2.12183,-10.75252 1.81446,-1.28343 6.86353,1.9383 8.47407,5.40718 2.96278,6.38139 -3.11616,13.58026 -7.95298,9.41816 z"
       inkscape:connector-curvature="0" />
  </g>
  <g
     inkscape:groupmode="layer"
     id="layer2"
     inkscape:label="glass"
     style="opacity:0.25;display:inline"
     sodipodi:insensitive="true">
    <path
       id="path19897"
       style="fill:#ffffff;fill-opacity:1;stroke:none"
       d="m 272.07528,601.26139 c -2.76735,-18.11397 -1.36634,-22.19248 8.9276,-25.98937 3.64383,-1.34402 7.55683,-3.74861 10.76795,-6.61706 8.0697,-7.20852 13.43854,-6.13572 25.19847,5.03516 6.02942,5.72741 8.37128,6.87423 10.16996,4.98027 2.42272,-2.55106 1.29468,-4.23208 -3.89009,-5.79707 -6.31036,-1.90476 -7.41359,-3.3842 -5.68419,-7.62255 1.68282,-4.12418 1.4515,-5.1272 -1.34156,-5.81714 -3.52781,-0.87145 -3.73721,-4.62689 -0.50662,-9.08557 l 2.86365,-3.95224 -2.57393,-0.99091 c -1.41566,-0.54499 -2.74623,-1.66787 -2.95681,-2.49526 -0.21059,-0.8274 1.86852,-5.42955 4.62024,-10.22701 6.82529,-11.89949 6.36697,-12.87238 -5.26339,-11.17311 -4.70737,0.68778 -6.74101,0.4442 -9.55871,-1.14488 -2.43844,-1.37521 -4.58914,-1.76149 -6.74805,-1.21201 -5.06886,1.2901 -6.44719,0.75197 -7.37102,-2.87783 -0.50497,-1.98406 -1.31742,-3.16621 -2.04847,-2.98065 -3.16827,0.80431 -48.26983,29.34231 -48.42254,30.63947 -0.13534,1.1496 29.48963,62.44106 33.57641,69.46666 1.92702,3.31274 2.00465,-0.59545 0.2411,-12.1389 z m 44.08196,12.3774 c 3.62399,-3.58016 5.95977,-10.77743 4.87759,-15.02938 -0.82279,-3.23278 -4.97772,-8.32774 -8.70479,-10.67418 -4.35401,-2.74113 -7.82284,-3.49503 -13.46633,-2.92665 -6.32877,0.63737 -9.65492,3.71226 -10.98043,10.15094 l -1.01897,4.94969 4.03206,4.25561 c 2.21763,2.34058 5.17572,6.17264 6.57352,8.51569 1.3978,2.34304 3.66925,4.68689 5.04768,5.20856 3.77572,1.42891 9.61804,-0.47729 13.63967,-4.45028 z m 5.87215,17.62875 c 3.77838,-3.32037 5.68026,-6.78489 3.80267,-6.92703 -0.69302,-0.0525 -3.41776,-0.86399 -6.05497,-1.80338 -5.96751,-2.12566 -8.70792,-0.76574 -7.77546,3.85857 0.34194,1.69585 0.19043,4.33919 -0.33673,5.87412 -0.52715,1.53491 -0.82936,3.29793 -0.67159,3.91781 0.39744,1.5616 7.02007,-1.3909 11.03608,-4.92009 z m 32.23109,0.58364 c -0.0594,-0.23343 -1.54526,-3.20469 -3.30189,-6.6028 -4.19379,-8.11267 -4.28773,-11.6123 -0.50802,-18.9259 1.71326,-3.31511 2.79837,-6.71523 2.41134,-7.55584 -0.38704,-0.84061 -2.91144,-1.99274 -5.6098,-2.56029 -6.59141,-1.38638 -7.98402,-2.19844 -7.84577,-4.57501 0.19961,-3.43138 -1.36333,-1.87673 -5.81035,5.77951 -2.35537,4.0551 -6.29394,9.9603 -8.75239,13.12267 -2.45845,3.16236 -4.31853,6.34458 -4.13349,7.0716 0.5109,2.00732 7.1866,2.19311 9.30229,0.2589 1.1642,-1.06435 2.37413,-1.40531 3.76641,-1.06138 3.38855,0.83705 9.85852,5.74415 10.4051,7.89167 0.53807,2.11408 7.7779,8.19384 9.29693,7.80722 0.48821,-0.12425 0.83906,-0.41691 0.77965,-0.65034 z m 41.29214,24.63224 c 6.1884,-3.42682 11.2864,-6.70887 11.32886,-7.29343 0.0425,-0.58457 -1.79226,-1.14118 -4.07718,-1.23691 -5.12299,-0.21464 -7.69795,-1.65163 -7.68068,-4.28629 0.0142,-2.16247 -5.09335,-4.30754 -12.34676,-5.18543 -5.47162,-0.66223 -6.59645,-1.36615 -6.60563,-4.13384 -0.007,-1.97364 -0.38839,-2.36278 -1.93277,-1.96971 -3.69288,0.93989 -5.19474,-1.27422 -5.77167,-8.50884 -0.2887,-3.62026 -0.0314,-7.51576 0.57181,-8.65666 1.66074,-3.1412 0.94359,-4.18436 -3.97413,-5.78066 -4.98577,-1.61841 -5.41302,-2.25073 -4.10135,-6.06998 0.77901,-2.26827 0.67372,-2.73602 -0.77024,-3.422 -1.3527,-0.64262 -1.9355,-0.0781 -3.04731,2.95168 -0.7561,2.06044 -2.32305,5.47352 -3.48211,7.58461 -1.98208,3.61013 -1.98689,4.16356 -0.0808,9.30749 1.53098,4.13157 16.73252,29.71203 25.59372,43.06791 1.08289,1.63216 3.92439,0.52723 16.37622,-6.36794 z m -20.26471,9.33382 c -0.18108,-0.71148 -3.11262,-5.77402 -6.51454,-11.25006 -5.8425,-9.40465 -6.68447,-10.29736 -15.1924,-16.10782 -8.5235,-5.82111 -8.98754,-6.00476 -8.64295,-3.42056 0.25986,1.94884 2.91278,5.25613 9.26448,11.54967 4.89518,4.85037 11.28544,11.56175 14.20058,14.91417 4.92748,5.66665 7.66569,7.38263 6.88483,4.3146 z m -57.34109,9.85398 c -3.56196,-13.99508 -4.47206,-16.5818 -6.19415,-17.60514 -3.15311,-1.87371 -3.10913,0.6472 0.17056,9.7776 1.58767,4.41996 4.13501,11.7816 5.66075,16.3592 4.62027,13.86197 4.82673,9.0072 0.36284,-8.53166 z m 32.76625,5.08376 c 15.5559,-8.4655 16.29833,-8.99672 15.97231,-11.42848 -0.47045,-3.50908 -4.52883,-8.54701 -16.17859,-20.08356 -10.71158,-10.60748 -10.0394,-9.31067 -11.10946,-21.43292 -0.24728,-2.80137 -0.84639,-3.83437 -2.83294,-4.88465 -2.5063,-1.32507 -2.53708,-1.3027 -5.94969,4.32478 -5.08996,8.39348 -9.78747,11.6721 -20.11184,14.03701 -5.23881,1.20002 -8.48286,2.35779 -8.5328,3.04527 -0.0443,0.61004 0.66222,2.47214 1.57011,4.13799 1.31181,2.40701 2.76211,3.27558 7.06429,4.2307 l 5.4136,1.20186 4.92428,17.32055 c 5.53622,19.47298 6.91133,21.94071 10.99773,19.73613 1.35232,-0.72958 9.80018,-5.32168 18.773,-10.20468 z m -36.05601,9.53043 c -4.45078,-15.38487 -10.99478,-33.32839 -13.14578,-36.04551 -1.38512,-1.74966 -2.6786,-5.08145 -3.46346,-8.92136 l -1.2527,-6.12878 4.00242,-1.33384 c 3.104,-1.03444 4.39597,-2.14798 5.75571,-4.96083 0.96431,-1.99484 1.39547,-4.48285 0.95813,-5.52892 -0.65542,-1.56771 -1.59038,-1.73407 -5.32006,-0.94666 -5.47838,1.1566 -14.67552,-0.37247 -20.69664,-3.44092 -2.43758,-1.24223 -4.63201,-1.92196 -4.87651,-1.51051 -0.36332,0.61139 34.70591,72.70888 37.28634,76.6556 0.42412,0.64866 1.26259,0.8637 1.86327,0.47785 0.76899,-0.49395 0.44032,-2.95468 -1.11072,-8.31612 z"
       inkscape:connector-curvature="0" />
    <path
       style="display:inline;fill:#ffffff;fill-opacity:1;stroke:none"
       d="m 440.54022,622.17788 c -1.03408,-4.06295 -2.95088,-4.6036 -6.32467,-1.78395 -3.04564,2.54539 -2.75761,3.51874 1.39588,4.71719 5.03153,1.45179 5.91155,0.92807 4.92879,-2.93324 z"
       id="path19306"
       inkscape:connector-curvature="0" />
    <path
       style="display:inline;fill:#ffffff;fill-opacity:1;stroke:none"
       d="m 434.98699,593.10358 c -0.17435,-1.33069 -5.40196,-29.45037 -11.6169,-62.48817 -10.36447,-55.09621 -11.45519,-60.13713 -13.17602,-60.89499 -2.7902,-1.22882 -3.78869,-0.0562 -3.18616,3.74197 0.32055,2.02066 -0.19492,4.54768 -1.27332,6.24232 l -1.81191,2.84728 2.66211,2.25503 c 1.46416,1.24026 2.77706,2.70666 2.91756,3.25867 0.14049,0.55201 -1.71505,3.27432 -4.12341,6.04958 -2.40838,2.77526 -4.29629,5.39198 -4.19536,5.81492 0.10045,0.42306 1.44348,1.79822 2.98346,3.05617 2.71817,2.22035 2.76913,2.37699 1.74428,5.36108 -1.0423,3.03488 -1.0173,3.08928 1.9678,4.28275 1.66294,0.66486 3.17122,1.78919 3.35176,2.49853 0.18054,0.70933 -1.51076,3.18633 -3.75844,5.50444 -2.24768,2.3181 -3.94229,4.78211 -3.76579,5.47557 0.1765,0.69347 2.79394,2.69923 5.81654,4.45726 6.73841,3.91924 7.13784,5.88706 2.18465,10.76256 -2.04228,2.01022 -3.57585,4.19469 -3.40796,4.85435 0.16789,0.65966 2.77959,1.82173 5.80376,2.58237 3.02419,0.76064 5.8616,2.15653 6.30537,3.10197 0.50452,1.07486 -0.35428,3.71536 -2.29188,7.0467 l -3.09875,5.3277 3.46699,3.72752 c 2.72629,2.93117 3.27886,4.04408 2.58643,5.20931 -1.19651,2.01351 -0.3848,4.72325 1.48066,4.94286 0.83933,0.0988 2.23723,0.95757 3.10646,1.90833 1.35038,1.47709 1.21196,2.36987 -0.95102,6.13398 -1.39229,2.4229 -2.44254,4.75451 -2.33391,5.18133 0.31123,1.22284 10.91409,5.45816 11.97601,4.78383 0.5247,-0.33318 0.81135,-1.69452 0.63699,-3.02522 z"
       id="path19304"
       inkscape:connector-curvature="0" />
    <path
       style="display:inline;fill:#ffffff;fill-opacity:1;stroke:none"
       d="m 386.55096,446.54032 c -0.27932,-1.09748 -0.87536,-1.61489 -1.32452,-1.14981 -0.44917,0.46507 -0.65673,1.474 -0.46125,2.24205 0.19548,0.76806 0.79152,1.28547 1.32453,1.14981 0.533,-0.13566 0.74056,-1.14458 0.46124,-2.24205 z"
       id="path19300"
       inkscape:connector-curvature="0" />
    <path
       style="display:inline;fill:#ffffff;fill-opacity:1;stroke:none"
       d="m 411.60169,413.74314 c 2.75799,-6.30007 2.67821,-7.24564 -0.76111,-9.02191 -2.01138,-1.0388 -2.57604,-1.01054 -2.67463,0.13385 -0.25124,2.91664 -2.90666,6.02817 -5.76545,6.75578 -2.27128,0.57807 -3.0032,1.37346 -3.25062,3.53255 -0.47804,4.17154 1.91067,5.37781 8.48083,4.28269 0.87993,-0.14667 2.66687,-2.704 3.97098,-5.68296 z"
       id="path19294"
       inkscape:connector-curvature="0" />
  </g>
</svg>
