<?xml version="1.0" encoding="UTF-8" standalone="no"?>
<!-- Created with Inkscape (http://www.inkscape.org/) -->

<svg
   xmlns:dc="http://purl.org/dc/elements/1.1/"
   xmlns:cc="http://creativecommons.org/ns#"
   xmlns:rdf="http://www.w3.org/1999/02/22-rdf-syntax-ns#"
   xmlns:svg="http://www.w3.org/2000/svg"
   xmlns="http://www.w3.org/2000/svg"
   xmlns:xlink="http://www.w3.org/1999/xlink"
   xmlns:sodipodi="http://sodipodi.sourceforge.net/DTD/sodipodi-0.dtd"
   xmlns:inkscape="http://www.inkscape.org/namespaces/inkscape"
   width="744.09448819"
   height="1052.3622047"
   id="svg2"
   version="1.1"
   inkscape:version="0.48.4 r9939"
   sodipodi:docname="study.svg"
   inkscape:export-filename="C:\Users\garysoed\Google Drive\Happy My Life\Artwork\exports\study2.png"
   inkscape:export-xdpi="150"
   inkscape:export-ydpi="150">
  <defs
     id="defs4">
    <linearGradient
       id="linearGradient3823">
      <stop
         id="stop3825"
         offset="0"
         style="stop-color:#143c78;stop-opacity:1;" />
      <stop
         id="stop3827"
         offset="1"
         style="stop-color:#0e2b56;stop-opacity:1;" />
    </linearGradient>
    <linearGradient
       id="linearGradient3895">
      <stop
         style="stop-color:#ffffff;stop-opacity:1;"
         offset="0"
         id="stop3897" />
      <stop
         style="stop-color:#e6e6e6;stop-opacity:1;"
         offset="1"
         id="stop3899" />
    </linearGradient>
    <linearGradient
       id="linearGradient3887">
      <stop
         style="stop-color:#ffdd55;stop-opacity:1;"
         offset="0"
         id="stop3889" />
      <stop
         style="stop-color:#ffd52c;stop-opacity:1;"
         offset="1"
         id="stop3891" />
    </linearGradient>
    <linearGradient
       id="linearGradient3879">
      <stop
         style="stop-color:#afc6e9;stop-opacity:1;"
         offset="0"
         id="stop3881" />
      <stop
         style="stop-color:#769dd9;stop-opacity:1;"
         offset="1"
         id="stop3883" />
    </linearGradient>
    <linearGradient
       id="linearGradient3871">
      <stop
         style="stop-color:#916f6f;stop-opacity:1;"
         offset="0"
         id="stop3873" />
      <stop
         style="stop-color:#735858;stop-opacity:1;"
         offset="1"
         id="stop3875" />
    </linearGradient>
    <linearGradient
       id="linearGradient3863">
      <stop
         style="stop-color:#c8b7b7;stop-opacity:1;"
         offset="0"
         id="stop3865" />
      <stop
         style="stop-color:#ad9494;stop-opacity:1;"
         offset="1"
         id="stop3867" />
    </linearGradient>
    <linearGradient
       id="linearGradient3855">
      <stop
         style="stop-color:#ffaaaa;stop-opacity:1;"
         offset="0"
         id="stop3857" />
      <stop
         style="stop-color:#ff7a7a;stop-opacity:1;"
         offset="1"
         id="stop3859" />
    </linearGradient>
    <linearGradient
       id="linearGradient3835">
      <stop
         style="stop-color:#aaffaa;stop-opacity:1;"
         offset="0"
         id="stop3837" />
      <stop
         style="stop-color:#6cff6c;stop-opacity:1;"
         offset="1"
         id="stop3839" />
    </linearGradient>
    <linearGradient
       id="linearGradient3824">
      <stop
         style="stop-color:#f4e3d7;stop-opacity:1;"
         offset="0"
         id="stop3826" />
      <stop
         style="stop-color:#ebcdb7;stop-opacity:1;"
         offset="1"
         id="stop3828" />
    </linearGradient>
    <linearGradient
       id="linearGradient3816">
      <stop
         style="stop-color:#ff6600;stop-opacity:1;"
         offset="0"
         id="stop3818" />
      <stop
         style="stop-color:#dd5800;stop-opacity:1;"
         offset="1"
         id="stop3820" />
    </linearGradient>
    <linearGradient
       id="linearGradient3808">
      <stop
         style="stop-color:#ffb380;stop-opacity:1;"
         offset="0"
         id="stop3810" />
      <stop
         style="stop-color:#ff9650;stop-opacity:1;"
         offset="1"
         id="stop3812" />
    </linearGradient>
    <linearGradient
       inkscape:collect="always"
       xlink:href="#linearGradient3808"
       id="linearGradient3814"
       x1="330.09818"
       y1="128.15495"
       x2="321.43567"
       y2="373.62201"
       gradientUnits="userSpaceOnUse" />
    <linearGradient
       inkscape:collect="always"
       xlink:href="#linearGradient3816"
       id="linearGradient3822"
       x1="350.9133"
       y1="137.40143"
       x2="346.63489"
       y2="216.19333"
       gradientUnits="userSpaceOnUse" />
    <linearGradient
       inkscape:collect="always"
       xlink:href="#linearGradient3824"
       id="linearGradient3830"
       x1="321.84555"
       y1="473.26144"
       x2="296.00876"
       y2="423.76398"
       gradientUnits="userSpaceOnUse" />
    <linearGradient
       inkscape:collect="always"
       xlink:href="#linearGradient3824"
       id="linearGradient3832"
       x1="395.78094"
       y1="248.47031"
       x2="291.21667"
       y2="267.66321"
       gradientUnits="userSpaceOnUse" />
    <linearGradient
       inkscape:collect="always"
       xlink:href="#linearGradient3887"
       id="linearGradient3841"
       x1="306.70895"
       y1="327.04691"
       x2="276.86078"
       y2="332.09766"
       gradientUnits="userSpaceOnUse" />
    <linearGradient
       inkscape:collect="always"
       xlink:href="#linearGradient3855"
       id="linearGradient3861"
       x1="297.17151"
       y1="387.62537"
       x2="253.92168"
       y2="420.96042"
       gradientUnits="userSpaceOnUse" />
    <linearGradient
       inkscape:collect="always"
       xlink:href="#linearGradient3863"
       id="linearGradient3869"
       x1="279.23776"
       y1="436.0192"
       x2="276.98917"
       y2="454.20193"
       gradientUnits="userSpaceOnUse" />
    <linearGradient
       inkscape:collect="always"
       xlink:href="#linearGradient3871"
       id="linearGradient3877"
       x1="266.13235"
       y1="506.9726"
       x2="264.97681"
       y2="466.5665"
       gradientUnits="userSpaceOnUse" />
    <linearGradient
       inkscape:collect="always"
       xlink:href="#linearGradient3879"
       id="linearGradient3885"
       x1="446.25717"
       y1="372.70416"
       x2="445.63217"
       y2="495.94275"
       gradientUnits="userSpaceOnUse" />
    <linearGradient
       inkscape:collect="always"
       xlink:href="#linearGradient3823"
       id="linearGradient3893"
       x1="464.49564"
       y1="263.49722"
       x2="454.05365"
       y2="348.35004"
       gradientUnits="userSpaceOnUse" />
    <linearGradient
       inkscape:collect="always"
       xlink:href="#linearGradient3895"
       id="linearGradient3901"
       x1="479.79999"
       y1="210.69081"
       x2="484.27948"
       y2="248.06645"
       gradientUnits="userSpaceOnUse" />
    <filter
       inkscape:collect="always"
       id="filter3929"
       x="-0.155007"
       width="1.310014"
       y="-0.1063879"
       height="1.2127758">
      <feGaussianBlur
         inkscape:collect="always"
         stdDeviation="7.7823486"
         id="feGaussianBlur3931" />
    </filter>
    <linearGradient
       gradientTransform="matrix(0.27518314,0,0,-0.27518314,410.05211,465.46311)"
       inkscape:collect="always"
       xlink:href="#linearGradient4055"
       id="linearGradient4061"
       x1="188.24297"
       y1="543.85138"
       x2="169.41953"
       y2="655.27997"
       gradientUnits="userSpaceOnUse" />
    <linearGradient
       id="linearGradient4055">
      <stop
         style="stop-color:#505024;stop-opacity:1;"
         offset="0"
         id="stop4057" />
      <stop
         style="stop-color:#9c9c24;stop-opacity:1;"
         offset="1"
         id="stop4059" />
    </linearGradient>
    <linearGradient
       inkscape:collect="always"
       xlink:href="#linearGradient4055"
       id="linearGradient4109"
       gradientUnits="userSpaceOnUse"
       x1="188.24297"
       y1="543.85138"
       x2="169.41953"
       y2="655.27997" />
    <linearGradient
       id="linearGradient3071">
      <stop
         style="stop-color:#24249c;stop-opacity:1;"
         offset="0"
         id="stop3073" />
      <stop
         style="stop-color:#242450;stop-opacity:1;"
         offset="1"
         id="stop3075" />
    </linearGradient>
    <filter
       color-interpolation-filters="sRGB"
       inkscape:collect="always"
       id="filter4111"
       x="-0.11814245"
       width="1.2362849"
       y="-0.1219169"
       height="1.2438338">
      <feGaussianBlur
         inkscape:collect="always"
         stdDeviation="7.259645"
         id="feGaussianBlur4113" />
    </filter>
    <linearGradient
       gradientTransform="translate(435.69854,-308.00747)"
       y2="655.27997"
       x2="169.41953"
       y1="543.85138"
       x1="188.24297"
       gradientUnits="userSpaceOnUse"
       id="linearGradient3082"
       xlink:href="#linearGradient4055"
       inkscape:collect="always" />
  </defs>
  <sodipodi:namedview
     id="base"
     pagecolor="#ffffff"
     bordercolor="#666666"
     borderopacity="1.0"
     inkscape:pageopacity="0.0"
     inkscape:pageshadow="2"
     inkscape:zoom="0.98994949"
     inkscape:cx="668.79321"
     inkscape:cy="732.94018"
     inkscape:document-units="px"
     inkscape:current-layer="layer1"
     showgrid="false"
     inkscape:window-width="1280"
     inkscape:window-height="738"
     inkscape:window-x="-8"
     inkscape:window-y="-8"
     inkscape:window-maximized="1" />
  <metadata
     id="metadata7">
    <rdf:RDF>
      <cc:Work
         rdf:about="">
        <dc:format>image/svg+xml</dc:format>
        <dc:type
           rdf:resource="http://purl.org/dc/dcmitype/StillImage" />
        <dc:title></dc:title>
      </cc:Work>
    </rdf:RDF>
  </metadata>
  <g
     inkscape:label="Layer 1"
     inkscape:groupmode="layer"
     id="layer1">
    <path
       id="path3022"
       style="fill:#000000;fill-opacity:1;stroke:none;stroke-opacity:1"
       d="m 234.74522,364.33205 c 4.75497,-4.19183 6.02337,-6.05231 7.83243,-11.48856 1.18725,-3.56769 1.97505,-7.0375 1.75065,-7.71068 -0.22439,-0.67317 -3.56544,3.49054 -7.42455,9.25271 -11.31098,16.88881 -11.61321,18.2815 -2.15853,9.94653 z m 24.84677,147.9141 c -3.33301,-1.32983 -6.02196,-3.85544 -7.32917,-6.88396 -0.59349,-1.375 -1.32935,-10.375 -1.63523,-20 l -0.55616,-17.5 -10.31061,-0.5 c -9.5311,-0.4622 -10.45238,-0.68829 -12.1857,-2.99049 -2.70233,-3.58921 -5.17523,-13.27252 -5.74843,-22.50951 -0.62418,-10.0584 0.821,-12.41613 8.11446,-13.2382 4.33009,-0.48807 4.72469,-0.74299 4.10342,-2.6509 -1.29715,-3.98348 -1.66373,-22.11351 -0.59872,-29.6109 1.21225,-8.53397 0.4161,-10 -5.43069,-10 -1.74571,0 -4.39564,-0.96093 -5.88875,-2.13541 l -2.71473,-2.13541 -2.86375,3.13541 c -1.57507,1.72448 -3.56413,3.13541 -4.42013,3.13541 -2.67069,0 -5.55758,-3.77892 -5.5386,-7.25 0.0201,-3.68051 1.49892,-18.34426 2.57084,-25.49231 0.64273,-4.28607 0.55552,-4.6222 -0.88838,-3.42387 -4.44105,3.68575 -13.48295,24.25774 -17.66066,40.18126 -2.81174,10.71707 -3.95997,12.93377 -6.71814,12.96961 -2.87963,0.0374 -4.0478,-3.17551 -5.16647,-14.20976 -1.61085,-15.88888 -1.45862,-21.47068 0.90139,-33.05146 2.36012,-11.5813 6.52988,-22.93408 13.67179,-37.22347 6.01455,-12.03377 13.24281,-28.57262 17.31764,-39.62417 4.52242,-12.26546 7.22185,-22.58889 14.38778,-55.02314 3.60261,-16.30602 7.94515,-33.63102 9.6501,-38.5 9.98784,-28.52321 27.8867,-49.4088 52.1722,-60.87799 12.74595,-6.01947 18.07047,-6.98205 38.24414,-6.91386 24.406,0.0825 44.79353,3.70878 49.73006,8.84537 1.24847,1.29907 4.06994,2.925 6.26994,3.61319 9.3918,2.93787 16.32219,7.95491 21.61464,15.64723 1.81781,2.64209 4.84445,5.30124 7.69132,6.75745 7.34449,3.75679 13.01393,10.07612 17.56272,19.57592 3.53825,7.38938 4.12047,9.58644 4.45597,16.81499 0.35807,7.71492 0.15732,8.77933 -2.78177,14.74947 -1.97027,4.00219 -6.11532,9.55328 -10.96544,14.68502 -4.28876,4.53779 -8.70889,10.05052 -9.82251,12.25052 -1.11361,2.2 -6.83484,16.15 -12.71382,31 -5.87899,14.85 -11.36808,28.0536 -12.19799,29.34133 -2.22043,3.44537 -12.50899,7.84767 -24.92002,10.66287 -15.55095,3.52742 -31.54954,3.4989 -43.88833,-0.0782 -11.40542,-3.30655 -20.79666,-8.0659 -28.39774,-14.39159 -3.32718,-2.76894 -6.51913,-5.03441 -7.09322,-5.03441 -0.64342,0 -1.04381,3.26873 -1.04381,8.52144 0,7.88978 0.16678,8.59164 2.25,9.46847 1.2375,0.52088 6.525,2.57776 11.75,4.57086 16.72793,6.38094 17.57043,7.10409 20.50717,17.60223 0.87129,3.11466 2.87483,7.44472 4.45231,9.62236 2.74754,3.79288 3.19761,4.00447 10.70433,5.03249 4.3099,0.59022 11.63805,1.37741 16.28477,1.7493 7.45508,0.59666 8.77801,1.0056 11.25,3.47759 3.56244,3.56243 3.79023,8.70208 0.55142,12.44152 -1.24928,1.4424 -5.36334,3.74785 -9.25,5.18356 -8.47748,3.13154 -24.59206,4.29921 -33.08913,2.39765 -7.7294,-1.72977 -17.43587,-5.7194 -18.94884,-7.78851 -2.12801,-2.91023 -2.87369,-0.71828 -3.29112,9.67432 -0.47472,11.81936 -2.6438,9.80227 22.17757,20.62359 18.10129,7.89157 20.02416,9.28215 18.88084,13.65421 -0.25971,0.99312 -1.88005,2.7875 -3.60076,3.98751 -1.72071,1.20001 -5.51962,3.92704 -8.44203,6.06006 l -5.31348,3.87822 4.4447,4.75174 c 3.68183,3.93618 4.71655,5.94699 6.02861,11.71572 5.40331,23.75653 9.21437,62.5909 6.61846,67.44141 -1.76988,3.30705 -7.92828,2.61217 -11.6609,-1.31574 -6.94094,-7.30409 -13.014,-22.18527 -15.85435,-38.84883 -1.61788,-9.49163 -3.44425,-13.90117 -5.75769,-13.90117 -0.87883,0 -1.25137,1.81027 -1.22695,5.96201 0.045,7.64856 -1.10064,8.77326 -11.09288,10.89028 l -7.87205,1.66782 0,23.95764 0,23.95765 -2.5,1.26756 c -2.93749,1.48937 -13.42013,1.60112 -16.97944,0.181 z" />
    <path
       style="fill:url(#linearGradient3877);fill-opacity:1;stroke:none;stroke-opacity:1"
       d="m 270.02143,500.11219 c -0.0275,-2.0625 -0.14,-10.74966 -0.25,-19.30479 l -0.2,-15.55479 -4.75,0.30479 -4.75,0.30479 0,17.59871 c 0,19.99078 0.37713,21.20793 6.41441,20.70185 3.43364,-0.28782 3.58347,-0.45947 3.53559,-4.05056 z"
       id="path3034" />
    <path
       style="fill:url(#linearGradient3830);fill-opacity:1;stroke:none;stroke-opacity:1"
       d="m 324.09414,479.55183 c -0.26489,-2.0293 -1.20291,-9.76464 -2.08449,-17.18964 -1.81568,-15.29238 -4.87717,-31.41893 -6.59128,-34.71996 -0.63401,-1.22098 -2.83867,-3.38831 -4.89924,-4.81628 l -3.74649,-2.59632 -6.10061,3.81344 c -3.35533,2.09739 -6.1006,4.31325 -6.1006,4.92414 0,0.61089 2.66504,2.75567 5.92232,4.76617 8.01198,4.94528 10.7097,8.40263 11.99204,15.36881 0.58317,3.168 1.91833,9.81 2.96702,14.76 2.97415,14.03847 10.11919,27.01138 8.64133,15.68964 z"
       id="path3032" />
    <path
       style="fill:url(#linearGradient3869);fill-opacity:1;stroke:none;stroke-opacity:1"
       d="m 258.07756,456.86672 c 14.57884,-1.67788 28.35036,-4.31641 30.2632,-5.79821 1.48604,-1.15117 0.68018,-7.47835 -1.20921,-9.49407 -2.06621,-2.20436 -54.16279,-4.94243 -56.15424,-2.95133 -0.9212,0.92104 1.16577,15.07019 2.62498,17.79674 1.30731,2.44273 6.33586,2.53454 24.47527,0.44687 z"
       id="path3030" />
    <path
       style="fill:url(#linearGradient3861);fill-opacity:1;stroke:none;stroke-opacity:1"
       d="m 284.44227,426.37821 c 1.69628,-3.01812 5.77104,-6.26606 18.15811,-14.47363 8.78408,-5.82024 15.97105,-11.15737 15.97105,-11.86027 0,-1.36287 -28.13293,-14.79248 -31.5,-15.03692 -1.64168,-0.11919 -2.05814,0.56917 -2.32451,3.84212 -0.66618,8.1853 -4.47503,8.6237 -11.82861,1.36146 l -5.21601,-5.15122 -11.75069,1.40122 -11.75069,1.40122 -0.85397,3 c -0.46968,1.65 -1.1247,8.8668 -1.45561,16.03734 -0.54516,11.81345 -0.40594,13.47975 1.483,17.75 l 2.08463,4.71266 10.30623,0.12421 c 5.66843,0.0683 13.45623,0.41591 17.30623,0.77243 3.85,0.35652 7.49135,0.50478 8.09189,0.32947 0.60054,-0.17531 2.07607,-2.06985 3.27895,-4.21009 z"
       id="path3028" />
    <path
       id="path3020"
       style="fill:url(#linearGradient3841);fill-opacity:1.0;stroke:none;stroke-opacity:1"
       d="m 340.96609,354.32201 c 3.63294,-1.1221 6.60534,-2.44453 6.60534,-2.93873 0,-0.4942 -1.9125,-1.11841 -4.25,-1.38714 -16.3825,-1.8834 -26.0891,-3.62612 -28.31304,-5.0833 -3.49269,-2.2885 -8.13284,-9.85516 -10.13662,-16.52971 -0.91159,-3.03652 -2.36459,-6.27583 -3.22889,-7.19847 -1.70763,-1.82291 -17.98368,-8.82247 -20.51484,-8.82247 -1.97411,0 -1.98272,3.19308 -0.0566,21 0.80313,7.425 1.46919,14.0625 1.48012,14.75 0.0109,0.6875 0.43798,1.25 0.94898,1.25 0.51101,0 1.45663,-2.54108 2.10138,-5.64684 1.10717,-5.33324 4.44554,-10.35316 6.8851,-10.35316 2.05717,0 4.8382,4.23265 6.59638,10.03954 0.99656,3.29141 2.4795,6.5415 3.29541,7.22242 0.81592,0.68092 4.45554,2.22948 8.08805,3.44124 8.88955,2.96543 21.38862,3.0706 30.49923,0.25662 z m -81.09232,22.13784 c 0.59113,-0.59113 -0.36231,-4.05243 -2.55365,-9.2705 -1.92335,-4.57994 -3.77546,-9.14318 -4.11578,-10.14054 -0.80557,-2.36078 -2.23188,-1.42059 -3.10156,2.04449 -0.39449,1.57178 -3.92894,5.80508 -8.24944,9.88058 -4.84992,4.5749 -7.28884,7.56807 -6.80482,8.35123 0.89941,1.45529 23.28493,0.67506 24.82525,-0.86526 z" />
    <path
       style="fill:url(#linearGradient3832);fill-opacity:1;stroke:none;stroke-opacity:1"
       d="m 356.33297,295.26741 c 5.41072,-1.15212 12.23599,-3.28962 15.16727,-4.75 l 5.3296,-2.65522 9.50045,-23.78701 c 5.22525,-13.08285 9.23652,-24.05094 8.91394,-24.37352 -0.32258,-0.32258 -4.54343,1.43843 -9.37966,3.91337 -4.83622,2.47493 -10.56428,5.06802 -12.729,5.76241 -2.16473,0.69439 -6.58604,3.21348 -9.82514,5.59797 -7.23247,5.32424 -17.02725,10.23474 -22.03616,11.04758 -4.14334,0.67237 -7.70284,-1.50983 -7.70284,-4.72234 0,-0.96335 4.51203,-7.16213 10.02674,-13.77504 10.90161,-13.07259 28.97326,-38.56183 28.97326,-40.86548 0,-1.0174 -0.65223,-1.23872 -2.25,-0.76349 -4.79025,1.42478 -26.9659,13.53938 -39.90798,21.80181 -7.46387,4.76506 -14.3838,8.66374 -15.37761,8.66374 -5.89357,0 -6.94,-7.06239 -2.86117,-19.31001 1.43179,-4.29926 2.36089,-8.05919 2.06467,-8.35541 -0.74827,-0.74828 -3.63239,1.3962 -11.98254,8.90958 -9.85351,8.86608 -14.9022,17.84009 -18.18921,32.33119 -2.60972,11.50517 -3.07718,17.77421 -1.61135,21.60955 1.33358,3.48933 10.19257,11.86859 16.72054,15.8151 3.18417,1.925 10.08808,4.95435 15.34202,6.7319 8.49606,2.87443 10.79273,3.2339 20.76457,3.25 7.64466,0.0123 14.34197,-0.64839 21.0496,-2.07668 z"
       id="path3018" />
    <path
       id="path3016"
       style="fill:url(#linearGradient3814);fill-opacity:1;stroke:none;stroke-opacity:1"
       d="m 363.26951,243.4678 c 3.19106,-2.69192 8.93985,-8.09192 12.7751,-12 4.46678,-4.55161 7.76587,-7.10561 9.17857,-7.10561 2.23431,0 5.34825,2.37053 5.34825,4.07143 0,3.49752 13.68962,-5.77074 22.60183,-15.30208 8.48281,-9.07212 10.72765,-14.02806 10.22018,-22.56308 -1.00818,-16.95626 -12.11711,-28.82954 -30.64834,-32.75711 -8.49001,-1.79939 -14.31896,-1.79667 -26.17367,0.0122 -19.82204,3.02462 -41.1774,13.23523 -55.33732,26.45837 -5.37704,5.0213 -7.17492,7.95424 -8.50516,13.87472 -1.54864,6.89248 -0.16156,6.84536 9.33498,-0.31711 10.78587,-8.1349 12.95173,-9.07154 16.14248,-6.98088 1.30076,0.8523 2.36502,2.38286 2.36502,3.40125 0,1.0184 -2.25,7.09534 -5,13.50431 -4.61613,10.75808 -5.7969,14.59798 -4.48887,14.59798 0.28111,0 6.24361,-3.45712 13.25,-7.68249 18.50992,-11.16286 40.90197,-21.31751 47.00732,-21.31751 4.85212,0 5.51938,5.52507 1.6011,13.25743 -2.97605,5.87295 -16.49093,26.36211 -23.03138,34.91661 -2.386,3.12073 -4.33817,5.93323 -4.33817,6.25 0,1.50203 2.38318,0.16512 7.69808,-4.31843 z m -87.69808,130.51653 c 0,-2.40782 -1.38065,-18.94532 -3.0681,-36.75 -2.37287,-25.03665 -2.948,-35.31793 -2.53809,-45.37214 1.77266,-43.47946 2.38256,-55.32914 2.89003,-56.15024 0.31274,-0.50603 1.29937,-8.77924 2.19251,-18.38491 2.81303,-30.25406 6.27372,-40.14066 18.71333,-53.46088 11.16703,-11.95755 27.50824,-22.20529 45.31032,-28.41458 13.07998,-4.56224 12.34475,-4.15419 9.5,-5.27242 -1.375,-0.54049 -9.475,-1.22716 -18,-1.52594 -11.90951,-0.41738 -17.4564,-0.17073 -23.9457,1.06479 -23.56227,4.48611 -45.31786,22.28772 -57.95466,47.42167 -5.15978,10.26254 -8.59832,22.07102 -15.56441,53.4506 -9.92066,44.68873 -14.35523,57.94864 -31.02614,92.77191 -8.94529,18.68548 -11.67439,25.90123 -14.02804,37.09008 -1.75216,8.32947 -1.78415,8.90992 -0.49109,8.90992 0.54448,0 3.06741,-4.13643 5.6065,-9.19207 4.36114,-8.68355 14.02379,-23.88146 22.60729,-35.55793 4.66424,-6.34494 6.79625,-6.81342 6.79625,-1.4934 0,2.06613 0.4124,5.19457 0.91645,6.95209 0.71515,2.49357 0.39555,4.69335 -1.45496,10.0145 -2.87361,8.26305 -5.80271,24.33559 -4.64582,25.49248 0.4599,0.4599 5.19271,-5.70274 10.51736,-13.69474 10.58423,-15.88632 15.51119,-21.87189 19.85085,-24.11602 5.65974,-2.92676 8.66284,1.06315 11.26563,14.96749 0.91347,4.87982 2.99398,12.52527 4.62336,16.98988 2.99481,8.20598 9.11657,18.63772 10.93734,18.63772 0.54439,0 0.98979,-1.97004 0.98979,-4.37786 z" />
    <path
       style="fill:url(#linearGradient3822);fill-opacity:1;stroke:none;stroke-opacity:1"
       d="m 288.61424,218.30813 c 2.49328,-3.14801 3.28597,-5.2153 3.54689,-9.25 0.63141,-9.76386 2.61284,-17.62345 5.76904,-22.88373 8.33295,-13.88809 38.394,-31.72662 61.14126,-36.28184 4.4,-0.88111 13.175,-1.93546 19.5,-2.34299 l 11.5,-0.74096 -3.5,-2.24427 c -15.09173,-9.6771 -41.42609,-5.76098 -66.97019,9.95899 -9.3747,5.76924 -21.45423,16.74471 -26.0267,23.64788 -5.12961,7.7443 -8.41303,21.03083 -9.25257,37.44098 -0.18993,3.7125 -0.0243,6.75 0.36804,6.75 0.39235,0 2.15825,-1.82433 3.92423,-4.05406 z"
       id="path3014" />
    <path
       style="fill:#000000;fill-opacity:1;stroke:none;stroke-opacity:1"
       d="m 445.07143,507.68381 c -20.1249,-1.00693 -31.93144,-2.40209 -33.67412,-3.9792 -2.44863,-2.21598 -2.37386,-2.57504 1.72392,-8.27886 6.89042,-9.59096 14.94582,-12.8694 37.02591,-15.06903 6.09164,-0.60685 13.96664,-0.96638 17.5,-0.79895 l 6.42429,0.30442 -0.11975,-3 c -0.0659,-1.65 -0.65914,-12 -1.31838,-23 -0.65925,-11 -1.50536,-28.1 -1.88025,-38 l -0.68162,-18 -2.5,0.0682 c -1.375,0.0375 -9.45185,0.64355 -17.94856,1.34668 -20.59536,1.70433 -70.05582,2.9436 -72.3861,1.81369 -3.13854,-1.52183 -4.9376,-7.61859 -5.379,-18.22862 -0.49005,-11.77944 0.99693,-15.91524 6.73096,-18.72118 6.41168,-3.13755 110.31993,-4.30509 117.24133,-1.31736 2.66874,1.152 2.39032,-1.88202 5.28016,57.53854 0.3076,6.325 0.95656,22.89234 1.44213,36.8163 0.87714,25.15285 0.89975,25.33847 3.50215,28.75039 4.28892,5.62307 5.84364,10.23034 4.52582,13.41185 -1.46021,3.52525 -7.00164,6.56924 -14.44255,7.93353 -5.28909,0.96975 -35.09289,1.20878 -51.06634,0.40955 z"
       id="path3012" />
    <path
       style="fill:url(#linearGradient3885);fill-opacity:1;stroke:none;stroke-opacity:1"
       d="m 494.6498,498.34733 c 2.94325,-0.55818 5.74636,-1.40987 6.22913,-1.89264 1.09731,-1.09731 -0.92774,-5.08683 -2.59268,-5.10781 -3.57813,-0.0451 -3.84772,-1.4352 -4.18632,-21.58608 -0.18391,-10.94424 -1.09801,-37.44861 -2.03135,-58.89861 -1.46611,-33.69438 -1.92145,-39.18358 -3.34706,-40.34947 -1.34475,-1.09977 -7.664,-1.23623 -34.15009,-0.73749 -58.14711,1.09493 -70.96496,1.69478 -72.67102,3.40084 -2.0806,2.0806 -1.53462,16.76886 0.68035,18.30324 2.6822,1.85803 67.51621,-0.12296 87.04691,-2.65971 3.62392,-0.47069 5.04941,-0.19244 6.96636,1.3598 2.39995,1.94337 2.41341,2.06489 3.19319,28.81719 0.43069,14.77608 1.49696,34.9656 2.36949,44.8656 0.87253,9.9 1.66028,19.125 1.75057,20.5 0.12912,1.96654 -0.36931,2.57141 -2.33585,2.83468 -1.375,0.18407 -2.91519,0.73426 -3.42265,1.22265 -0.50746,0.48838 -4.14154,0.61588 -8.07574,0.28332 -8.44329,-0.71372 -28.60585,1.12254 -36.73456,3.34553 -5.46273,1.4939 -8.74104,3.67316 -7.45711,4.9571 1.86031,1.8603 60.04778,2.9957 68.76843,1.34186 z"
       id="path3010" />
    <path
       style="fill:#000000;fill-opacity:1;stroke:none;stroke-opacity:1"
       d="m 400.40744,353.30501 c -1.46519,-0.57868 -2.91332,-1.70191 -3.21807,-2.49607 -0.61592,-1.60507 2.22058,-10.09308 8.17825,-24.47281 2.17072,-5.23934 6.52306,-18.73934 9.67188,-30 9.10842,-32.57315 9.42814,-33.57003 11.31369,-35.27644 0.98571,-0.89205 5.15056,-2.39405 9.25522,-3.33777 4.10466,-0.94372 8.03609,-2.22486 8.7365,-2.84699 0.70042,-0.62212 2.80299,-8.3045 4.67239,-17.07194 4.17543,-19.58274 11.30311,-51.87565 12.34724,-55.9408 0.59639,-2.32195 1.41283,-3.07421 3.61232,-3.32835 2.52918,-0.29223 5.46741,2.28897 26.71196,23.46617 16.6886,16.63569 24.2105,24.82567 25.00132,27.22189 2.39692,7.26274 0.41325,16.82443 -10.09097,48.64029 -5.44758,16.5 -12.1914,37.28009 -14.98626,46.17797 -4.2514,13.53502 -5.57587,16.59391 -8.1073,18.72396 -4.1296,3.47483 -13.45196,6.17717 -29.73613,8.61982 -15.88137,2.38224 -49.16088,3.58032 -53.36204,1.92107 z"
       id="path3008" />
    <path
       style="fill:url(#linearGradient3893);fill-opacity:1.0;stroke:none;stroke-opacity:1"
       d="m 437.07143,344.34198 c 16.44969,-1.52314 33.40125,-4.77534 37.93663,-7.27823 2.94239,-1.62379 4.23583,-3.1201 4.92854,-5.70156 0.51655,-1.925 6.4957,-20.36583 13.28701,-40.97963 6.7913,-20.6138 12.34782,-37.6013 12.34782,-37.75 0,-0.84894 -5.43792,0.11049 -17.72165,3.12668 -7.60915,1.86838 -22.50086,5.07191 -33.09269,7.11895 -11.73411,2.2678 -19.99414,4.35912 -21.14242,5.35294 -1.24735,1.07957 -3.79018,8.56244 -7.52059,22.13106 -7.12,25.89758 -8.85239,31.31073 -13.71515,42.85538 -2.16733,5.14545 -3.69978,9.98295 -3.40544,10.75 0.65981,1.71942 11.94768,1.86983 28.09794,0.37441 z"
       id="path3006" />
    <path
       style="fill:url(#linearGradient3901);fill-opacity:1;stroke:none;stroke-opacity:1"
       d="m 466.91435,251.30207 c 17.81718,-3.61378 38.09964,-9.0362 39.90708,-10.66897 2.03241,-1.836 2.31335,-7.99892 0.4682,-10.27091 -2.84434,-3.50231 -38.75088,-38.30013 -39.12686,-37.9187 -0.94228,0.95593 -12.59134,55.59264 -12.59134,59.05622 0,2.27111 -0.90672,2.2869 11.34292,-0.19764 z"
       id="path3002" />
    <path
       style="fill:url(#linearGradient3082);fill-opacity:1;stroke:none;filter:url(#filter4111)"
       d="m 576.51104,215.33627 c -15.04262,4.14172 -31.4064,16.35305 -30.375,33.5 1.83561,3.88801 4.93664,8.78084 1.5625,12.78125 -3.08634,8.51887 -0.94315,18.24364 -3.53125,26.625 -9.01715,8.0813 -6.56914,23.13109 1.375,31.06251 5.86577,9.156 16.5055,17.33274 28.0625,14.875 7.90941,9.44466 22.85791,8.79075 29.90625,19.3125 11.22651,8.17062 27.48161,4.55924 37.84375,-3.34375 4.55646,-4.27157 6.27918,-10.7941 12.125,-13.6875 4.85835,-3.55855 8.34823,-9.29583 12.96875,-12.59375 8.90503,-0.027 15.42762,-7.67556 17.09375,-15.875 3.45327,-10.41732 3.80132,-22.82386 -3.8125,-31.56251 -3.60048,-5.43876 -3.90403,-12.17425 -7,-17.875 -2.40763,-5.95692 2.68954,-12.26415 -1.125,-18 -6.27345,-10.1921 -19.26021,-16.23778 -31.0625,-13.5 -15.4427,-9.16382 -33.97377,-10.49461 -51.40625,-7.71875 -4.46834,0.33259 -7.61798,-4.99822 -12.625,-4 z m 39.75,50.21875 c 12.53535,-0.47299 22.59055,17.31472 12.6875,26.59375 -9.27247,9.59527 -28.13893,2.51932 -28.5,-10.9375 -1.39333,-8.2176 5.72022,-17.25041 14.5,-15.59375 0.4391,0.045 0.87443,-0.0651 1.3125,-0.0625 z"
       id="path4071"
       inkscape:connector-curvature="0"
       transform="matrix(0.27518314,0,0,-0.27518314,290.15522,380.70464)" />
    <path
       style="fill:url(#linearGradient4061);fill-opacity:1;stroke:none"
       d="m 448.67235,318.6357 c -2.09392,-1.13659 -4.6011,-2.4618 -5.43487,-4.8157 -0.40069,-1.48028 1.01182,-2.75514 1.1129,-4.03678 -1.74257,-2.92955 -1.28273,-6.3899 -1.33648,-9.64498 -1.21933,-0.6104 -2.64807,-1.92084 -1.7973,-3.3796 1.02426,-2.12618 2.49867,-4.3584 4.72112,-5.35747 1.08359,-0.49305 2.13895,0.95145 3.05281,-0.1204 2.29592,-1.80964 4.90705,-3.12596 7.71373,-3.85256 0.85261,-0.86449 1.11495,-2.62444 2.71743,-2.40785 1.9813,0.10821 4.48136,0.0964 5.82184,1.77149 0.40489,0.92006 0.50571,2.05135 1.59091,2.47665 2.05255,1.25618 3.58775,3.16343 5.05649,4.9877 1.20298,0.11164 2.98827,-0.1025 3.34519,1.44471 0.39414,1.99475 1.61703,4.32702 0.49017,6.26901 -0.83912,0.81647 -1.75401,1.64987 -1.75429,2.94102 -0.2437,1.89501 -1.57875,3.49344 -1.82309,5.34888 0.0151,1.24318 1.37044,2.8784 -0.25205,3.56861 -1.2089,1.19341 -2.97145,2.44406 -4.70125,1.50508 -0.6355,-0.37827 -1.25101,-0.39721 -1.71989,0.18058 -4.10408,2.54806 -9.3277,3.24012 -13.90535,1.53931 -1.30162,-0.48629 -1.81223,2.05785 -2.89802,1.5823 z m 10.49135,-8.32429 c 3.73775,0.21955 7.46914,-2.58586 7.82553,-6.34641 1.00794,-4.44963 -3.83947,-8.47575 -8.10071,-7.53314 -4.80112,0.71816 -7.94826,6.71305 -5.33167,10.92133 1.11161,2.07318 3.30278,3.10144 5.60685,2.95822 z"
       id="path4029"
       inkscape:connector-curvature="0" />
    <path
       inkscape:connector-curvature="0"
       id="path3181"
       style="fill:#000000;fill-opacity:1;stroke:none"
       d="m 462.69448,298.34144 c 1.84464,0.91922 2.83941,2.3521 2.99696,4.31687 0.16269,2.02868 -0.95765,4.12865 -2.81499,5.27646 -1.21231,0.74919 -1.56391,0.82942 -3.61914,0.82583 -2.4327,-0.004 -3.18627,-0.32128 -4.28242,-1.80172 -1.12573,-1.52039 -1.09344,-4.71582 0.065,-6.42743 1.81405,-2.6804 4.89924,-3.56309 7.65464,-2.19001 z m -5.05747,-2.17044 c -5.79678,2.07547 -7.45693,9.35323 -3.02185,13.24727 1.12636,0.98897 2.47709,1.40656 4.55634,1.40864 4.72972,0.005 8.1304,-2.99016 8.44883,-7.44069 0.11882,-1.66073 0.0437,-2.08548 -0.60264,-3.40653 -1.67984,-3.43345 -5.77959,-5.09802 -9.38068,-3.80869 z m 4.5979,-10.35686 c 1.97944,0.41067 2.63545,0.88043 2.85363,2.04344 0.14214,0.75767 0.46616,1.16451 1.45757,1.83017 1.69737,1.13964 3.21017,2.58323 4.20284,4.01054 0.76993,1.10706 0.88566,1.16953 2.16639,1.16953 1.58253,0 1.68461,0.12575 2.31751,2.85476 0.66871,2.88343 0.5902,3.57759 -0.50743,4.48636 -0.76266,0.63143 -0.99319,1.07588 -1.23197,2.37522 -0.16155,0.87913 -0.68338,2.41483 -1.1596,3.41267 -0.8456,1.77179 -0.85736,1.84969 -0.50261,3.32848 l 0.36326,1.51424 -0.94846,0.80316 c -1.8162,1.53797 -2.33127,1.69094 -3.8521,1.14406 -1.24547,-0.44786 -1.37945,-0.4502 -1.84149,-0.032 -0.72114,0.65263 -3.25291,1.7598 -5.1505,2.25238 -2.09633,0.54417 -4.84337,0.54336 -6.76179,-0.002 -2.83849,-0.8069 -2.70984,-0.81311 -3.73459,0.18011 l -0.95383,0.92449 -1.29644,-0.68241 c -0.71305,-0.37533 -1.88515,-1.24785 -2.60468,-1.93895 -1.54378,-1.48277 -1.66169,-2.26206 -0.63455,-4.19385 l 0.67368,-1.26701 -0.74248,-1.73219 c -0.66932,-1.56153 -0.74341,-2.06462 -0.75202,-5.10633 l -0.01,-3.37414 -1.02239,-0.69474 c -0.63576,-0.43201 -1.02239,-0.91372 -1.02239,-1.27383 0,-0.98799 1.1631,-2.96945 2.65362,-4.52072 1.48959,-1.5503 2.17021,-1.78268 3.47717,-1.18719 0.57583,0.26236 0.90302,0.11817 2.76763,-1.21962 2.02302,-1.45146 3.95663,-2.36371 5.89746,-2.78237 0.62982,-0.13585 1.03163,-0.45496 1.34151,-1.06538 0.24331,-0.47928 0.5659,-1.02622 0.71687,-1.21541 0.33888,-0.42467 1.91075,-0.44164 3.83973,-0.0414 z m -4.65209,-1.96875 c -0.33368,0.14483 -0.86249,0.76472 -1.17513,1.37754 -0.31263,0.61282 -0.74701,1.11422 -0.96528,1.11422 -0.8831,0 -3.58929,1.22839 -5.45444,2.47588 -1.79974,1.20374 -2.09334,1.31235 -3.21864,1.19066 -1.05309,-0.11388 -1.42959,-0.006 -2.51784,0.72172 -2.37034,1.58495 -4.61898,5.14033 -4.6308,7.32183 -0.005,0.91779 0.1647,1.28104 0.95709,2.04906 0.95627,0.92685 0.96315,0.95072 0.96315,3.34198 0,1.81899 0.17217,2.95348 0.70347,4.63534 l 0.70347,2.22689 -0.60341,0.97633 c -0.71375,1.15488 -0.77759,2.67435 -0.16233,3.86413 0.59287,1.14648 2.68503,2.95004 4.78329,4.12345 1.9107,1.06853 2.48404,1.04781 3.57482,-0.12918 l 0.65791,-0.70988 1.75215,0.46688 c 3.3634,0.89622 7.63735,0.48217 11.05496,-1.07098 1.31187,-0.59618 1.97687,-0.72509 3.55061,-0.68826 1.81879,0.0426 2.03724,-0.0198 3.59595,-1.02727 0.91274,-0.58993 1.94335,-1.43045 2.29024,-1.86783 0.56005,-0.7061 0.61243,-0.99505 0.46745,-2.57848 -0.14215,-1.5525 -0.057,-2.0588 0.65783,-3.91248 0.45161,-1.17107 0.82111,-2.385 0.82111,-2.69763 0,-0.31263 0.43165,-1.00007 0.95922,-1.52763 1.23945,-1.23946 1.39478,-1.95028 0.99576,-4.55683 -0.6744,-4.40543 -1.73636,-6.2288 -3.44152,-5.90895 -0.77942,0.1462 -0.99238,0.004 -2.48383,-1.66399 -0.89723,-1.00315 -2.22842,-2.25289 -2.95822,-2.77719 -0.75483,-0.5423 -1.3269,-1.17033 -1.3269,-1.45673 0,-0.8971 -1.34219,-2.1446 -2.95769,-2.74904 -1.73598,-0.64951 -5.62791,-0.98222 -6.59245,-0.56356 z" />
  </g>
</svg>
