<?xml version="1.0" encoding="UTF-8" standalone="no"?>
<!-- Created with Inkscape (http://www.inkscape.org/) -->

<svg
   xmlns:dc="http://purl.org/dc/elements/1.1/"
   xmlns:cc="http://creativecommons.org/ns#"
   xmlns:rdf="http://www.w3.org/1999/02/22-rdf-syntax-ns#"
   xmlns:svg="http://www.w3.org/2000/svg"
   xmlns="http://www.w3.org/2000/svg"
   xmlns:xlink="http://www.w3.org/1999/xlink"
   xmlns:sodipodi="http://sodipodi.sourceforge.net/DTD/sodipodi-0.dtd"
   xmlns:inkscape="http://www.inkscape.org/namespaces/inkscape"
   width="744.09448819"
   height="1052.3622047"
   id="svg2"
   version="1.1"
   inkscape:version="0.48.4 r9939"
   sodipodi:docname="train.svg"
   inkscape:export-filename="C:\Users\garysoed\Google Drive\Happy My Life\Artwork\exports\train.png"
   inkscape:export-xdpi="159.90846"
   inkscape:export-ydpi="159.90846">
  <defs
     id="defs4">
    <linearGradient
       id="linearGradient3815">
      <stop
         style="stop-color:#ffe6d5;stop-opacity:1;"
         offset="0"
         id="stop3817" />
      <stop
         style="stop-color:#ffd1b1;stop-opacity:1;"
         offset="1"
         id="stop3819" />
    </linearGradient>
    <linearGradient
       id="linearGradient3858">
      <stop
         style="stop-color:#784421;stop-opacity:1;"
         offset="0"
         id="stop3860" />
      <stop
         style="stop-color:#532f17;stop-opacity:1;"
         offset="1"
         id="stop3862" />
    </linearGradient>
    <linearGradient
       id="linearGradient3850">
      <stop
         style="stop-color:#ff7600;stop-opacity:1;"
         offset="0"
         id="stop3852" />
      <stop
         style="stop-color:#fc8200;stop-opacity:1;"
         offset="1"
         id="stop3854" />
    </linearGradient>
    <linearGradient
       id="linearGradient3842">
      <stop
         style="stop-color:#ff0000;stop-opacity:1;"
         offset="0"
         id="stop3844" />
      <stop
         style="stop-color:#b80000;stop-opacity:1;"
         offset="1"
         id="stop3846" />
    </linearGradient>
    <linearGradient
       id="linearGradient3806">
      <stop
         style="stop-color:#e6e6e6;stop-opacity:1;"
         offset="0"
         id="stop3808" />
      <stop
         style="stop-color:#d2d2d2;stop-opacity:1;"
         offset="1"
         id="stop3810" />
    </linearGradient>
    <linearGradient
       inkscape:collect="always"
       xlink:href="#linearGradient3806"
       id="linearGradient3812"
       x1="165.21428"
       y1="617.15863"
       x2="172.2841"
       y2="774.30151"
       gradientUnits="userSpaceOnUse"
       gradientTransform="translate(247.14286,1.4285714)" />
    <linearGradient
       inkscape:collect="always"
       xlink:href="#linearGradient3806"
       id="linearGradient3814"
       x1="223.75935"
       y1="526.47998"
       x2="214.07143"
       y2="599.3371"
       gradientUnits="userSpaceOnUse"
       gradientTransform="translate(247.14286,1.4285714)" />
    <linearGradient
       inkscape:collect="always"
       xlink:href="#linearGradient3806"
       id="linearGradient3816"
       x1="174.3476"
       y1="522.38306"
       x2="165.15332"
       y2="588.09735"
       gradientUnits="userSpaceOnUse"
       gradientTransform="translate(247.14286,1.4285714)" />
    <linearGradient
       inkscape:collect="always"
       xlink:href="#linearGradient3842"
       id="linearGradient3848"
       x1="164.51787"
       y1="594.34735"
       x2="178.59299"
       y2="647.20447"
       gradientUnits="userSpaceOnUse"
       gradientTransform="translate(247.14286,1.4285714)" />
    <linearGradient
       inkscape:collect="always"
       xlink:href="#linearGradient3850"
       id="linearGradient3856"
       x1="152.05798"
       y1="329.12042"
       x2="202.22203"
       y2="431.97757"
       gradientUnits="userSpaceOnUse"
       gradientTransform="translate(247.14286,1.4285714)" />
    <linearGradient
       inkscape:collect="always"
       xlink:href="#linearGradient3858"
       id="linearGradient3864"
       x1="-63.442047"
       y1="629.15411"
       x2="-63.984089"
       y2="660.5827"
       gradientUnits="userSpaceOnUse"
       gradientTransform="translate(247.14286,1.4285714)" />
    <linearGradient
       inkscape:collect="always"
       xlink:href="#linearGradient3858"
       id="linearGradient3866"
       x1="-48.599438"
       y1="485.10129"
       x2="-49.778454"
       y2="520.81555"
       gradientUnits="userSpaceOnUse"
       gradientTransform="translate(247.14286,1.4285714)" />
    <linearGradient
       inkscape:collect="always"
       xlink:href="#linearGradient3858"
       id="linearGradient3868"
       x1="-179.42857"
       y1="422.75134"
       x2="-180.61058"
       y2="459.8942"
       gradientUnits="userSpaceOnUse"
       gradientTransform="translate(247.14286,1.4285714)" />
    <linearGradient
       inkscape:collect="always"
       xlink:href="#linearGradient3858"
       id="linearGradient3926"
       gradientUnits="userSpaceOnUse"
       x1="-126.87633"
       y1="397.96793"
       x2="-119.21149"
       y2="765.11078"
       gradientTransform="matrix(0,-1,1,0,-697.42504,464.32082)" />
    <filter
       id="filter3928"
       inkscape:menu-tooltip="3D warped, fibered wood texture"
       inkscape:menu="Materials"
       inkscape:label="3D wood"
       height="1.5"
       y="-0.25"
       width="1.5"
       x="-0.25"
       color-interpolation-filters="sRGB">
      <feGaussianBlur
         id="feGaussianBlur3930"
         result="result8"
         stdDeviation="4" />
      <feTurbulence
         id="feTurbulence3932"
         baseFrequency="0.025 0.2"
         numOctaves="3"
         type="fractalNoise"
         result="result7"
         seed="22" />
      <feComposite
         id="feComposite3934"
         in2="result8"
         operator="in"
         in="SourceGraphic"
         result="result6" />
      <feDisplacementMap
         id="feDisplacementMap3936"
         in2="result6"
         result="result4"
         scale="50"
         yChannelSelector="A"
         xChannelSelector="A"
         in="result7" />
      <feFlood
         id="feFlood3938"
         flood-color="rgb(230,211,138)"
         flood-opacity="1"
         in="result4"
         result="result9" />
      <feComposite
         id="feComposite3940"
         in2="result4"
         operator="atop"
         result="result2" />
      <feComposite
         id="feComposite3942"
         in2="SourceGraphic"
         operator="atop"
         in="result2"
         result="result9" />
      <feGaussianBlur
         id="feGaussianBlur3944"
         result="result0"
         in="result9"
         stdDeviation="8" />
      <feSpecularLighting
         id="feSpecularLighting3946"
         specularExponent="15"
         specularConstant="0.7"
         surfaceScale="5"
         lighting-color="rgb(255,255,255)"
         result="result1"
         in="result0">
        <feDistantLight
           id="feDistantLight3948"
           azimuth="235"
           elevation="50" />
      </feSpecularLighting>
      <feComposite
         id="feComposite3950"
         in2="result9"
         operator="in"
         result="result2"
         in="result1" />
      <feComposite
         id="feComposite3952"
         in2="result2"
         k3="0.5"
         k2="0.5"
         operator="arithmetic"
         result="result4"
         in="result9" />
      <feConvolveMatrix
         id="feConvolveMatrix3954"
         order="3 3"
         kernelMatrix="2 0 0 0 2 0 0 0 -2 "
         targetX="2"
         targetY="2"
         result="result10" />
      <feBlend
         id="feBlend3956"
         in2="result10"
         mode="multiply"
         in="result10" />
    </filter>
    <clipPath
       clipPathUnits="userSpaceOnUse"
       id="clipPath3960">
      <path
         id="path3962"
         d="m 63.00693,564.55618 c -2.88456,-11.39047 -6.90996,-20.02991 -10.4984,-22.53205 -2.31743,-1.61589 -4.50827,-1.67018 -30,-0.74348 -15.125,0.54984 -34.475,1.31417 -43,1.69851 l -15.5,0.6988 -1.52068,9.5 -1.52068,9.5 -6.47932,3.3321 c -6.13319,3.1541 -6.93712,3.31173 -15.0491,2.95064 -7.10998,-0.31648 -9.36387,-0.84683 -13.2316,-3.11347 -5.8975,-3.45617 -6.69862,-5.02328 -6.69862,-13.10353 0,-4.53074 -0.38743,-6.59781 -1.25,-6.66921 -3.6493,-0.30206 -21.85444,0.4535 -63.25,2.62504 -25.3,1.3272 -58.6,2.8881 -74,3.46867 -60.27912,2.27249 -72.738,2.96239 -74.11353,4.10398 -0.75907,0.62997 -2.31423,4.12899 -3.45593,7.77559 -5.05388,16.14228 -1.02408,39.79287 9.2658,54.38019 2.05553,2.914 6.06068,3.7156 7.49464,1.5 0.44496,-0.6875 1.50642,-4.84717 2.3588,-9.24371 1.39412,-7.19083 1.88637,-8.22055 4.90104,-10.25213 4.56344,-3.0753 10.28883,-4.50472 18.13808,-4.5284 7.94184,-0.024 15.70799,3.1378 21.20193,8.63173 3.414,3.41401 3.58531,3.89268 3.04024,8.49498 -0.3177,2.68241 -0.18465,5.10891 0.29565,5.3922 1.91393,1.1289 104.6932,-3.05717 129.37328,-5.26921 5.775,-0.51761 22.2,-1.85982 36.5,-2.98269 14.3,-1.12288 41.3,-3.38965 60,-5.03728 18.7,-1.64763 40.3,-3.24034 48,-3.53936 17.87234,-0.69404 18.32811,-0.80104 20.02378,-4.70098 2.3649,-5.43909 1.87517,-20.88334 -1.02538,-32.33693 z"
         style="fill:url(#linearGradient3964);fill-opacity:1;stroke:none"
         inkscape:connector-curvature="0" />
    </clipPath>
    <linearGradient
       inkscape:collect="always"
       xlink:href="#linearGradient3858"
       id="linearGradient3964"
       gradientUnits="userSpaceOnUse"
       x1="-126.87633"
       y1="397.96793"
       x2="-119.21149"
       y2="765.11078"
       gradientTransform="matrix(0,-1,1,0,-697.42508,464.32082)" />
    <linearGradient
       inkscape:collect="always"
       xlink:href="#linearGradient3858"
       id="linearGradient3966"
       gradientUnits="userSpaceOnUse"
       x1="-126.87633"
       y1="397.96793"
       x2="-119.21149"
       y2="765.11078"
       gradientTransform="translate(247.14286,1.4285714)" />
    <linearGradient
       inkscape:collect="always"
       xlink:href="#linearGradient3815"
       id="linearGradient3821"
       x1="436.57547"
       y1="393.79779"
       x2="465.25009"
       y2="499.51208"
       gradientUnits="userSpaceOnUse" />
  </defs>
  <sodipodi:namedview
     id="base"
     pagecolor="#ffffff"
     bordercolor="#666666"
     borderopacity="1.0"
     inkscape:pageopacity="0.0"
     inkscape:pageshadow="2"
     inkscape:zoom="0.7"
     inkscape:cx="408.1704"
     inkscape:cy="485.29101"
     inkscape:document-units="px"
     inkscape:current-layer="layer1"
     showgrid="false"
     inkscape:window-width="1280"
     inkscape:window-height="738"
     inkscape:window-x="-8"
     inkscape:window-y="-8"
     inkscape:window-maximized="1" />
  <metadata
     id="metadata7">
    <rdf:RDF>
      <cc:Work
         rdf:about="">
        <dc:format>image/svg+xml</dc:format>
        <dc:type
           rdf:resource="http://purl.org/dc/dcmitype/StillImage" />
        <dc:title></dc:title>
      </cc:Work>
    </rdf:RDF>
  </metadata>
  <g
     inkscape:label="Layer 1"
     inkscape:groupmode="layer"
     id="layer1">
    <path
       style="fill:#000000;fill-opacity:1;stroke:none"
       d="m 242.5625,386.40625 c -26.82992,25.85189 -53.56237,51.80241 -80.3125,77.75 -27.63787,-21.5132 -55.26071,-43.04597 -82.96875,-64.46875 -6.175834,31.37116 -12.343101,62.744 -18.46875,94.125 -40.704107,-12.21566 -81.478973,-24.19508 -122.15625,-36.5 16.386044,30.30388 32.919701,60.5251 49.34375,90.8125 -45.833332,0.0416 -91.66666,0.0976 -137.5,0.125 36.50284,23.17261 72.998873,46.35594 109.5,69.53125 -41.244411,12.44557 -82.47415,24.94022 -123.75,37.28125 49.57466,11.02418 99.111016,22.21956 148.65625,33.375 C -43.284443,710.37172 -71.290325,732.57145 -99.5,754.5 -47.257869,751.18579 4.9855245,747.88998 57.21875,744.4375 47.443859,771.41234 37.649011,798.37994 27.84375,825.34375 71.90267,808.50746 115.95343,791.64984 160,774.78125 c 9.844,26.65616 19.68603,53.31304 29.53125,79.96875 27.54331,-26.58705 55.01927,-53.24134 82.5,-79.90625 27.63787,21.5132 55.26071,43.04597 82.96875,64.46875 6.17583,-31.37116 12.3431,-62.744 18.46875,-94.125 40.70411,12.21566 81.47897,24.19508 122.15625,36.5 -16.39498,-30.28861 -32.88361,-60.52385 -49.34375,-90.78125 45.80208,-0.0417 91.60416,-0.0974 137.40625,-0.125 C 547.27105,667.52195 510.76957,644.39627 474.28125,621.25 515.49336,608.73581 556.75604,596.38335 598,583.96875 c -49.55974,-11.04439 -99.08055,-22.26237 -148.625,-33.375 28.19069,-21.93422 56.19658,-44.13395 84.40625,-66.0625 -52.24239,3.2998 -104.48182,6.64618 -156.71875,10.03125 9.78154,-26.96201 19.57446,-53.91989 29.375,-80.875 -44.06615,16.80694 -88.11423,33.6612 -132.15625,50.53125 -9.84387,-26.64579 -19.68678,-53.29193 -29.53125,-79.9375 -0.72917,0.70833 -1.45833,1.41667 -2.1875,2.125 z"
       id="path3043"
       inkscape:connector-curvature="0" />
    <path
       sodipodi:type="star"
       style="fill:#ffeb15;fill-opacity:1;stroke:none;stroke-opacity:1;stroke-width:8.76179692999999920;stroke-miterlimit:4;stroke-dasharray:none"
       id="path3968"
       sodipodi:sides="14"
       sodipodi:cx="-380"
       sodipodi:cy="283.79074"
       sodipodi:r1="307.32553"
       sodipodi:r2="206.51135"
       sodipodi:arg1="0.29234727"
       sodipodi:arg2="0.44435871"
       inkscape:flatsided="false"
       inkscape:rounded="0"
       inkscape:randomized="0"
       d="m -85.714282,372.36217 -107.829398,0.20346 40.25625,118.711 -97.23921,-46.60212 -15.23715,124.42145 -67.3896,-84.17756 -67.71264,105.4887 -24.19265,-105.08062 -106.77681,65.66262 23.79594,-105.17116 -124.69253,12.83126 67.07147,-84.43127 -117.91136,-42.5415 97.06265,-46.96873 -87.7764,-89.48839 107.8294,-0.20345 -40.25625,-118.711008 97.23921,46.602118 15.23715,-124.4214518 67.3896,84.1775678 67.71264,-105.488703 24.19265,105.080619 106.77681,-65.662624 -23.79594,105.171162 124.69253,-12.83125 -67.07147,84.43127 117.911364,42.5415 -97.062654,46.96872 z"
       transform="matrix(1.1571486,0,0,0.72045104,656.85934,415.0477)" />
    <path
       style="fill:#000000;fill-opacity:1;stroke:none"
       d="m 372.85391,797.4702 c -1.3513,-2.14059 -3.22091,-6.22779 -4.15469,-9.08267 -1.62793,-4.97711 -1.61464,-5.52674 0.32299,-13.35802 1.92118,-7.7648 12.38807,-35.6664 24.82172,-66.16733 7.68384,-18.84918 18.44179,-47.44121 18.44179,-49.01382 0,-0.69971 -0.7875,-1.58013 -1.75,-1.95648 -0.9625,-0.37635 -24.25,-1.30502 -51.75,-2.06371 -53.45102,-1.47464 -69.6621,-2.51982 -84.12827,-5.42404 -11.28244,-2.26505 -16.00899,-4.43978 -17.99457,-8.27949 -1.23959,-2.39709 -1.30967,-3.51121 -0.3644,-5.7933 0.64369,-1.554 1.75635,-3.05032 2.47257,-3.32516 0.71622,-0.27484 10.68752,-2.10175 22.15844,-4.05979 22.99217,-3.92469 88.09577,-18.16366 100.88739,-22.06535 4.46657,-1.36238 8.80831,-3.27397 9.6483,-4.24796 1.84819,-2.14302 9.0934,-19.041 12.3237,-28.74254 1.28712,-3.8656 2.48796,-9.47044 2.66853,-12.45521 l 0.32831,-5.42684 -39.5,-0.0732 c -36.05038,-0.0668 -39.78763,-0.23018 -42.79336,-1.87125 -4.56025,-2.48979 -5.98418,-5.86629 -3.8485,-9.12575 2.24031,-3.41914 3.5784,-4.01247 16.77844,-7.4398 17.11936,-4.44497 33.35171,-7.70974 52.52672,-10.56459 18.93287,-2.8188 21.22691,-3.46015 25.63056,-7.16557 l 3.01573,-2.53758 19.09521,0.5394 c 20.25106,0.57204 37.56491,2.98848 41.74538,5.82626 1.2924,0.87731 5.72482,4.60806 9.84982,8.29056 10.62851,9.48834 15.78297,13.33166 39.5,29.45233 33.48027,22.75683 41.5,29.57307 41.5,35.27222 0,2.92147 -2.84187,5.75062 -5.77647,5.75062 -4.76123,0 -20.22839,-6.80361 -46.69822,-20.54135 -15.38609,-7.98531 -28.64659,-14.38936 -29.46778,-14.23121 -1.13664,0.21889 -2.17483,4.82165 -4.34879,19.28005 -1.57063,10.44588 -2.95538,21.70973 -3.07721,25.03077 -0.13794,3.76022 -0.86476,6.95663 -1.92652,8.47251 -0.93776,1.33883 -1.71015,3.12161 -1.71643,3.96174 -0.0264,3.52872 -10.4841,32.40479 -15.58276,43.02749 -6.61386,13.77949 -11.07017,21.10416 -26.46528,43.5 -23.1497,33.67673 -47.31055,74.36908 -46.34606,78.05729 0.36443,1.39357 -0.7885,3.64129 -3.70969,7.23234 -5.47904,6.73545 -8.68062,7.07815 -12.3166,1.31839 z"
       id="path3036"
       inkscape:connector-curvature="0" />
    <path
       style="fill:url(#linearGradient3812);fill-opacity:1;stroke:none"
       d="m 380.67873,790.78039 c 0.33385,-0.86998 0.60794,-2.33248 0.60911,-3.25 0.006,-4.88013 22.12108,-42.02381 47.43349,-79.66821 9.98527,-14.85 20.89306,-32.4 24.23954,-39 6.86734,-13.54393 13.8608,-31.66096 13.04364,-33.79044 -0.56952,-1.48415 -19.21948,-5.5422 -20.33663,-4.42506 -0.33088,0.33088 0.13804,7.03973 1.04205,14.90855 l 1.64365,14.30695 -2.14471,1.75 c -2.44762,1.99716 -8.6055,2.30748 -12.30851,0.62028 -3.14824,-1.43444 -3.89512,-3.47438 -7.092,-19.37028 -3.96301,-19.70536 -2.71385,-18.73939 -14.25378,-11.02242 -11.91503,7.96782 -14.00738,8.22163 -19.42247,2.35603 -2.11551,-2.29151 -3.84639,-4.93431 -3.84639,-5.87287 0,-0.93856 3.375,-4.9124 7.5,-8.83075 4.125,-3.91834 7.5,-7.5238 7.5,-8.01212 0,-0.48832 -1.18455,-1.664 -2.63234,-2.61262 -2.51503,-1.64791 -2.79355,-1.63528 -6.25,0.28343 -1.98971,1.10451 -7.29301,3.15983 -11.78511,4.56738 -12.30755,3.85642 -82.44649,19.14665 -102.08256,22.25391 -9.4875,1.50132 -17.25,3.11439 -17.25,3.5846 0,4.35811 40.28891,8.27351 95.50001,9.281 49.88017,0.91021 59.1943,2.13646 60.33547,7.94349 0.43635,2.2204 -6.68235,21.51033 -24.57082,66.58094 -14.87469,37.47731 -21.26465,55.16347 -21.26465,58.85641 0,3.24192 3.06287,10.14359 4.50159,10.14359 0.70644,0 1.55758,-0.7118 1.89142,-1.58179 z"
       id="path3034"
       inkscape:connector-curvature="0" />
    <path
       style="fill:url(#linearGradient3814);fill-opacity:1;stroke:none"
       d="m 474.21311,605.11218 c 0.58805,-2.8875 2.36496,-14.18946 3.94869,-25.11546 1.88613,-13.01224 3.3529,-20.18311 4.25172,-20.78625 2.84325,-1.90793 8.47969,0.37668 32.45069,13.15321 22.68525,12.09121 41.1231,20.9985 43.46637,20.9985 0.52533,0 0.95514,-0.37981 0.95514,-0.84402 0,-1.22458 -18.88681,-15.07548 -38.36874,-28.13822 -18.23879,-12.22922 -28.95623,-20.38428 -37.69247,-28.68077 -6.75695,-6.41683 -10.00407,-7.85134 -21.37173,-9.4416 -7.46542,-1.04436 -8.9294,-1.01603 -9.65491,0.1868 -1.55017,2.57006 -2.33862,3.35406 -10.41215,10.35346 -4.4,3.8146 -8.5625,7.61311 -9.25,8.44113 -1.36564,1.64476 -1.50099,14.83547 -0.386,37.61897 l 0.636,12.99575 4,1.91183 c 4.58172,2.18987 33.40113,12.46694 35.1791,12.54494 0.64851,0.0285 1.66024,-2.31077 2.24829,-5.19827 z"
       id="path3024"
       inkscape:connector-curvature="0" />
    <path
       id="path3022"
       style="fill:url(#linearGradient3848);fill-opacity:1;stroke:none"
       d="m 416.35459,603.61218 c 2.13864,-1.5125 3.89804,-3.21592 3.90978,-3.78537 0.024,-1.16542 -12.20767,-7.46463 -14.49472,-7.46463 -1.76452,0 -4.49253,5.96372 -3.55097,7.76282 0.89817,1.71621 7.24771,6.12742 8.90726,6.18814 0.73713,0.027 3.09002,-1.18846 5.22865,-2.70096 z m 20.93113,8.87244 c 0,-6.26982 -0.44476,-6.9722 -5.74624,-9.0746 -3.11264,-1.23438 -3.4213,-1.13062 -7.5,2.52134 -2.33957,2.09479 -4.40071,4.16453 -4.58032,4.59943 -0.1796,0.4349 1.3954,1.51778 3.5,2.4064 2.10461,0.88862 5.40156,2.42396 7.32656,3.41188 6.24694,3.20594 7,2.7902 7,-3.86445 z m 33.03038,10.2855 c 0.7602,-2.30341 0.83992,-3.93764 0.22222,-4.55534 -1.16586,-1.16586 -22.74701,-8.8526 -24.8544,-8.8526 -1.19728,0 -1.43456,1.24007 -1.19592,6.25 l 0.29772,6.25 8.5,2.18939 c 4.675,1.20417 10.1526,2.21667 12.17245,2.25 3.34801,0.0553 3.77718,-0.25673 4.85793,-3.53145 z m -60.47377,2.55386 c 4.15958,-2.80685 7.38671,-5.63402 7.17141,-6.28258 -0.21529,-0.64857 -1.56429,-1.59378 -2.99776,-2.10047 -2.22109,-0.78508 -3.24363,-0.3961 -6.91828,2.63177 -8.97583,7.39595 -10.10333,8.7335 -8.74338,10.37214 1.5697,1.89137 2.23223,1.62487 11.48801,-4.62086 z m 30.74361,28.49989 c -2.84275,-27.91349 -2.99436,-28.46169 -7.87165,-28.46169 -1.33571,0 -2.42857,0.25753 -2.42857,0.57229 0,1.27851 6.23856,28.98709 6.69438,29.73308 0.95981,1.57084 3.8054,0.11588 3.60584,-1.84368 z"
       inkscape:connector-curvature="0" />
    <path
       style="fill:url(#linearGradient3816);fill-opacity:1;stroke:none"
       d="m 424.53883,569.01657 c -0.30023,-12.29349 -0.26542,-23.46919 0.0774,-24.8349 0.3717,-1.48099 4.23972,-5.47686 9.58447,-9.90129 4.92869,-4.08001 8.98912,-8.0385 9.02316,-8.79665 0.0501,-1.11576 -1.98683,-1.29404 -10.68854,-0.93552 -9.50543,0.39164 -11.50318,0.80715 -17.25,3.58778 -5.03103,2.43428 -9.66275,3.61024 -20.49955,5.20465 -27.78817,4.08847 -64.87617,12.39217 -64.21518,14.37726 0.52517,1.57722 54.00329,2.09956 66.80048,0.65245 12.08513,-1.36658 14.3983,-0.63966 15.91748,5.00215 1.35886,5.04643 0.64405,10.86611 -2.73563,22.27211 -1.55961,5.2635 -2.23464,9.12498 -1.68472,9.63736 1.49081,1.38905 14.80133,6.96106 15.53925,6.505 0.37252,-0.23022 0.43167,-10.4769 0.13143,-22.7704 z"
       id="path3020"
       inkscape:connector-curvature="0" />
    <path
       style="fill:#000000;fill-opacity:1;stroke:none"
       d="m 118.28572,771.4882 c -3.74725,-0.3609 -7.98225,-1.4966 -10,-2.6817 l -3.5,-2.05568 -1.19286,-19.30989 c -0.65607,-10.62044 -2.56702,-34.89538 -4.246553,-53.94432 -8.90168,-100.96145 -11.0455,-134.24538 -12.66523,-196.63443 -0.37125,-14.3 -1.02823,-26.95276 -1.45996,-28.11725 -0.8931,-2.40893 -5.66371,-3.32879 -30.9354,-5.96486 -22.18007,-2.31359 -22.34676,-2.34242 -25.8464,-4.47067 -2.2564,-1.3722 -4.23863,-4.04132 -6.34647,-8.54568 -2.74274,-5.8611 -3.01338,-7.2748 -2.57247,-13.43718 0.61246,-8.5599 4.58006,-17.27063 9.13028,-20.04522 3.97065,-2.42118 8.35911,-2.4096 30.63506,0.0809 9.625,1.07608 18.98289,1.96629 20.79531,1.97825 3.17039,0.0209 3.27384,-0.10146 2.72881,-3.22825 -0.65782,-3.77385 -0.36747,-4.26357 4.97588,-8.39277 19.931363,-15.40239 54.535673,-18.29645 72.580373,-6.07009 l 3.26594,2.21286 0.2465,12.5 c 0.39151,19.85362 2.44103,64.24575 3.00852,65.16398 0.28418,0.45981 5.10264,0.83711 10.70768,0.83845 13.68947,0.003 36.3655,1.76901 40.69098,3.16854 5.76132,1.86411 9.8071,5.69176 13.1121,12.40517 2.75501,5.59622 3.07653,7.12048 2.71144,12.85418 -0.48288,7.58342 -2.56923,10.54734 -9.82354,13.95552 -4.21294,1.9793 -6.12667,2.11416 -30,2.11416 l -25.5,0 0.10967,4.5 c 0.32548,13.35536 3.65041,78.2337 4.22801,82.5 l 0.67694,5 19.49269,0.50516 c 17.27175,0.4476 20.03173,0.75356 24.22374,2.68538 5.10011,2.35031 9.92336,8.60674 11.77587,15.27494 3.44393,12.39664 -3.38232,26.70111 -13.66239,28.62966 -1.97813,0.3711 -9.05238,0.15665 -15.72057,-0.47655 -6.66818,-0.63321 -14.71678,-1.39187 -17.88578,-1.68593 -4.41205,-0.4094 -5.88893,-0.20338 -6.30445,0.87944 -0.29845,0.77775 0.17532,20.57098 1.05284,43.98494 1.37804,36.76945 1.40308,43.03131 0.18368,45.94973 -4.33896,10.38459 -36.07389,20.05554 -58.67024,17.87925 z"
       id="path3018"
       inkscape:connector-curvature="0" />
    <path
       style="fill:url(#linearGradient3926);fill-opacity:1;stroke:none;filter:url(#filter3928)"
       d="m -308.73754,581.19582 c 1.20231,17.91534 5.08767,38.44858 20.9375,49.1875 10.02356,4.10758 20.98126,-6.07405 19.65625,-16.28125 -0.0891,-3.98775 2.34464,-7.88179 6.65625,-7.59375 7.14521,-1.47665 17.06466,-0.84031 21,6 -1.47039,8.03418 4.76957,17.83805 13.74994,16.05118 95.21556,-0.79023 190.012694,-11.18827 284.863864,-18.07543 7.15495,-0.26178 13.80213,-4.62812 15.8237,-11.632 3.59286,-12.71135 0.6824,-26.32798 -1.76287,-39.00405 -2.72808,-10.50891 -7.33314,-22.33019 -17.45588,-27.5272 -12.0651,-4.28897 -24.97812,0.20826 -37.40347,-0.85079 -20.2968399,0.72874 -40.58837,1.59754 -60.87778,2.50704 -4.51396,6.94079 -1.07625,16.32415 -5.6875,22.96875 -6.40684,2.93744 -15.98774,4.06366 -21,-1.53125 -0.11393,-6.73932 -0.38968,-16.6616 -8.53125,-18.5625 -47.594554,-1.15731 -94.998384,4.609 -142.557864,5.41099 -24.46817,1.16601 -49.18814,0.97276 -73.44214,4.27651 -12.8732,4.81725 -13.42009,22.63029 -13.96875,34.65625 z"
       id="path3872"
       inkscape:connector-curvature="0"
       transform="matrix(0,1,-1,0,711.46368,698.85365)"
       clip-path="url(#clipPath3960)" />
    <path
       style="fill:url(#linearGradient3966);fill-opacity:1;stroke:none"
       d="m 146.9075,761.86058 c 11.39046,-2.88456 20.0299,-6.90996 22.53204,-10.4984 1.61589,-2.31743 1.67018,-4.50827 0.74348,-30 -0.54984,-15.125 -1.31417,-34.475 -1.69851,-43 l -0.6988,-15.5 -9.5,-1.52068 -9.5,-1.52068 -3.33209,-6.47932 c -3.1541,-6.13319 -3.31173,-6.93712 -2.95064,-15.0491 0.31648,-7.10998 0.84683,-9.36387 3.11347,-13.2316 3.45616,-5.8975 5.02327,-6.69862 13.10352,-6.69862 4.53074,0 6.59781,-0.38743 6.66921,-1.25 0.30206,-3.6493 -0.4535,-21.85444 -2.62504,-63.25 -1.3272,-25.3 -2.8881,-58.6 -3.46867,-74 -2.27249,-60.27912 -2.96239,-72.738 -4.10398,-74.11353 -0.62997,-0.75907 -4.12899,-2.31423 -7.77559,-3.45593 -16.14227,-5.05388 -39.79286,-1.02408 -54.380183,9.2658 -2.914,2.05553 -3.7156,6.06068 -1.5,7.49464 0.6875,0.44496 4.84717,1.50642 9.243713,2.3588 7.19083,1.39412 8.22055,1.88637 10.25213,4.90104 3.0753,4.56344 4.50472,10.28883 4.5284,18.13808 0.024,7.94184 -3.1378,15.70799 -8.63173,21.20193 -3.41401,3.414 -3.89268,3.58531 -8.494983,3.04024 -2.68241,-0.3177 -5.10891,-0.18465 -5.3922,0.29565 -1.1289,1.91393 3.05717,104.6932 5.26921,129.37328 0.51761,5.775 1.859823,22.2 2.982693,36.5 1.12288,14.3 3.38965,41.3 5.03728,60 1.64763,18.7 3.24034,40.3 3.53936,48 0.69404,17.87234 0.80104,18.32811 4.70098,20.02378 5.43909,2.3649 20.88334,1.87517 32.33693,-1.02538 z"
       id="path3016"
       inkscape:connector-curvature="0" />
    <path
       style="fill:url(#linearGradient3864);fill-opacity:1;stroke:none"
       d="m 217.89892,656.09447 c 5.88132,-4.62624 6.93286,-13.32125 2.63679,-21.80298 -4.22158,-8.33464 -4.06573,-8.29998 -37.63511,-8.36949 l -28.88511,-0.0598 -1.97039,2.62979 c -3.17212,4.23368 -3.5366,14.19276 -0.756,20.65646 1.23359,2.86756 2.74998,5.22234 3.36975,5.23284 8.81603,0.14938 35.86478,2.18495 38.12686,2.86927 1.65,0.49916 7.38391,0.90856 12.74203,0.90978 8.33682,0.002 10.12127,-0.29607 12.37118,-2.06585 z"
       id="path3014"
       inkscape:connector-curvature="0" />
    <path
       style="fill:url(#linearGradient3866);fill-opacity:1;stroke:none"
       d="m 222.00607,517.05277 c 6.21436,-3.3023 7.06936,-10.03746 2.32442,-18.31034 -3.96743,-6.91726 -7.17023,-8.07888 -25.76226,-9.34367 -20.78725,-1.41413 -31.26146,-1.34287 -31.36846,0.21342 -0.3317,4.82471 0.37419,23.18401 0.97882,25.45773 0.71414,2.68554 1.04573,2.81599 8.67482,3.41285 4.36277,0.34132 15.5823,0.54424 24.9323,0.45094 13.89189,-0.13863 17.58878,-0.48252 20.22036,-1.88093 z"
       id="path3012"
       inkscape:connector-curvature="0" />
    <path
       style="fill:url(#linearGradient3868);fill-opacity:1;stroke:none"
       d="m 102.56095,459.55158 c 2.83004,-2.46308 6.05901,-14.47489 5.28269,-19.65172 -0.7739,-5.16071 -4.09084,-10.49458 -7.58043,-12.18982 -1.362623,-0.66197 -9.002493,-1.6502 -16.977493,-2.19608 -7.975,-0.54587 -22.2463,-1.797 -31.71399,-2.78028 l -17.21399,-1.78779 -2.48511,2.33464 c -2.76724,2.59969 -5.58691,9.86411 -5.58691,14.39377 0,4.29096 1.93041,10.06777 4.39874,13.16335 2.02633,2.54125 2.93505,2.77261 16.1243,4.10523 16.72925,1.69029 31.14596,3.89769 37.97696,5.8148 5.93287,1.66505 15.1987,1.03634 17.775233,-1.2061 z"
       id="path3010"
       inkscape:connector-curvature="0" />
    <path
       style="fill:#000000;fill-opacity:1;stroke:none"
       d="m 414.67447,509.94181 c -15.52899,-3.55089 -26.45624,-13.42458 -34.50685,-31.17981 -8.77473,-19.35226 -12.20699,-57.34274 -6.76683,-74.89982 2.40643,-7.76633 2.43881,-9.93209 0.13493,-9.02485 -3.74786,1.47585 -18.95657,4.48268 -22.77749,4.50321 -4.85046,0.0261 -8.47252,-2.26534 -8.47252,-5.35991 0,-1.24748 1.0772,-5.43525 2.39378,-9.30615 1.31658,-3.8709 2.10408,-7.48469 1.75,-8.03064 -0.35408,-0.54595 -2.78103,-1.22736 -5.39323,-1.51425 -5.47701,-0.60152 -7.76382,-2.12429 -7.71875,-5.13985 0.0432,-2.88826 1.16601,-4.14666 10.72055,-12.01498 4.53881,-3.73777 7.99283,-7.21589 7.67561,-7.72916 -0.31722,-0.51327 -3.58078,-2.44613 -7.25236,-4.29525 -9.56517,-4.81731 -11.62078,-6.6783 -10.83499,-9.80915 0.35317,-1.40713 1.43351,-2.87553 2.40076,-3.26311 0.96725,-0.38758 10.30863,-2.3838 20.75864,-4.43605 l 19,-3.73136 0.0345,-3.56208 c 0.0863,-8.91893 4.23958,-8.78104 28.46553,0.94512 9.625,3.86421 17.8375,6.82887 18.25,6.58813 0.4125,-0.24074 0.75,-2.3664 0.75,-4.7237 0,-3.0189 0.59247,-4.82218 2.00406,-6.09965 2.58364,-2.33816 4.02548,-1.66777 14.83319,6.89682 4.58548,3.63377 8.99073,6.60686 9.78945,6.60686 0.79871,0 3.79094,-1.575 6.6494,-3.5 2.85846,-1.925 6.03131,-3.5 7.05077,-3.5 1.01946,0 6.04737,4.05 11.17313,9 5.12576,4.95 9.75359,9 10.28406,9 0.53047,0 2.93356,-0.69515 5.34021,-1.54478 2.40665,-0.84963 5.3801,-1.2931 6.60765,-0.98548 2.05603,0.51521 11.99852,16.18663 25.3966,40.03026 l 3.37148,6 0.51391,18.5 c 0.50819,18.29384 0.54998,18.57647 3.75,25.36227 1.77985,3.77425 3.23609,7.65665 3.23609,8.62756 0,2.67372 -2.39498,4.11357 -6.39434,3.84422 -1.97859,-0.13325 -4.07309,0.23338 -4.65444,0.81473 -0.58134,0.58134 -1.67602,5.73569 -2.43261,11.45411 -2.58849,19.5643 -5.11433,26.53887 -12.16641,33.59509 -11.13684,11.14335 -46.31236,21.96481 -74.3522,22.87382 -8.47569,0.27477 -14.46749,-0.0446 -18.61125,-0.99217 z"
       id="path3008"
       inkscape:connector-curvature="0" />
    <path
       style="fill:url(#linearGradient3821);fill-opacity:1;stroke:none"
       d="m 448.03667,502.80195 c 5.7792,-0.85813 15.87019,-3.10374 22.42443,-4.99025 28.95447,-8.33397 36.43932,-14.0402 40.31026,-30.73136 1.93717,-8.35291 3.54159,-19.86508 2.9108,-20.88573 -0.27657,-0.4475 -1.80534,0.14934 -3.39727,1.3263 -2.69261,1.99074 -3.0619,2.03019 -5.29679,0.56583 -1.32316,-0.86696 -5.17025,-6.88639 -8.56369,-13.39933 -3.81045,-7.31332 -8.80705,-14.98564 -13.09554,-20.10832 -3.81383,-4.55571 -8.37222,-10.85571 -10.12976,-14 -3.50263,-6.26633 -13.52401,-17.21691 -15.75599,-17.21691 -0.77287,0 -4.10073,1.8 -7.39526,4 -6.94247,4.636 -9.95078,4.97852 -13.17456,1.5 -1.27431,-1.375 -2.58792,-2.5 -2.91914,-2.5 -0.33121,0 -3.87961,2.97215 -7.88533,6.60477 -13.16177,11.9359 -17.12623,12.27453 -21.79805,1.86193 -1.59578,-3.55668 -3.03273,-6.45899 -3.19324,-6.44956 -3.14412,0.18464 -15.56632,4.32157 -16.39995,5.46163 -0.62638,0.85662 -2.3875,5.26183 -3.9136,9.78936 -2.53128,7.50964 -2.77338,9.50404 -2.75941,22.73187 0.0367,34.75524 9.68301,61.34901 26.06643,71.86222 9.24825,5.93459 24.28375,7.50003 43.96566,4.57755 z"
       id="path3006"
       inkscape:connector-curvature="0" />
    <path
       style="fill:#000000;fill-opacity:1;stroke:none"
       d="m 438.28572,493.75418 c -10.24298,-3.13205 -12.0192,-4.02472 -16.25,-8.16662 -6.70574,-6.56485 -6.3076,-12.14332 1.01177,-14.17605 7.26131,-2.0166 32.95381,-0.73375 35.45801,1.77045 2.84663,2.84663 -0.50445,19.86535 -4.45666,22.63359 -2.83449,1.98535 -2.30048,2.05519 -15.76312,-2.06137 z"
       id="path3004"
       inkscape:connector-curvature="0" />
    <path
       style="fill:#800000;fill-opacity:1;stroke:none"
       d="m 451.23314,485.61218 c 1.43731,-5.1755 1.31547,-6.93514 -0.52921,-7.64301 -0.86998,-0.33385 -6.45818,-0.60699 -12.41821,-0.60699 -5.96003,0 -11.54823,0.27314 -12.41821,0.60699 -1.71795,0.65924 -2.12615,2.93854 -0.6857,3.82879 1.2919,0.79844 22.37547,7.45198 23.80691,7.51296 0.66164,0.0282 1.67163,-1.63624 2.24442,-3.69874 z"
       id="path3002"
       inkscape:connector-curvature="0" />
    <path
       style="fill:url(#linearGradient3856);fill-opacity:1;stroke:none"
       d="m 511.26348,434.2727 c 0.0526,-1.39482 5.17038,-2.76074 8.38764,-2.23865 l 3.4995,0.56789 -1.93245,-6.20897 c -1.56449,-5.02672 -1.93245,-9.20072 -1.93245,-21.921 l 0,-15.71202 -11.53126,-19.93015 c -6.34219,-10.96158 -11.94257,-20.34145 -12.44528,-20.84416 -0.55203,-0.55203 -2.70182,-0.41347 -5.42815,0.34985 -2.48277,0.69514 -5.74323,0.9554 -7.24547,0.57836 -1.50224,-0.37704 -6.43772,-4.30322 -10.96772,-8.72485 l -8.23638,-8.03933 -6.03402,3.72441 c -7.44317,4.59419 -8.89862,4.35174 -18.45605,-3.07441 -7.60128,-5.9062 -8.65567,-6.35205 -8.65567,-3.66 0,0.97763 -0.70052,2.77763 -1.5567,4 -2.54518,3.63375 -7.38859,2.83639 -25.96785,-4.27501 -9.3365,-3.57364 -17.53795,-6.49864 -18.22545,-6.5 -0.75996,-0.002 -1.25,1.35583 -1.25,3.46234 0,2.28373 -0.59988,3.78586 -1.75983,4.40664 -0.9679,0.51801 -8.0554,2.13613 -15.75,3.59584 -22.26724,4.2242 -21.78936,3.84611 -11.44529,9.0553 3.87469,1.95126 7.30884,4.23562 7.63146,5.07634 1.06006,2.76246 -1.38368,6.0059 -9.03817,11.99589 -7.55554,5.91254 -9.26758,8.40517 -5.77303,8.40517 1.02583,0 3.05083,0.93266 4.5,2.07258 3.24487,2.55241 3.38415,5.76627 0.60716,14.00964 -1.11523,3.31052 -1.7387,6.48674 -1.38548,7.05826 0.81962,1.32618 3.25102,0.87816 28.59702,-5.26935 11.37611,-2.75921 21.95111,-4.87148 23.5,-4.69394 2.29508,0.26308 3.40313,1.42821 5.98837,6.29688 1.74472,3.28574 3.55706,6.10235 4.02742,6.25914 0.47036,0.15679 4.89286,-3.32769 9.82778,-7.74329 10.89962,-9.75259 12.86179,-10.48414 16.48376,-6.1456 1.44897,1.73562 2.9639,3.15568 3.36653,3.15568 0.40262,0 3.38266,-1.8 6.6223,-4 3.23964,-2.2 7.07336,-4 8.51937,-4 3.69919,0 13.46697,9.56196 19.74083,19.32487 2.76564,4.30368 8.09193,11.50368 11.83621,16 3.74428,4.49632 8.92203,12.22513 11.50612,17.17513 6.33201,12.12941 6.37281,12.17386 8.56225,9.3278 0.98491,-1.28029 1.80075,-2.59307 1.81298,-2.91728 z"
       id="path3000"
       inkscape:connector-curvature="0" />
  </g>
</svg>
